<svg class="img-fluid" id="outputsvg" xmlns="http://www.w3.org/2000/svg" style="transform: matrix(2.197, 0, 0, 2.197, -23, 117); transform-origin: 50% 50% 0px; cursor: move; max-height: none;" width="200" height="200" viewBox="0 0 2000 2000"><defs><linearGradient id="lg3igBRQKnc0tVuy" gradientUnits="userSpaceOnUse" x1="52%" y1="23.5%" x2="77%" y2="23.5%"><stop offset="0%" style="stop-color:rgb(62,236,79);"></stop><stop offset="100%" style="stop-color:rgb(0,159,13);"></stop></linearGradient><linearGradient id="lg57Xgc7o6MEi0Fq" gradientUnits="userSpaceOnUse" x1="20.5%" y1="77%" x2="36%" y2="49.5%"><stop offset="0%" style="stop-color:rgb(0,165,15);"></stop><stop offset="100%" style="stop-color:rgb(67,242,83);"></stop></linearGradient></defs><g id="lAbEfLD6oIK2NcEGSyHeoy" fill="rgb(165,255,156)" style="transform: none;"><g style="transform: none;"><path id="pGdom5zvZ" d="M 891 1949 c -112 -11 -272 -53 -340 -89 -53 -29 -155 -103 -231 -169 -35 -30 -35 -30 10 -76 102 -105 260 -183 416 -205 43 -6 169 -15 279 -20 219 -11 270 -18 312 -45 57 -38 110 -121 129 -204 20 -83 22 -81 -62 -56 -138 43 -261 57 -514 60 -338 3 -396 21 -539 167 -51 52 -74 86 -102 150 -20 46 -40 83 -44 83 -5 0 -28 -39 -52 -87 -64 -127 -105 -299 -106 -448 -2 -207 66 -428 181 -585 85 -116 91 -123 160 -171 37 -25 81 -56 99 -69 52 -37 180 -81 304 -105 96 -19 139 -22 245 -18 168 7 235 33 249 99 8 36 -13 72 -53 93 -15 7 -76 19 -137 25 -205 21 -244 30 -339 79 -48 26 -99 57 -113 69 -13 13 -28 23 -33 23 -31 0 -210 206 -210 243 0 5 24 -5 54 -22 29 -17 62 -31 73 -31 11 0 40 -7 64 -16 76 -27 187 -44 419 -65 267 -23 323 -35 395 -82 55 -37 75 -73 75 -138 0 -32 -33 -128 -55 -163 -23 -34 -11 -33 51 7 191 121 215 142 282 247 153 241 207 520 153 793 -26 132 -49 175 -151 279 -61 62 -93 85 -164 119 -83 40 -94 43 -195 47 -81 3 -145 -2 -273 -22 -177 -28 -224 -27 -278 5 -37 23 -53 60 -42 102 19 72 120 102 342 101 162 0 260 -17 369 -65 85 -37 22 8 -82 59 -174 85 -360 120 -546 101 z "></path></g></g><g id="l3wmW8DxLXm2u32ZOeGNLAy" fill="rgb(142,255,141)" style="transform: none;"><g style="transform: none;"><path id="p316EsK2H" d="M 891 1949 c -112 -11 -272 -53 -340 -89 -53 -29 -154 -102 -231 -168 -29 -25 -32 -32 -22 -45 18 -21 165 -82 237 -98 51 -11 55 -14 39 -26 -17 -12 -17 -13 2 -13 15 0 16 -2 4 -9 -8 -6 -18 -7 -22 -5 -4 3 -8 -4 -8 -15 0 -15 14 -24 63 -40 87 -29 180 -40 412 -51 219 -11 270 -18 312 -45 57 -38 110 -121 129 -204 20 -83 22 -81 -62 -56 -138 43 -261 57 -514 60 -338 3 -396 21 -539 167 -51 52 -74 86 -102 150 -20 46 -40 83 -44 83 -21 0 -97 -180 -124 -292 -44 -181 -47 -237 -16 -321 14 -38 25 -76 25 -83 0 -49 177 -266 282 -347 53 -40 58 -57 6 -21 -22 16 -28 18 -19 6 12 -15 12 -22 1 -42 -9 -16 -10 -28 -3 -37 5 -7 13 -21 16 -31 11 -31 -25 -3 -99 76 -82 88 -157 217 -178 307 -20 84 -44 159 -46 140 0 -8 12 -67 26 -130 39 -168 90 -270 224 -442 12 -15 51 -48 88 -74 37 -25 81 -56 99 -69 52 -37 180 -81 304 -105 96 -19 139 -22 245 -18 168 7 235 33 249 99 8 36 -13 72 -53 93 -15 7 -76 19 -137 25 -205 21 -244 30 -339 79 -48 26 -99 57 -113 69 -13 13 -28 23 -33 23 -31 0 -210 206 -210 243 0 5 24 -5 54 -22 29 -17 62 -31 73 -31 11 0 40 -7 64 -16 76 -27 187 -44 419 -65 267 -23 323 -35 395 -82 55 -37 75 -73 75 -138 0 -32 -33 -128 -55 -163 -23 -34 -11 -33 51 7 191 121 215 142 282 247 152 240 207 520 153 793 -26 132 -49 175 -151 279 -61 62 -93 85 -164 119 -83 40 -94 43 -195 47 -81 3 -145 -2 -273 -22 -177 -28 -224 -27 -278 5 -37 23 -53 60 -42 102 19 72 120 102 342 101 112 0 171 -4 213 -16 31 -9 54 -12 51 -7 -3 5 -12 9 -19 9 -8 0 -12 6 -9 14 8 20 -25 36 -142 67 -118 30 -235 40 -353 28 z  m 871 -584 c 93 -91 133 -163 147 -268 13 -92 14 -137 4 -136 -5 0 -26 37 -48 82 -42 86 -152 214 -208 244 -27 14 -28 15 -12 33 15 17 15 21 -4 59 -12 22 -22 49 -24 60 -2 10 -9 27 -17 37 -38 45 94 -44 162 -111 z "></path></g></g><g id="l6LBsaQ2xmcjx8MOK9n1d4u" fill="rgb(114,255,122)" style="transform: none;"><g style="transform: none;"><path id="pb8XySt0S" d="M 978 1955 c -2 -3 -42 -7 -89 -10 -105 -6 -265 -46 -339 -86 -67 -36 -260 -182 -260 -197 0 -11 73 -49 146 -78 59 -22 92 -27 234 -34 164 -9 204 -15 195 -30 -3 -4 2 -10 10 -14 8 -3 15 -11 15 -19 0 -7 9 -23 20 -35 20 -21 20 -22 1 -22 -24 0 -35 -26 -15 -34 9 -3 67 -6 129 -6 128 0 256 -16 297 -36 61 -31 123 -123 144 -213 20 -83 22 -81 -62 -56 -138 43 -261 57 -514 60 -338 3 -396 21 -539 167 -51 52 -74 86 -102 150 -20 46 -40 83 -44 83 -21 0 -97 -180 -124 -292 -46 -190 -47 -230 -9 -342 18 -53 51 -125 75 -161 51 -78 158 -191 233 -247 67 -50 257 -137 360 -165 84 -23 105 -34 47 -25 -22 3 -35 2 -32 -4 4 -5 1 -9 -4 -9 -6 0 -11 -11 -11 -24 0 -13 -7 -27 -16 -30 -8 -3 -12 -10 -9 -16 16 -26 -34 -19 -137 20 -131 49 -227 108 -299 182 -52 55 -143 194 -172 263 -17 40 -17 40 -10 -4 11 -79 84 -210 203 -363 12 -15 51 -48 88 -74 37 -25 81 -56 99 -69 52 -37 180 -81 304 -105 96 -19 139 -22 245 -18 168 7 235 33 249 99 8 36 -13 72 -53 93 -15 7 -76 19 -137 25 -205 21 -244 30 -339 79 -48 26 -99 57 -113 69 -13 13 -28 23 -33 23 -31 0 -210 206 -210 243 0 5 24 -5 54 -22 29 -17 62 -31 73 -31 11 0 40 -7 64 -16 76 -27 187 -44 419 -65 267 -23 323 -35 395 -82 55 -37 75 -73 75 -138 0 -32 -33 -128 -55 -163 -10 -14 -13 -26 -9 -26 21 0 242 150 275 187 66 73 161 252 192 364 46 161 42 224 -25 351 -84 163 -206 259 -383 305 -43 11 -61 19 -47 21 27 4 28 28 2 62 -11 14 -20 41 -20 63 0 37 0 37 50 37 84 0 195 -65 315 -185 92 -91 131 -169 141 -276 3 -42 10 -82 16 -90 13 -20 1 114 -23 239 -23 126 -47 170 -149 274 -61 62 -93 85 -164 119 -83 40 -94 43 -195 47 -81 3 -145 -2 -273 -22 -177 -28 -224 -27 -278 5 -56 35 -61 113 -10 150 38 28 133 49 248 56 58 3 99 10 94 15 -5 5 -44 13 -88 18 -100 11 -118 18 -103 36 6 8 18 14 25 14 8 0 14 5 14 10 0 10 -42 14 -52 5 z "></path></g></g><g id="l3Xrq48eLR6HpD2XlTO635P" fill="rgb(79,255,93)" style="transform: none;"><g style="transform: none;"><path id="pJPOGvdBQ" d="M 175 1503 c -47 -85 -66 -136 -95 -253 -45 -188 -46 -229 -7 -341 43 -122 71 -169 160 -268 117 -130 197 -184 389 -260 65 -25 94 -35 183 -57 11 -3 -15 14 -59 38 -43 25 -90 54 -103 66 -14 12 -29 22 -33 22 -31 0 -210 207 -210 243 0 5 24 -5 54 -22 29 -17 62 -31 73 -31 11 0 40 -7 64 -16 76 -27 187 -44 419 -65 267 -23 323 -35 395 -82 55 -37 75 -73 75 -138 0 -32 -33 -128 -55 -163 -10 -14 -15 -26 -12 -26 11 0 102 52 122 70 11 10 45 34 75 53 66 42 93 71 148 157 108 171 172 374 151 487 -23 124 -148 305 -253 367 -70 41 -189 76 -279 82 -82 6 -82 6 -48 -16 63 -40 117 -122 137 -209 20 -83 22 -81 -62 -56 -138 43 -261 57 -514 60 -338 3 -395 20 -540 168 -52 53 -73 84 -100 148 -19 44 -38 83 -41 85 -4 2 -19 -17 -34 -43 z "></path></g></g><g id="l7Pa79XswvmSF48cvJEYvwY" fill="rgb(63,238,80)" style="transform: none;"><g style="transform: none;"><path id="p13jGhgBIf" d="M 194 1483 c -18 -172 43 -399 128 -477 54 -49 191 -116 237 -116 24 0 62 16 125 54 50 29 134 77 186 106 89 50 125 78 113 90 -2 3 -77 5 -166 5 -254 1 -330 28 -467 168 -52 53 -73 84 -100 148 -19 44 -38 83 -41 85 -4 2 -11 -26 -15 -63 z " fill="url(#lg57Xgc7o6MEi0Fq)"></path><path id="pY9QEfElG" d="M 112 1375 c -7 -14 -12 -31 -12 -38 1 -7 7 3 16 22 17 39 13 54 -4 16 z "></path><path id="peZgaPMSK" d="M 1328 1351 c 69 -45 123 -131 142 -227 12 -61 12 -61 96 -103 91 -46 145 -98 201 -192 42 -70 67 -168 60 -234 -6 -50 -6 -50 18 3 53 117 78 241 64 319 -23 124 -148 305 -253 367 -70 41 -189 76 -279 82 -82 6 -82 6 -49 -15 z "></path><path id="p1B0kRkHqa" d="M 73 1220 c -37 -164 -38 -199 -2 -303 41 -122 74 -178 161 -275 118 -131 198 -185 390 -261 65 -25 94 -35 183 -57 11 -3 -15 14 -59 38 -43 25 -90 54 -103 66 -14 12 -29 22 -33 22 -31 0 -210 206 -210 242 0 4 -19 20 -43 37 -79 54 -172 157 -213 233 -39 73 -39 73 -44 213 -5 140 -5 140 -27 45 z "></path><path id="p14yh74dYk" d="M 1012 778 c -8 -8 -12 -45 -12 -103 0 -110 2 -112 134 -126 151 -15 203 -29 266 -70 60 -39 80 -73 80 -140 0 -31 -31 -126 -55 -166 -9 -15 11 2 46 40 70 76 107 152 116 238 7 74 -31 165 -86 203 -131 91 -443 170 -489 124 z " fill="url(#lg3igBRQKnc0tVuy)"></path></g></g><g id="l1taitVm7kDVeVxXl96npJw" fill="rgb(44,222,66)" style="transform: none;"><g style="transform: none;"><path id="pCDuvpXtV" d="M 195 1476 c -13 -132 17 -281 79 -404 21 -41 40 -62 88 -92 65 -43 85 -48 94 -26 3 8 33 26 67 42 60 26 158 86 185 112 7 6 21 12 30 13 21 0 -47 22 -157 48 -97 24 -138 49 -231 144 -52 53 -73 84 -100 148 -19 44 -38 83 -41 85 -4 2 -10 -29 -14 -70 z " fill="url(#lg57Xgc7o6MEi0Fq)"></path><path id="p18ISyw5K8" d="M 1328 1350 c 68 -42 123 -129 142 -226 10 -53 16 -63 43 -76 154 -75 181 -97 245 -204 55 -92 78 -177 69 -251 -6 -48 -6 -48 18 5 26 57 48 128 64 207 22 112 -41 271 -154 393 -46 48 -79 73 -140 102 -83 40 -202 70 -277 70 -43 0 -43 0 -10 -20 z "></path><path id="phTs8Q3ZQ" d="M 73 1218 c -37 -162 -37 -191 1 -305 39 -116 84 -192 169 -283 124 -133 260 -214 472 -281 94 -29 96 -23 10 26 -44 25 -85 52 -91 60 -6 8 -16 15 -22 15 -32 0 -212 205 -212 241 0 3 -17 18 -38 32 -68 45 -168 152 -212 226 -49 85 -65 169 -54 289 3 39 4 72 2 72 -2 0 -14 -42 -25 -92 z "></path><path id="pco4mkmLq" d="M 1092 674 c 0 -124 -10 -114 143 -139 105 -16 191 -56 221 -101 37 -54 24 -165 -29 -254 -30 -51 0 -24 63 56 56 69 100 173 100 234 0 46 -43 145 -74 172 -66 57 -293 138 -387 138 -37 0 -37 0 -37 -106 z " fill="url(#lg3igBRQKnc0tVuy)"></path></g></g><g id="l615ysSaux8K5T9KXQy8Ms1" fill="rgb(29,207,54)" style="transform: none;"><g style="transform: none;"><path id="pOuEYUrlz" d="M 196 1482 c -11 -107 10 -243 51 -342 42 -100 103 -175 103 -127 0 8 10 18 23 24 32 15 165 101 171 112 3 5 -23 27 -59 50 -35 23 -95 73 -133 112 -54 55 -75 86 -102 150 -19 44 -37 82 -41 85 -4 2 -9 -27 -13 -64 z " fill="url(#lg57Xgc7o6MEi0Fq)"></path><path id="pUc9ULa2L" d="M 1328 1351 c 69 -44 123 -131 142 -226 12 -60 12 -60 83 -95 101 -48 146 -88 200 -173 55 -87 81 -177 75 -256 -5 -55 -5 -55 18 -2 26 57 47 129 63 206 32 163 -121 417 -301 499 -87 39 -137 52 -238 61 -75 7 -75 7 -42 -14 z "></path><path id="pKs9HgBvb" d="M 73 1218 c -38 -163 -37 -191 2 -308 54 -157 160 -297 306 -405 63 -46 238 -127 339 -156 93 -27 94 -24 5 26 -44 25 -85 52 -91 60 -6 8 -16 15 -22 15 -32 0 -212 205 -212 241 0 3 -19 19 -42 34 -78 51 -180 165 -223 249 -40 79 -40 79 -40 208 0 70 0 128 -1 128 0 0 -10 -42 -21 -92 z "></path><path id="p1rXUZPcV" d="M 1176 759 c 3 -6 6 -51 5 -99 -2 -106 3 -113 94 -130 92 -17 180 -75 194 -127 6 -21 11 -50 11 -64 0 -31 -35 -136 -52 -157 -11 -13 -11 -14 7 -2 66 42 155 206 155 286 0 52 -37 134 -78 172 -45 41 -146 89 -236 114 -80 21 -110 23 -100 7 z " fill="url(#lg3igBRQKnc0tVuy)"></path></g></g><g id="l6XjtceCPOsloRmXnSPcQBx" fill="rgb(14,194,43)" style="transform: none;"><g style="transform: none;"><path id="pbdYUYu4Z" d="M 200 1423 c 0 -82 5 -150 15 -186 15 -59 64 -163 65 -139 0 21 21 37 88 71 37 19 62 38 62 47 0 9 -33 49 -73 90 -60 60 -79 88 -107 155 -19 44 -38 83 -42 85 -5 3 -8 -53 -8 -123 z " fill="url(#lg57Xgc7o6MEi0Fq)"></path><path id="pvzRJbRpP" d="M 1328 1350 c 69 -43 123 -129 142 -225 12 -60 12 -60 84 -94 99 -48 139 -82 193 -164 55 -85 83 -168 83 -245 0 -57 0 -57 20 -15 21 48 44 124 58 197 22 112 -47 280 -165 401 -94 97 -206 144 -378 160 -70 6 -70 6 -37 -15 z "></path><path id="pnGx37Ynw" d="M 68 1200 c -32 -144 -31 -176 6 -281 18 -53 48 -122 67 -155 37 -66 167 -206 240 -259 73 -54 360 -175 415 -175 5 0 -27 20 -71 45 -44 25 -85 52 -91 60 -6 8 -16 15 -22 15 -30 0 -182 170 -214 239 -2 4 -26 23 -54 44 -79 57 -165 155 -208 236 -36 69 -39 80 -45 190 -6 116 -6 116 -23 41 z "></path><path id="pThd6TpCK" d="M 1261 668 c -2 -99 10 -134 49 -143 16 -4 56 -24 89 -45 62 -40 81 -73 81 -141 0 -29 -34 -133 -51 -158 -6 -9 15 12 48 47 62 67 102 148 111 228 6 55 -41 161 -86 193 -40 28 -169 88 -208 96 -31 6 -31 6 -33 -77 z " fill="url(#lg3igBRQKnc0tVuy)"></path></g></g><g id="l3vuPWtdiGQsGca4ocKyyo6" fill="rgb(0,179,32)" style="transform: none;"><g style="transform: none;"><path id="ppbm24Tx8" d="M 203 1405 c 6 -162 12 -200 31 -184 6 5 30 23 54 40 57 40 61 54 24 92 -16 18 -44 66 -62 107 -18 41 -37 80 -42 85 -7 7 -8 -41 -5 -140 z " fill="url(#lg57Xgc7o6MEi0Fq)"></path><path id="p5cRUr4Wa" d="M 1329 1350 c 65 -41 116 -120 140 -217 16 -65 16 -65 101 -110 104 -54 138 -86 195 -183 51 -88 65 -134 65 -215 0 -60 0 -60 20 -18 22 48 44 125 58 198 13 68 -5 153 -53 244 -41 78 -128 182 -183 220 -70 48 -188 84 -312 96 -65 6 -65 6 -31 -15 z "></path><path id="p6JK3cf4w" d="M 68 1200 c -32 -143 -31 -174 7 -284 18 -54 50 -126 71 -158 47 -76 162 -198 239 -253 64 -45 260 -136 335 -155 25 -6 54 -14 65 -16 11 -3 -16 15 -60 40 -44 26 -85 53 -91 61 -6 8 -16 15 -22 15 -30 0 -182 170 -214 239 -2 4 -26 23 -54 44 -80 58 -171 161 -211 240 -34 67 -37 80 -42 187 -6 115 -6 115 -23 40 z "></path><path id="p9qQupPPu" d="M 1356 617 c 1 -102 1 -102 50 -139 75 -56 90 -118 55 -221 -11 -32 -16 -57 -12 -57 17 0 86 96 109 150 37 90 39 137 7 208 -31 68 -65 100 -150 138 -31 13 -57 24 -58 24 -1 0 -2 -46 -1 -103 z " fill="url(#lg3igBRQKnc0tVuy)"></path></g></g><g id="l5TpCBZB6f5UQjMkAZI9mSM" fill="rgb(0,165,18)" style="transform: none;"><g style="transform: none;"><path id="pyFiXIQcD" d="M 200 1440 c 0 -99 6 -114 30 -85 7 8 16 13 20 10 4 -3 12 1 18 8 7 9 2 34 -20 90 -17 42 -35 77 -39 77 -5 0 -9 -45 -9 -100 z " fill="url(#lg57Xgc7o6MEi0Fq)"></path><path id="pOVGH7yWo" d="M 1340 1343 c 60 -42 112 -128 130 -215 11 -58 11 -58 87 -95 97 -49 143 -89 197 -173 51 -79 76 -152 76 -224 0 -51 0 -51 19 -23 18 29 42 104 59 189 12 65 -10 165 -56 252 -49 93 -150 200 -223 237 -77 38 -191 69 -259 69 -54 0 -54 0 -30 -17 z "></path><path id="p1FdDKqgx8" d="M 68 1200 c -30 -128 -27 -191 13 -301 48 -127 91 -192 202 -303 101 -100 177 -146 344 -210 141 -54 159 -54 76 0 -40 25 -73 50 -73 55 0 5 -6 9 -14 9 -25 0 -135 110 -181 179 -23 36 -62 80 -86 98 -79 57 -163 149 -209 229 -45 78 -45 78 -50 199 -5 120 -5 120 -22 45 z "></path><path id="pwSM0ECPP" d="M 1431 669 c 8 -16 12 -55 10 -116 -2 -69 1 -97 13 -115 25 -38 30 -106 13 -171 -9 -32 -12 -57 -7 -55 24 9 81 97 105 162 32 88 30 119 -12 203 -23 46 -38 62 -82 86 -53 30 -53 30 -40 6 z " fill="url(#lg3igBRQKnc0tVuy)"></path></g></g></svg>
