<?xml version="1.0" encoding="UTF-8" standalone="no"?>
<!-- Created with matplotlib (https://matplotlib.org/) -->

<svg
   xmlns:dc="http://purl.org/dc/elements/1.1/"
   xmlns:cc="http://creativecommons.org/ns#"
   xmlns:rdf="http://www.w3.org/1999/02/22-rdf-syntax-ns#"
   xmlns:svg="http://www.w3.org/2000/svg"
   xmlns="http://www.w3.org/2000/svg"
   xmlns:xlink="http://www.w3.org/1999/xlink"
   xmlns:sodipodi="http://sodipodi.sourceforge.net/DTD/sodipodi-0.dtd"
   xmlns:inkscape="http://www.inkscape.org/namespaces/inkscape"
   height="288pt"
   version="1.1"
   viewBox="0 0 432 288"
   width="432pt"
   id="svg323"
   sodipodi:docname="cell-grow-divide-4.svg"
   inkscape:version="0.92.5 (2060ec1f9f, 2020-04-08)">
  <sodipodi:namedview
     pagecolor="#ffffff"
     bordercolor="#666666"
     borderopacity="1"
     objecttolerance="10"
     gridtolerance="10"
     guidetolerance="10"
     inkscape:pageopacity="0"
     inkscape:pageshadow="2"
     inkscape:window-width="1920"
     inkscape:window-height="1163"
     id="namedview325"
     showgrid="false"
     inkscape:zoom="2.4583333"
     inkscape:cx="379.66756"
     inkscape:cy="237.91007"
     inkscape:window-x="0"
     inkscape:window-y="0"
     inkscape:window-maximized="1"
     inkscape:current-layer="axes_1" />
  <metadata
     id="metadata2">
    <rdf:RDF>
      <cc:Work>
        <dc:type
           rdf:resource="http://purl.org/dc/dcmitype/StillImage" />
        <dc:date>2023-02-01T14:29:36.264555</dc:date>
        <dc:format>image/svg+xml</dc:format>
        <dc:creator>
          <cc:Agent>
            <dc:title>Matplotlib v3.3.4, https://matplotlib.org/</dc:title>
          </cc:Agent>
        </dc:creator>
        <dc:title></dc:title>
      </cc:Work>
    </rdf:RDF>
  </metadata>
  <defs
     id="defs6">
    <style
       type="text/css"
       id="style4">*{stroke-linecap:butt;stroke-linejoin:round;}</style>
  </defs>
  <g
     id="figure_1">
    <g
       id="patch_1">
      <path
         d="M 0 288  L 432 288  L 432 0  L 0 0  z "
         style="fill:#ffffff;"
         id="path8" />
    </g>
    <g
       id="axes_1">
      <g
         id="patch_2">
        <path
           d="M 103.893729 211.48  L 389.76268 211.48  L 389.76268 46.015559  L 103.893729 46.015559  z "
           style="fill:#ffffff;"
           id="path11" />
      </g>
      <g
         id="patch_3">
        <path
           clip-path="url(#pd57c8d99ba)"
           d="M 245.91953 211.48  L 245.91953 46.015559  L 376.768636 46.015559  L 376.768636 211.48  z "
           style="fill:#b2b2b2;opacity:0.2;"
           id="path14" />
      </g>
      <g
         id="PolyCollection_1">
        <path
           clip-path="url(#pd57c8d99ba)"
           d="M 116.887772 203.958889  L 116.887772 203.958889  L 147.7827 201.591887  L 180.494976 201.716047  L 213.207253 202.138231  L 245.91953 201.98903  L 278.631806 201.762662  L 311.344083 202.24284  L 344.05636 202.113448  L 376.768636 202.459445  L 376.768636 201.649942  L 376.768636 201.649942  L 344.05636 201.974392  L 311.344083 202.046405  L 278.631806 201.590598  L 245.91953 201.771316  L 213.207253 201.917189  L 180.494976 201.414234  L 147.7827 201.431327  L 116.887772 203.958889  z "
           style="fill:#179e86;fill-opacity:0.3;"
           id="path17" />
      </g>
      <g
         id="PolyCollection_2">
        <path
           clip-path="url(#pd57c8d99ba)"
           d="M 116.887772 203.958889  L 116.887772 203.958889  L 147.7827 176.73562  L 180.494976 166.462983  L 213.207253 156.818362  L 245.91953 152.232811  L 278.631806 149.541785  L 311.344083 148.953311  L 344.05636 153.911584  L 376.768636 155.623684  L 376.768636 149.039097  L 376.768636 149.039097  L 344.05636 151.741774  L 311.344083 148.315798  L 278.631806 149.047206  L 245.91953 151.527008  L 213.207253 155.943361  L 180.494976 166.286945  L 147.7827 176.269357  L 116.887772 203.958889  z "
           style="fill:#e44c38;fill-opacity:0.3;"
           id="path20" />
      </g>
      <g
         id="PolyCollection_3">
        <path
           clip-path="url(#pd57c8d99ba)"
           d="M 116.887772 203.958889  L 116.887772 203.958889  L 147.7827 174.836093  L 180.494976 145.77671  L 213.207253 119.698902  L 245.91953 91.520825  L 278.631806 82.738649  L 311.344083 80.084489  L 344.05636 66.014309  L 376.768636 62.460712  L 376.768636 53.53667  L 376.768636 53.53667  L 344.05636 61.521616  L 311.344083 72.006731  L 278.631806 78.667153  L 245.91953 89.83932  L 213.207253 119.150045  L 180.494976 144.406996  L 147.7827 174.474013  L 116.887772 203.958889  z "
           style="fill:#3f5486;fill-opacity:0.3;"
           id="path23" />
      </g>
      <g
         id="PolyCollection_4">
        <path
           clip-path="url(#pd57c8d99ba)"
           d="M 116.887772 203.958889  L 116.887772 203.958889  L 147.7827 176.476303  L 180.494976 148.32497  L 213.207253 123.450902  L 245.91953 103.681267  L 278.631806 96.148985  L 311.344083 89.040494  L 344.05636 78.462451  L 376.768636 80.212694  L 376.768636 72.663658  L 376.768636 72.663658  L 344.05636 75.378862  L 311.344083 85.008968  L 278.631806 87.776959  L 245.91953 95.020379  L 213.207253 121.244583  L 180.494976 148.053368  L 147.7827 176.45876  L 116.887772 203.958889  z "
           style="fill:#52b9d4;fill-opacity:0.3;"
           id="path26" />
      </g>
      <g
         id="matplotlib.axis_1">
        <g
           id="xtick_1">
          <g
             id="line2d_1">
            <path
               clip-path="url(#pd57c8d99ba)"
               d="M 115.070423 211.48  L 115.070423 46.015559  "
               style="fill:none;stroke:#999999;stroke-dasharray:1,1.65;stroke-dashoffset:0;"
               id="path32" />
          </g>
          <g
             id="line2d_2">
            <defs
               id="defs36">
              <path
                 d="M 0 0  L 0 3.5  "
                 id="m0c63e950c4"
                 style="stroke:#000000;stroke-width:0.8;" />
            </defs>
            <g
               id="g40">
              <use
                 style="stroke:#000000;stroke-width:0.8;"
                 x="115.070423"
                 xlink:href="#m0c63e950c4"
                 y="211.48"
                 id="use38" />
            </g>
          </g>
          <g
             id="text_1">
            <!-- 0 -->
            <g
               transform="translate(108.071673 235.196562)scale(0.22 -0.22)"
               id="g48">
              <defs
                 id="defs44">
                <path
                   d="M 31.78125 66.40625  Q 24.171875 66.40625 20.328125 58.90625  Q 16.5 51.421875 16.5 36.375  Q 16.5 21.390625 20.328125 13.890625  Q 24.171875 6.390625 31.78125 6.390625  Q 39.453125 6.390625 43.28125 13.890625  Q 47.125 21.390625 47.125 36.375  Q 47.125 51.421875 43.28125 58.90625  Q 39.453125 66.40625 31.78125 66.40625  z M 31.78125 74.21875  Q 44.046875 74.21875 50.515625 64.515625  Q 56.984375 54.828125 56.984375 36.375  Q 56.984375 17.96875 50.515625 8.265625  Q 44.046875 -1.421875 31.78125 -1.421875  Q 19.53125 -1.421875 13.0625 8.265625  Q 6.59375 17.96875 6.59375 36.375  Q 6.59375 54.828125 13.0625 64.515625  Q 19.53125 74.21875 31.78125 74.21875  z "
                   id="DejaVuSans-48" />
              </defs>
              <use
                 xlink:href="#DejaVuSans-48"
                 id="use46" />
            </g>
          </g>
        </g>
        <g
           id="xtick_2">
          <g
             id="line2d_3">
            <path
               clip-path="url(#pd57c8d99ba)"
               d="M 205.937858 211.48  L 205.937858 46.015559  "
               style="fill:none;stroke:#999999;stroke-dasharray:1,1.65;stroke-dashoffset:0;"
               id="path52" />
          </g>
          <g
             id="line2d_4">
            <g
               id="g57">
              <use
                 style="stroke:#000000;stroke-width:0.8;"
                 x="205.937858"
                 xlink:href="#m0c63e950c4"
                 y="211.48"
                 id="use55" />
            </g>
          </g>
          <g
             id="text_2">
            <!-- 50 -->
            <g
               transform="translate(191.940358 235.196562)scale(0.22 -0.22)"
               id="g67">
              <defs
                 id="defs61">
                <path
                   d="M 10.796875 72.90625  L 49.515625 72.90625  L 49.515625 64.59375  L 19.828125 64.59375  L 19.828125 46.734375  Q 21.96875 47.46875 24.109375 47.828125  Q 26.265625 48.1875 28.421875 48.1875  Q 40.625 48.1875 47.75 41.5  Q 54.890625 34.8125 54.890625 23.390625  Q 54.890625 11.625 47.5625 5.09375  Q 40.234375 -1.421875 26.90625 -1.421875  Q 22.3125 -1.421875 17.546875 -0.640625  Q 12.796875 0.140625 7.71875 1.703125  L 7.71875 11.625  Q 12.109375 9.234375 16.796875 8.0625  Q 21.484375 6.890625 26.703125 6.890625  Q 35.15625 6.890625 40.078125 11.328125  Q 45.015625 15.765625 45.015625 23.390625  Q 45.015625 31 40.078125 35.4375  Q 35.15625 39.890625 26.703125 39.890625  Q 22.75 39.890625 18.8125 39.015625  Q 14.890625 38.140625 10.796875 36.28125  z "
                   id="DejaVuSans-53" />
              </defs>
              <use
                 xlink:href="#DejaVuSans-53"
                 id="use63" />
              <use
                 x="63.623047"
                 xlink:href="#DejaVuSans-48"
                 id="use65" />
            </g>
          </g>
        </g>
        <g
           id="xtick_3">
          <g
             id="line2d_5">
            <path
               clip-path="url(#pd57c8d99ba)"
               d="M 296.805293 211.48  L 296.805293 46.015559  "
               style="fill:none;stroke:#999999;stroke-dasharray:1,1.65;stroke-dashoffset:0;"
               id="path71" />
          </g>
          <g
             id="line2d_6">
            <g
               id="g76">
              <use
                 style="stroke:#000000;stroke-width:0.8;"
                 x="296.805293"
                 xlink:href="#m0c63e950c4"
                 y="211.48"
                 id="use74" />
            </g>
          </g>
          <g
             id="text_3">
            <!-- 100 -->
            <g
               transform="translate(275.809043 235.196562)scale(0.22 -0.22)"
               id="g88">
              <defs
                 id="defs80">
                <path
                   d="M 12.40625 8.296875  L 28.515625 8.296875  L 28.515625 63.921875  L 10.984375 60.40625  L 10.984375 69.390625  L 28.421875 72.90625  L 38.28125 72.90625  L 38.28125 8.296875  L 54.390625 8.296875  L 54.390625 0  L 12.40625 0  z "
                   id="DejaVuSans-49" />
              </defs>
              <use
                 xlink:href="#DejaVuSans-49"
                 id="use82" />
              <use
                 x="63.623047"
                 xlink:href="#DejaVuSans-48"
                 id="use84" />
              <use
                 x="127.246094"
                 xlink:href="#DejaVuSans-48"
                 id="use86" />
            </g>
          </g>
        </g>
        <g
           id="xtick_4">
          <g
             id="line2d_7">
            <path
               clip-path="url(#pd57c8d99ba)"
               d="M 387.672729 211.48  L 387.672729 46.015559  "
               style="fill:none;stroke:#999999;stroke-dasharray:1,1.65;stroke-dashoffset:0;"
               id="path92" />
          </g>
          <g
             id="line2d_8">
            <g
               id="g97">
              <use
                 style="stroke:#000000;stroke-width:0.8;"
                 x="387.672729"
                 xlink:href="#m0c63e950c4"
                 y="211.48"
                 id="use95" />
            </g>
          </g>
          <g
             id="text_4">
            <!-- 150 -->
            <g
               transform="translate(366.676479 235.196562)scale(0.22 -0.22)"
               id="g106">
              <use
                 xlink:href="#DejaVuSans-49"
                 id="use100" />
              <use
                 x="63.623047"
                 xlink:href="#DejaVuSans-53"
                 id="use102" />
              <use
                 x="127.246094"
                 xlink:href="#DejaVuSans-48"
                 id="use104" />
            </g>
          </g>
        </g>
        <g
           id="text_5">
          <!-- Number of threads -->
          <g
             transform="translate(143.263204 260.488437)scale(0.22 -0.22)"
             id="g160">
            <defs
               id="defs124">
              <path
                 d="M 9.8125 72.90625  L 23.09375 72.90625  L 55.421875 11.921875  L 55.421875 72.90625  L 64.984375 72.90625  L 64.984375 0  L 51.703125 0  L 19.390625 60.984375  L 19.390625 0  L 9.8125 0  z "
                 id="DejaVuSans-78" />
              <path
                 d="M 8.5 21.578125  L 8.5 54.6875  L 17.484375 54.6875  L 17.484375 21.921875  Q 17.484375 14.15625 20.5 10.265625  Q 23.53125 6.390625 29.59375 6.390625  Q 36.859375 6.390625 41.078125 11.03125  Q 45.3125 15.671875 45.3125 23.6875  L 45.3125 54.6875  L 54.296875 54.6875  L 54.296875 0  L 45.3125 0  L 45.3125 8.40625  Q 42.046875 3.421875 37.71875 1  Q 33.40625 -1.421875 27.6875 -1.421875  Q 18.265625 -1.421875 13.375 4.4375  Q 8.5 10.296875 8.5 21.578125  z M 31.109375 56  z "
                 id="DejaVuSans-117" />
              <path
                 d="M 52 44.1875  Q 55.375 50.25 60.0625 53.125  Q 64.75 56 71.09375 56  Q 79.640625 56 84.28125 50.015625  Q 88.921875 44.046875 88.921875 33.015625  L 88.921875 0  L 79.890625 0  L 79.890625 32.71875  Q 79.890625 40.578125 77.09375 44.375  Q 74.3125 48.1875 68.609375 48.1875  Q 61.625 48.1875 57.5625 43.546875  Q 53.515625 38.921875 53.515625 30.90625  L 53.515625 0  L 44.484375 0  L 44.484375 32.71875  Q 44.484375 40.625 41.703125 44.40625  Q 38.921875 48.1875 33.109375 48.1875  Q 26.21875 48.1875 22.15625 43.53125  Q 18.109375 38.875 18.109375 30.90625  L 18.109375 0  L 9.078125 0  L 9.078125 54.6875  L 18.109375 54.6875  L 18.109375 46.1875  Q 21.1875 51.21875 25.484375 53.609375  Q 29.78125 56 35.6875 56  Q 41.65625 56 45.828125 52.96875  Q 50 49.953125 52 44.1875  z "
                 id="DejaVuSans-109" />
              <path
                 d="M 48.6875 27.296875  Q 48.6875 37.203125 44.609375 42.84375  Q 40.53125 48.484375 33.40625 48.484375  Q 26.265625 48.484375 22.1875 42.84375  Q 18.109375 37.203125 18.109375 27.296875  Q 18.109375 17.390625 22.1875 11.75  Q 26.265625 6.109375 33.40625 6.109375  Q 40.53125 6.109375 44.609375 11.75  Q 48.6875 17.390625 48.6875 27.296875  z M 18.109375 46.390625  Q 20.953125 51.265625 25.265625 53.625  Q 29.59375 56 35.59375 56  Q 45.5625 56 51.78125 48.09375  Q 58.015625 40.1875 58.015625 27.296875  Q 58.015625 14.40625 51.78125 6.484375  Q 45.5625 -1.421875 35.59375 -1.421875  Q 29.59375 -1.421875 25.265625 0.953125  Q 20.953125 3.328125 18.109375 8.203125  L 18.109375 0  L 9.078125 0  L 9.078125 75.984375  L 18.109375 75.984375  z "
                 id="DejaVuSans-98" />
              <path
                 d="M 56.203125 29.59375  L 56.203125 25.203125  L 14.890625 25.203125  Q 15.484375 15.921875 20.484375 11.0625  Q 25.484375 6.203125 34.421875 6.203125  Q 39.59375 6.203125 44.453125 7.46875  Q 49.3125 8.734375 54.109375 11.28125  L 54.109375 2.78125  Q 49.265625 0.734375 44.1875 -0.34375  Q 39.109375 -1.421875 33.890625 -1.421875  Q 20.796875 -1.421875 13.15625 6.1875  Q 5.515625 13.8125 5.515625 26.8125  Q 5.515625 40.234375 12.765625 48.109375  Q 20.015625 56 32.328125 56  Q 43.359375 56 49.78125 48.890625  Q 56.203125 41.796875 56.203125 29.59375  z M 47.21875 32.234375  Q 47.125 39.59375 43.09375 43.984375  Q 39.0625 48.390625 32.421875 48.390625  Q 24.90625 48.390625 20.390625 44.140625  Q 15.875 39.890625 15.1875 32.171875  z "
                 id="DejaVuSans-101" />
              <path
                 d="M 41.109375 46.296875  Q 39.59375 47.171875 37.8125 47.578125  Q 36.03125 48 33.890625 48  Q 26.265625 48 22.1875 43.046875  Q 18.109375 38.09375 18.109375 28.8125  L 18.109375 0  L 9.078125 0  L 9.078125 54.6875  L 18.109375 54.6875  L 18.109375 46.1875  Q 20.953125 51.171875 25.484375 53.578125  Q 30.03125 56 36.53125 56  Q 37.453125 56 38.578125 55.875  Q 39.703125 55.765625 41.0625 55.515625  z "
                 id="DejaVuSans-114" />
              <path
                 id="DejaVuSans-32" />
              <path
                 d="M 30.609375 48.390625  Q 23.390625 48.390625 19.1875 42.75  Q 14.984375 37.109375 14.984375 27.296875  Q 14.984375 17.484375 19.15625 11.84375  Q 23.34375 6.203125 30.609375 6.203125  Q 37.796875 6.203125 41.984375 11.859375  Q 46.1875 17.53125 46.1875 27.296875  Q 46.1875 37.015625 41.984375 42.703125  Q 37.796875 48.390625 30.609375 48.390625  z M 30.609375 56  Q 42.328125 56 49.015625 48.375  Q 55.71875 40.765625 55.71875 27.296875  Q 55.71875 13.875 49.015625 6.21875  Q 42.328125 -1.421875 30.609375 -1.421875  Q 18.84375 -1.421875 12.171875 6.21875  Q 5.515625 13.875 5.515625 27.296875  Q 5.515625 40.765625 12.171875 48.375  Q 18.84375 56 30.609375 56  z "
                 id="DejaVuSans-111" />
              <path
                 d="M 37.109375 75.984375  L 37.109375 68.5  L 28.515625 68.5  Q 23.6875 68.5 21.796875 66.546875  Q 19.921875 64.59375 19.921875 59.515625  L 19.921875 54.6875  L 34.71875 54.6875  L 34.71875 47.703125  L 19.921875 47.703125  L 19.921875 0  L 10.890625 0  L 10.890625 47.703125  L 2.296875 47.703125  L 2.296875 54.6875  L 10.890625 54.6875  L 10.890625 58.5  Q 10.890625 67.625 15.140625 71.796875  Q 19.390625 75.984375 28.609375 75.984375  z "
                 id="DejaVuSans-102" />
              <path
                 d="M 18.3125 70.21875  L 18.3125 54.6875  L 36.8125 54.6875  L 36.8125 47.703125  L 18.3125 47.703125  L 18.3125 18.015625  Q 18.3125 11.328125 20.140625 9.421875  Q 21.96875 7.515625 27.59375 7.515625  L 36.8125 7.515625  L 36.8125 0  L 27.59375 0  Q 17.1875 0 13.234375 3.875  Q 9.28125 7.765625 9.28125 18.015625  L 9.28125 47.703125  L 2.6875 47.703125  L 2.6875 54.6875  L 9.28125 54.6875  L 9.28125 70.21875  z "
                 id="DejaVuSans-116" />
              <path
                 d="M 54.890625 33.015625  L 54.890625 0  L 45.90625 0  L 45.90625 32.71875  Q 45.90625 40.484375 42.875 44.328125  Q 39.84375 48.1875 33.796875 48.1875  Q 26.515625 48.1875 22.3125 43.546875  Q 18.109375 38.921875 18.109375 30.90625  L 18.109375 0  L 9.078125 0  L 9.078125 75.984375  L 18.109375 75.984375  L 18.109375 46.1875  Q 21.34375 51.125 25.703125 53.5625  Q 30.078125 56 35.796875 56  Q 45.21875 56 50.046875 50.171875  Q 54.890625 44.34375 54.890625 33.015625  z "
                 id="DejaVuSans-104" />
              <path
                 d="M 34.28125 27.484375  Q 23.390625 27.484375 19.1875 25  Q 14.984375 22.515625 14.984375 16.5  Q 14.984375 11.71875 18.140625 8.90625  Q 21.296875 6.109375 26.703125 6.109375  Q 34.1875 6.109375 38.703125 11.40625  Q 43.21875 16.703125 43.21875 25.484375  L 43.21875 27.484375  z M 52.203125 31.203125  L 52.203125 0  L 43.21875 0  L 43.21875 8.296875  Q 40.140625 3.328125 35.546875 0.953125  Q 30.953125 -1.421875 24.3125 -1.421875  Q 15.921875 -1.421875 10.953125 3.296875  Q 6 8.015625 6 15.921875  Q 6 25.140625 12.171875 29.828125  Q 18.359375 34.515625 30.609375 34.515625  L 43.21875 34.515625  L 43.21875 35.40625  Q 43.21875 41.609375 39.140625 45  Q 35.0625 48.390625 27.6875 48.390625  Q 23 48.390625 18.546875 47.265625  Q 14.109375 46.140625 10.015625 43.890625  L 10.015625 52.203125  Q 14.9375 54.109375 19.578125 55.046875  Q 24.21875 56 28.609375 56  Q 40.484375 56 46.34375 49.84375  Q 52.203125 43.703125 52.203125 31.203125  z "
                 id="DejaVuSans-97" />
              <path
                 d="M 45.40625 46.390625  L 45.40625 75.984375  L 54.390625 75.984375  L 54.390625 0  L 45.40625 0  L 45.40625 8.203125  Q 42.578125 3.328125 38.25 0.953125  Q 33.9375 -1.421875 27.875 -1.421875  Q 17.96875 -1.421875 11.734375 6.484375  Q 5.515625 14.40625 5.515625 27.296875  Q 5.515625 40.1875 11.734375 48.09375  Q 17.96875 56 27.875 56  Q 33.9375 56 38.25 53.625  Q 42.578125 51.265625 45.40625 46.390625  z M 14.796875 27.296875  Q 14.796875 17.390625 18.875 11.75  Q 22.953125 6.109375 30.078125 6.109375  Q 37.203125 6.109375 41.296875 11.75  Q 45.40625 17.390625 45.40625 27.296875  Q 45.40625 37.203125 41.296875 42.84375  Q 37.203125 48.484375 30.078125 48.484375  Q 22.953125 48.484375 18.875 42.84375  Q 14.796875 37.203125 14.796875 27.296875  z "
                 id="DejaVuSans-100" />
              <path
                 d="M 44.28125 53.078125  L 44.28125 44.578125  Q 40.484375 46.53125 36.375 47.5  Q 32.28125 48.484375 27.875 48.484375  Q 21.1875 48.484375 17.84375 46.4375  Q 14.5 44.390625 14.5 40.28125  Q 14.5 37.15625 16.890625 35.375  Q 19.28125 33.59375 26.515625 31.984375  L 29.59375 31.296875  Q 39.15625 29.25 43.1875 25.515625  Q 47.21875 21.78125 47.21875 15.09375  Q 47.21875 7.46875 41.1875 3.015625  Q 35.15625 -1.421875 24.609375 -1.421875  Q 20.21875 -1.421875 15.453125 -0.5625  Q 10.6875 0.296875 5.421875 2  L 5.421875 11.28125  Q 10.40625 8.6875 15.234375 7.390625  Q 20.0625 6.109375 24.8125 6.109375  Q 31.15625 6.109375 34.5625 8.28125  Q 37.984375 10.453125 37.984375 14.40625  Q 37.984375 18.0625 35.515625 20.015625  Q 33.0625 21.96875 24.703125 23.78125  L 21.578125 24.515625  Q 13.234375 26.265625 9.515625 29.90625  Q 5.8125 33.546875 5.8125 39.890625  Q 5.8125 47.609375 11.28125 51.796875  Q 16.75 56 26.8125 56  Q 31.78125 56 36.171875 55.265625  Q 40.578125 54.546875 44.28125 53.078125  z "
                 id="DejaVuSans-115" />
            </defs>
            <use
               xlink:href="#DejaVuSans-78"
               id="use126" />
            <use
               x="74.804688"
               xlink:href="#DejaVuSans-117"
               id="use128" />
            <use
               x="138.183594"
               xlink:href="#DejaVuSans-109"
               id="use130" />
            <use
               x="235.595703"
               xlink:href="#DejaVuSans-98"
               id="use132" />
            <use
               x="299.072266"
               xlink:href="#DejaVuSans-101"
               id="use134" />
            <use
               x="360.595703"
               xlink:href="#DejaVuSans-114"
               id="use136" />
            <use
               x="401.708984"
               xlink:href="#DejaVuSans-32"
               id="use138" />
            <use
               x="433.496094"
               xlink:href="#DejaVuSans-111"
               id="use140" />
            <use
               x="494.677734"
               xlink:href="#DejaVuSans-102"
               id="use142" />
            <use
               x="529.882812"
               xlink:href="#DejaVuSans-32"
               id="use144" />
            <use
               x="561.669922"
               xlink:href="#DejaVuSans-116"
               id="use146" />
            <use
               x="600.878906"
               xlink:href="#DejaVuSans-104"
               id="use148" />
            <use
               x="664.257812"
               xlink:href="#DejaVuSans-114"
               id="use150" />
            <use
               x="703.121094"
               xlink:href="#DejaVuSans-101"
               id="use152" />
            <use
               x="764.644531"
               xlink:href="#DejaVuSans-97"
               id="use154" />
            <use
               x="825.923828"
               xlink:href="#DejaVuSans-100"
               id="use156" />
            <use
               x="889.400391"
               xlink:href="#DejaVuSans-115"
               id="use158" />
          </g>
        </g>
      </g>
      <g
         id="matplotlib.axis_2">
        <g
           id="ytick_1">
          <g
             id="line2d_9">
            <path
               clip-path="url(#pd57c8d99ba)"
               d="M 103.893729 205.980173  L 389.76268 205.980173  "
               style="fill:none;stroke:#999999;stroke-dasharray:1,1.65;stroke-dashoffset:0;"
               id="path164" />
          </g>
          <g
             id="line2d_10">
            <defs
               id="defs168">
              <path
                 d="M 0 0  L -3.5 0  "
                 id="m5ca0cea473"
                 style="stroke:#000000;stroke-width:0.8;" />
            </defs>
            <g
               id="g172">
              <use
                 style="stroke:#000000;stroke-width:0.8;"
                 x="103.893729"
                 xlink:href="#m5ca0cea473"
                 y="205.980173"
                 id="use170" />
            </g>
          </g>
          <g
             id="text_6">
            <!-- 0 -->
            <g
               transform="translate(82.896229 214.338455)scale(0.22 -0.22)"
               id="g177">
              <use
                 xlink:href="#DejaVuSans-48"
                 id="use175" />
            </g>
          </g>
        </g>
        <g
           id="ytick_2">
          <g
             id="line2d_11">
            <path
               clip-path="url(#pd57c8d99ba)"
               d="M 103.893729 104.915959  L 389.76268 104.915959  "
               style="fill:none;stroke:#999999;stroke-dasharray:1,1.65;stroke-dashoffset:0;"
               id="path181" />
          </g>
          <g
             id="line2d_12">
            <g
               id="g186">
              <use
                 style="stroke:#000000;stroke-width:0.8;"
                 x="103.893729"
                 xlink:href="#m5ca0cea473"
                 y="104.915959"
                 id="use184" />
            </g>
          </g>
          <g
             id="text_7">
            <!-- 50 -->
            <g
               transform="translate(68.898729 113.27424)scale(0.22 -0.22)"
               id="g193">
              <use
                 xlink:href="#DejaVuSans-53"
                 id="use189" />
              <use
                 x="63.623047"
                 xlink:href="#DejaVuSans-48"
                 id="use191" />
            </g>
          </g>
        </g>
        <g
           id="text_8">
          <!-- Speedup -->
          <g
             transform="translate(60.323416 177.18903)rotate(-90)scale(0.22 -0.22)"
             id="g215">
            <defs
               id="defs199">
              <path
                 d="M 53.515625 70.515625  L 53.515625 60.890625  Q 47.90625 63.578125 42.921875 64.890625  Q 37.9375 66.21875 33.296875 66.21875  Q 25.25 66.21875 20.875 63.09375  Q 16.5 59.96875 16.5 54.203125  Q 16.5 49.359375 19.40625 46.890625  Q 22.3125 44.4375 30.421875 42.921875  L 36.375 41.703125  Q 47.40625 39.59375 52.65625 34.296875  Q 57.90625 29 57.90625 20.125  Q 57.90625 9.515625 50.796875 4.046875  Q 43.703125 -1.421875 29.984375 -1.421875  Q 24.8125 -1.421875 18.96875 -0.25  Q 13.140625 0.921875 6.890625 3.21875  L 6.890625 13.375  Q 12.890625 10.015625 18.65625 8.296875  Q 24.421875 6.59375 29.984375 6.59375  Q 38.421875 6.59375 43.015625 9.90625  Q 47.609375 13.234375 47.609375 19.390625  Q 47.609375 24.75 44.3125 27.78125  Q 41.015625 30.8125 33.5 32.328125  L 27.484375 33.5  Q 16.453125 35.6875 11.515625 40.375  Q 6.59375 45.0625 6.59375 53.421875  Q 6.59375 63.09375 13.40625 68.65625  Q 20.21875 74.21875 32.171875 74.21875  Q 37.3125 74.21875 42.625 73.28125  Q 47.953125 72.359375 53.515625 70.515625  z "
                 id="DejaVuSans-83" />
              <path
                 d="M 18.109375 8.203125  L 18.109375 -20.796875  L 9.078125 -20.796875  L 9.078125 54.6875  L 18.109375 54.6875  L 18.109375 46.390625  Q 20.953125 51.265625 25.265625 53.625  Q 29.59375 56 35.59375 56  Q 45.5625 56 51.78125 48.09375  Q 58.015625 40.1875 58.015625 27.296875  Q 58.015625 14.40625 51.78125 6.484375  Q 45.5625 -1.421875 35.59375 -1.421875  Q 29.59375 -1.421875 25.265625 0.953125  Q 20.953125 3.328125 18.109375 8.203125  z M 48.6875 27.296875  Q 48.6875 37.203125 44.609375 42.84375  Q 40.53125 48.484375 33.40625 48.484375  Q 26.265625 48.484375 22.1875 42.84375  Q 18.109375 37.203125 18.109375 27.296875  Q 18.109375 17.390625 22.1875 11.75  Q 26.265625 6.109375 33.40625 6.109375  Q 40.53125 6.109375 44.609375 11.75  Q 48.6875 17.390625 48.6875 27.296875  z "
                 id="DejaVuSans-112" />
            </defs>
            <use
               xlink:href="#DejaVuSans-83"
               id="use201" />
            <use
               x="63.476562"
               xlink:href="#DejaVuSans-112"
               id="use203" />
            <use
               x="126.953125"
               xlink:href="#DejaVuSans-101"
               id="use205" />
            <use
               x="188.476562"
               xlink:href="#DejaVuSans-101"
               id="use207" />
            <use
               x="250"
               xlink:href="#DejaVuSans-100"
               id="use209" />
            <use
               x="313.476562"
               xlink:href="#DejaVuSans-117"
               id="use211" />
            <use
               x="376.855469"
               xlink:href="#DejaVuSans-112"
               id="use213" />
          </g>
        </g>
      </g>
      <g
         id="line2d_13">
        <path
           clip-path="url(#pd57c8d99ba)"
           d="M 116.887772 203.958889  L 118.70512 201.937605  L 120.522469 199.91632  L 122.339818 197.895036  L 124.157167 195.873752  L 125.974515 193.852468  L 127.791864 191.831183  L 129.609213 189.809899  L 131.426561 187.788615  L 133.24391 185.76733  L 135.061259 183.746046  L 136.878608 181.724762  L 138.695956 179.703478  L 140.513305 177.682193  L 142.330654 175.660909  L 144.148002 173.639625  L 145.965351 171.61834  L 147.7827 169.597056  L 149.600048 167.575772  L 151.417397 165.554488  L 153.234746 163.533203  L 155.052095 161.511919  L 156.869443 159.490635  L 158.686792 157.46935  L 160.504141 155.448066  L 162.321489 153.426782  L 164.138838 151.405498  L 165.956187 149.384213  L 167.773535 147.362929  L 169.590884 145.341645  L 171.408233 143.32036  L 173.225582 141.299076  L 175.04293 139.277792  L 176.860279 137.256508  L 178.677628 135.235223  L 180.494976 133.213939  L 182.312325 131.192655  L 184.129674 129.17137  L 185.947023 127.150086  L 187.764371 125.128802  L 189.58172 123.107518  L 191.399069 121.086233  L 193.216417 119.064949  L 195.033766 117.043665  L 196.851115 115.022381  L 198.668463 113.001096  L 200.485812 110.979812  L 202.303161 108.958528  L 204.12051 106.937243  L 205.937858 104.915959  L 207.755207 102.894675  L 209.572556 100.873391  L 211.389904 98.852106  L 213.207253 96.830822  L 215.024602 94.809538  L 216.84195 92.788253  L 218.659299 90.766969  L 220.476648 88.745685  L 222.293997 86.724401  L 224.111345 84.703116  L 225.928694 82.681832  L 227.746043 80.660548  L 229.563391 78.639263  L 231.38074 76.617979  L 233.198089 74.596695  L 235.015437 72.575411  L 236.832786 70.554126  L 238.650135 68.532842  L 240.467484 66.511558  L 242.284832 64.490273  L 244.102181 62.468989  L 245.91953 60.447705  "
           style="fill:none;stroke:#706e6e;stroke-dasharray:11.1,4.8;stroke-dashoffset:0;stroke-width:3;"
           id="path219" />
      </g>
      <g
         id="line2d_14">
        <path
           clip-path="url(#pd57c8d99ba)"
           d="M 116.887772 203.958889  L 147.7827 201.529957  L 180.494976 201.54449  L 213.207253 202.039913  L 245.91953 201.869063  L 278.631806 201.680824  L 311.344083 202.114143  L 344.05636 202.049529  L 376.768636 202.042819  "
           style="fill:none;stroke:#179e86;stroke-dasharray:6,12;stroke-dashoffset:0;stroke-width:3;"
           id="path222" />
      </g>
      <g
         id="line2d_15">
        <path
           clip-path="url(#pd57c8d99ba)"
           d="M 116.887772 203.958889  L 147.7827 176.553968  L 180.494976 166.358204  L 213.207253 156.385659  L 245.91953 151.940254  L 278.631806 149.295355  L 311.344083 148.556785  L 344.05636 153.116815  L 376.768636 153.436256  "
           style="fill:none;stroke:#e44c38;stroke-dasharray:11.1,4.8;stroke-dashoffset:0;stroke-width:3;"
           id="path225" />
      </g>
      <g
         id="line2d_16">
        <path
           clip-path="url(#pd57c8d99ba)"
           d="M 116.887772 203.958889  L 147.7827 174.638082  L 180.494976 144.911725  L 213.207253 119.39478  L 245.91953 90.773382  L 278.631806 80.671356  L 311.344083 76.218468  L 344.05636 64.108615  L 376.768636 57.541849  "
           style="fill:none;stroke:#3f5486;stroke-linecap:square;stroke-width:3;"
           id="path228" />
      </g>
      <g
         id="line2d_17">
        <path
           clip-path="url(#pd57c8d99ba)"
           d="M 116.887772 203.958889  L 147.7827 176.466148  L 180.494976 148.187542  L 213.207253 122.104323  L 245.91953 98.402894  L 278.631806 91.154443  L 311.344083 86.414057  L 344.05636 77.263398  L 376.768636 76.398408  "
           style="fill:none;stroke:#52b9d4;stroke-dasharray:19.2,4.8,3,4.8;stroke-dashoffset:0;stroke-width:3;"
           id="path231" />
      </g>
      <g
         id="line2d_18" />
      <g
         id="line2d_19">
        <path
           d="M 147.7827 211.48  L 147.7827 39.616975  "
           style="fill:none;stroke:#808080;stroke-dasharray:2,3.3;stroke-dashoffset:0;stroke-width:2;"
           id="path237" />
      </g>
      <g
         id="patch_4">
        <path
           d="M 103.893729 211.48  L 103.893729 46.015559  "
           style="fill:none;stroke:#000000;stroke-linecap:square;stroke-linejoin:miter;stroke-width:0.8;"
           id="path240" />
      </g>
      <g
         id="patch_5">
        <path
           d="M 389.76268 211.48  L 389.76268 46.015559  "
           style="fill:none;stroke:#000000;stroke-linecap:square;stroke-linejoin:miter;stroke-width:0.8;"
           id="path243" />
      </g>
      <g
         id="patch_6">
        <path
           d="M 103.893729 211.48  L 389.76268 211.48  "
           style="fill:none;stroke:#000000;stroke-linecap:square;stroke-linejoin:miter;stroke-width:0.8;"
           id="path246" />
      </g>
      <g
         id="patch_7">
        <path
           d="M 103.893729 46.015559  L 389.76268 46.015559  "
           style="fill:none;stroke:#000000;stroke-linecap:square;stroke-linejoin:miter;stroke-width:0.8;"
           id="path249" />
      </g>
      <g
         id="text_9">
        <!-- First NUMA domain boundary -->
        <g
           transform="translate(16.429106 39.616975)scale(0.18 -0.18)"
           id="g313">
          <defs
             id="defs259">
            <path
               d="M 9.8125 72.90625  L 51.703125 72.90625  L 51.703125 64.59375  L 19.671875 64.59375  L 19.671875 43.109375  L 48.578125 43.109375  L 48.578125 34.8125  L 19.671875 34.8125  L 19.671875 0  L 9.8125 0  z "
               id="DejaVuSans-70" />
            <path
               d="M 9.421875 54.6875  L 18.40625 54.6875  L 18.40625 0  L 9.421875 0  z M 9.421875 75.984375  L 18.40625 75.984375  L 18.40625 64.59375  L 9.421875 64.59375  z "
               id="DejaVuSans-105" />
            <path
               d="M 8.6875 72.90625  L 18.609375 72.90625  L 18.609375 28.609375  Q 18.609375 16.890625 22.84375 11.734375  Q 27.09375 6.59375 36.625 6.59375  Q 46.09375 6.59375 50.34375 11.734375  Q 54.59375 16.890625 54.59375 28.609375  L 54.59375 72.90625  L 64.5 72.90625  L 64.5 27.390625  Q 64.5 13.140625 57.4375 5.859375  Q 50.390625 -1.421875 36.625 -1.421875  Q 22.796875 -1.421875 15.734375 5.859375  Q 8.6875 13.140625 8.6875 27.390625  z "
               id="DejaVuSans-85" />
            <path
               d="M 9.8125 72.90625  L 24.515625 72.90625  L 43.109375 23.296875  L 61.8125 72.90625  L 76.515625 72.90625  L 76.515625 0  L 66.890625 0  L 66.890625 64.015625  L 48.09375 14.015625  L 38.1875 14.015625  L 19.390625 64.015625  L 19.390625 0  L 9.8125 0  z "
               id="DejaVuSans-77" />
            <path
               d="M 34.1875 63.1875  L 20.796875 26.90625  L 47.609375 26.90625  z M 28.609375 72.90625  L 39.796875 72.90625  L 67.578125 0  L 57.328125 0  L 50.6875 18.703125  L 17.828125 18.703125  L 11.1875 0  L 0.78125 0  z "
               id="DejaVuSans-65" />
            <path
               d="M 54.890625 33.015625  L 54.890625 0  L 45.90625 0  L 45.90625 32.71875  Q 45.90625 40.484375 42.875 44.328125  Q 39.84375 48.1875 33.796875 48.1875  Q 26.515625 48.1875 22.3125 43.546875  Q 18.109375 38.921875 18.109375 30.90625  L 18.109375 0  L 9.078125 0  L 9.078125 54.6875  L 18.109375 54.6875  L 18.109375 46.1875  Q 21.34375 51.125 25.703125 53.5625  Q 30.078125 56 35.796875 56  Q 45.21875 56 50.046875 50.171875  Q 54.890625 44.34375 54.890625 33.015625  z "
               id="DejaVuSans-110" />
            <path
               d="M 32.171875 -5.078125  Q 28.375 -14.84375 24.75 -17.8125  Q 21.140625 -20.796875 15.09375 -20.796875  L 7.90625 -20.796875  L 7.90625 -13.28125  L 13.1875 -13.28125  Q 16.890625 -13.28125 18.9375 -11.515625  Q 21 -9.765625 23.484375 -3.21875  L 25.09375 0.875  L 2.984375 54.6875  L 12.5 54.6875  L 29.59375 11.921875  L 46.6875 54.6875  L 56.203125 54.6875  z "
               id="DejaVuSans-121" />
          </defs>
          <use
             xlink:href="#DejaVuSans-70"
             id="use261" />
          <use
             x="50.269531"
             xlink:href="#DejaVuSans-105"
             id="use263" />
          <use
             x="78.052734"
             xlink:href="#DejaVuSans-114"
             id="use265" />
          <use
             x="119.166016"
             xlink:href="#DejaVuSans-115"
             id="use267" />
          <use
             x="171.265625"
             xlink:href="#DejaVuSans-116"
             id="use269" />
          <use
             x="210.474609"
             xlink:href="#DejaVuSans-32"
             id="use271" />
          <use
             x="242.261719"
             xlink:href="#DejaVuSans-78"
             id="use273" />
          <use
             x="317.066406"
             xlink:href="#DejaVuSans-85"
             id="use275" />
          <use
             x="390.259766"
             xlink:href="#DejaVuSans-77"
             id="use277" />
          <use
             x="476.539062"
             xlink:href="#DejaVuSans-65"
             id="use279" />
          <use
             x="544.947266"
             xlink:href="#DejaVuSans-32"
             id="use281" />
          <use
             x="576.734375"
             xlink:href="#DejaVuSans-100"
             id="use283" />
          <use
             x="640.210938"
             xlink:href="#DejaVuSans-111"
             id="use285" />
          <use
             x="701.392578"
             xlink:href="#DejaVuSans-109"
             id="use287" />
          <use
             x="798.804688"
             xlink:href="#DejaVuSans-97"
             id="use289" />
          <use
             x="860.083984"
             xlink:href="#DejaVuSans-105"
             id="use291" />
          <use
             x="887.867188"
             xlink:href="#DejaVuSans-110"
             id="use293" />
          <use
             x="951.246094"
             xlink:href="#DejaVuSans-32"
             id="use295" />
          <use
             x="983.033203"
             xlink:href="#DejaVuSans-98"
             id="use297" />
          <use
             x="1046.509766"
             xlink:href="#DejaVuSans-111"
             id="use299" />
          <use
             x="1107.691406"
             xlink:href="#DejaVuSans-117"
             id="use301" />
          <use
             x="1171.070312"
             xlink:href="#DejaVuSans-110"
             id="use303" />
          <use
             x="1234.449219"
             xlink:href="#DejaVuSans-100"
             id="use305" />
          <use
             x="1297.925781"
             xlink:href="#DejaVuSans-97"
             id="use307" />
          <use
             x="1359.205078"
             xlink:href="#DejaVuSans-114"
             id="use309" />
          <use
             x="1400.318359"
             xlink:href="#DejaVuSans-121"
             id="use311" />
        </g>
      </g>
    </g>
  </g>
  <defs
     id="defs321">
    <clipPath
       id="pd57c8d99ba">
      <rect
         height="165.464441"
         width="285.868951"
         x="103.893729"
         y="46.015559"
         id="rect318" />
    </clipPath>
  </defs>
</svg>
