<?xml version="1.0" encoding="UTF-8" standalone="no"?>
<!-- Created with matplotlib (https://matplotlib.org/) -->

<svg
   xmlns:dc="http://purl.org/dc/elements/1.1/"
   xmlns:cc="http://creativecommons.org/ns#"
   xmlns:rdf="http://www.w3.org/1999/02/22-rdf-syntax-ns#"
   xmlns:svg="http://www.w3.org/2000/svg"
   xmlns="http://www.w3.org/2000/svg"
   xmlns:xlink="http://www.w3.org/1999/xlink"
   xmlns:sodipodi="http://sodipodi.sourceforge.net/DTD/sodipodi-0.dtd"
   xmlns:inkscape="http://www.inkscape.org/namespaces/inkscape"
   height="103.82703pt"
   version="1.1"
   viewBox="0 0 637.34375 103.82703"
   width="637.34375pt"
   id="svg632"
   sodipodi:docname="legend-0.svg"
   inkscape:version="0.92.5 (2060ec1f9f, 2020-04-08)">
  <sodipodi:namedview
     pagecolor="#ffffff"
     bordercolor="#666666"
     borderopacity="1"
     objecttolerance="10"
     gridtolerance="10"
     guidetolerance="10"
     inkscape:pageopacity="0"
     inkscape:pageshadow="2"
     inkscape:window-width="1920"
     inkscape:window-height="1163"
     id="namedview634"
     showgrid="true"
     fit-margin-top="20"
     fit-margin-left="20"
     fit-margin-right="20"
     fit-margin-bottom="20"
     inkscape:zoom="1.7571428"
     inkscape:cx="375.00674"
     inkscape:cy="-16.750985"
     inkscape:window-x="0"
     inkscape:window-y="0"
     inkscape:window-maximized="1"
     inkscape:current-layer="g1182">
    <inkscape:grid
       type="xygrid"
       id="grid1027"
       originx="13.099997"
       originy="-127.67998" />
  </sodipodi:namedview>
  <metadata
     id="metadata2">
    <rdf:RDF>
      <cc:Work>
        <dc:type
           rdf:resource="http://purl.org/dc/dcmitype/StillImage" />
        <dc:date>2022-12-07T17:26:10.697241</dc:date>
        <dc:format>image/svg+xml</dc:format>
        <dc:creator>
          <cc:Agent>
            <dc:title>Matplotlib v3.3.4, https://matplotlib.org/</dc:title>
          </cc:Agent>
        </dc:creator>
        <dc:title></dc:title>
      </cc:Work>
    </rdf:RDF>
  </metadata>
  <defs
     id="defs6"
     style="stroke-linecap:butt;stroke-linejoin:round">
    <style
       type="text/css"
       id="style4">*{stroke-linecap:butt;stroke-linejoin:round;}</style>
  </defs>
  <g
     id="figure_1"
     style="stroke-linecap:butt;stroke-linejoin:round"
     transform="translate(-373.12387,-6.4287794)">
    <g
       id="axes_1"
       style="stroke-linecap:butt;stroke-linejoin:round">
      <g
         id="legend_1"
         style="stroke-linecap:butt;stroke-linejoin:round">
        <g
           id="patch_6"
           style="stroke-width:1.00851989;stroke-linecap:butt;stroke-linejoin:round"
           transform="matrix(1.4575773,0,0,0.67452717,-176.9561,6.5289135)" />
        <g
           id="line2d_21"
           style="stroke-linecap:butt;stroke-linejoin:round" />
        <g
           id="line2d_23"
           style="stroke-linecap:butt;stroke-linejoin:round" />
        <g
           id="line2d_25"
           style="stroke-linecap:butt;stroke-linejoin:round" />
        <g
           id="g1182"
           style="stroke-linecap:butt;stroke-linejoin:round">
          <g
             style="stroke-linecap:butt;stroke-linejoin:round"
             transform="translate(0,-4.8060065e-6)"
             id="g1082">
            <g
               id="line2d_20"
               style="stroke-linecap:butt;stroke-linejoin:round">
              <path
                 d="m 393.12387,33.01728 h 32"
                 style="fill:none;stroke:#706e6e;stroke-width:3;stroke-linecap:butt;stroke-linejoin:round;stroke-dasharray:11.1, 4.8;stroke-dashoffset:0"
                 id="path299"
                 inkscape:connector-curvature="0" />
            </g>
            <g
               id="text_10"
               style="stroke-linecap:butt;stroke-linejoin:round">
              <!-- Ideal speedup -->
              <g
                 transform="matrix(0.16,0,0,-0.16,437.92387,38.61728)"
                 id="g333"
                 style="stroke-linecap:butt;stroke-linejoin:round">
                <defs
                   id="defs305">
                  <path
                     d="m 9.8125,72.90625 h 9.859375 V 0 H 9.8125 Z"
                     id="DejaVuSans-73"
                     inkscape:connector-curvature="0"
                     style="stroke-linecap:butt;stroke-linejoin:round" />
                  <path
                     d="M 9.421875,75.984375 H 18.40625 V 0 H 9.421875 Z"
                     id="DejaVuSans-108"
                     inkscape:connector-curvature="0"
                     style="stroke-linecap:butt;stroke-linejoin:round" />
                </defs>
                <use
                   xlink:href="#DejaVuSans-73"
                   id="use307"
                   style="stroke-linecap:butt;stroke-linejoin:round"
                   x="0"
                   y="0"
                   width="100%"
                   height="100%" />
                <path
                   id="use309"
                   d="m 74.898437,46.390625 v 29.59375 h 8.984375 V 0 h -8.984375 v 8.203125 q -2.828125,-4.875 -7.15625,-7.25 -4.3125,-2.375 -10.375,-2.375 -9.90625,0 -16.140625,7.90625 -6.21875,7.921875 -6.21875,20.8125 0,12.890625 6.21875,20.796875 Q 47.460937,56 57.367187,56 q 6.0625,0 10.375,-2.375 4.328125,-2.359375 7.15625,-7.234375 z M 44.289062,27.296875 q 0,-9.90625 4.078125,-15.546875 4.078125,-5.640625 11.203125,-5.640625 7.125,0 11.21875,5.640625 4.109375,5.640625 4.109375,15.546875 0,9.90625 -4.109375,15.546875 -4.09375,5.640625 -11.21875,5.640625 -7.125,0 -11.203125,-5.640625 -4.078125,-5.640625 -4.078125,-15.546875 z"
                   inkscape:connector-curvature="0"
                   style="stroke-linecap:butt;stroke-linejoin:round" />
                <path
                   id="use311"
                   d="m 149.17187,29.59375 v -4.390625 h -41.31249 q 0.59375,-9.28125 5.59375,-14.140625 5,-4.859375 13.9375,-4.859375 5.17187,0 10.03124,1.265625 4.85938,1.265625 9.65625,3.8125 v -8.5 q -4.84375,-2.046875 -9.92187,-3.125 -5.07813,-1.078125 -10.29687,-1.078125 -13.09375,0 -20.73438,7.609375 -7.640625,7.625 -7.640625,20.625 0,13.421875 7.250005,21.296875 Q 112.98438,56 125.29688,56 q 11.03124,0 17.45312,-7.109375 6.42187,-7.09375 6.42187,-19.296875 z m -8.98437,2.640625 q -0.0937,7.359375 -4.125,11.75 -4.03125,4.40625 -10.67187,4.40625 -7.51563,0 -12.03125,-4.25 -4.51563,-4.25 -5.20313,-11.96875 z"
                   inkscape:connector-curvature="0"
                   style="stroke-linecap:butt;stroke-linejoin:round" />
                <path
                   id="use313"
                   d="m 188.77344,27.484375 q -10.89063,0 -15.09375,-2.484375 -4.20313,-2.484375 -4.20313,-8.5 0,-4.78125 3.15625,-7.59375 3.15625,-2.796875 8.5625,-2.796875 7.48438,0 12,5.296875 4.51563,5.296875 4.51563,14.078125 v 2 z m 17.92187,3.71875 V 0 h -8.98437 v 8.296875 q -3.07813,-4.96875 -7.67188,-7.34375 -4.59375,-2.375 -11.23437,-2.375 -8.39063,0 -13.35938,4.71875 -4.95312,4.71875 -4.95312,12.625 0,9.21875 6.17187,13.90625 6.1875,4.6875 18.4375,4.6875 h 12.60938 v 0.890625 q 0,6.203125 -4.07813,9.59375 -4.07812,3.390625 -11.45312,3.390625 -4.6875,0 -9.14063,-1.125 -4.4375,-1.125 -8.53125,-3.375 v 8.3125 q 4.92188,1.90625 9.5625,2.84375 Q 178.71094,56 183.10156,56 q 11.875,0 17.73438,-6.15625 5.85937,-6.140625 5.85937,-18.640625 z"
                   inkscape:connector-curvature="0"
                   style="stroke-linecap:butt;stroke-linejoin:round" />
                <use
                   x="215.77148"
                   xlink:href="#DejaVuSans-108"
                   id="use315"
                   style="stroke-linecap:butt;stroke-linejoin:round"
                   y="0"
                   width="100%"
                   height="100%" />
                <path
                   id="use317"
                   d=""
                   inkscape:connector-curvature="0"
                   style="stroke-linecap:butt;stroke-linejoin:round" />
                <path
                   id="use319"
                   d="m 319.62305,53.078125 v -8.5 Q 315.82617,46.53125 311.7168,47.5 q -4.09375,0.984375 -8.5,0.984375 -6.6875,0 -10.03125,-2.046875 -3.34375,-2.046875 -3.34375,-6.15625 0,-3.125 2.39062,-4.90625 2.39063,-1.78125 9.625,-3.390625 l 3.07813,-0.6875 q 9.5625,-2.046875 13.59375,-5.78125 4.03125,-3.734375 4.03125,-10.421875 0,-7.625 -6.03125,-12.078125 -6.03125,-4.4375 -16.57813,-4.4375 -4.39062,0 -9.15625,0.859375 Q 286.0293,0.296875 280.76367,2 v 9.28125 q 4.98438,-2.59375 9.8125,-3.890625 4.82813,-1.28125 9.57813,-1.28125 6.34375,0 9.75,2.171875 3.42187,2.171875 3.42187,6.125 0,3.65625 -2.46875,5.609375 -2.45312,1.953125 -10.8125,3.765625 l -3.125,0.734375 q -8.34375,1.75 -12.0625,5.390625 -3.70312,3.640625 -3.70312,9.984375 0,7.71875 5.46875,11.90625 Q 292.0918,56 302.1543,56 q 4.96875,0 9.35937,-0.734375 4.40625,-0.71875 8.10938,-2.1875 z"
                   inkscape:connector-curvature="0"
                   style="stroke-linecap:butt;stroke-linejoin:round" />
                <path
                   id="use321"
                   d="m 345.55078,8.203125 v -29 h -9.03125 V 54.6875 h 9.03125 v -8.296875 q 2.84375,4.875 7.15625,7.234375 4.32813,2.375 10.32813,2.375 9.96875,0 16.1875,-7.90625 6.23437,-7.90625 6.23437,-20.796875 0,-12.890625 -6.23437,-20.8125 -6.21875,-7.90625 -16.1875,-7.90625 -6,0 -10.32813,2.375 -4.3125,2.375 -7.15625,7.25 z m 30.57813,19.09375 q 0,9.90625 -4.07813,15.546875 -4.07812,5.640625 -11.20312,5.640625 -7.14063,0 -11.21875,-5.640625 -4.07813,-5.640625 -4.07813,-15.546875 0,-9.90625 4.07813,-15.546875 4.07812,-5.640625 11.21875,-5.640625 7.125,0 11.20312,5.640625 4.07813,5.640625 4.07813,15.546875 z"
                   inkscape:connector-curvature="0"
                   style="stroke-linecap:butt;stroke-linejoin:round" />
                <path
                   id="use323"
                   d="m 447.12109,29.59375 v -4.390625 h -41.3125 q 0.59375,-9.28125 5.59375,-14.140625 5,-4.859375 13.9375,-4.859375 5.17188,0 10.03125,1.265625 4.85938,1.265625 9.65625,3.8125 v -8.5 q -4.84375,-2.046875 -9.92187,-3.125 -5.07813,-1.078125 -10.29688,-1.078125 -13.09375,0 -20.73437,7.609375 -7.64063,7.625 -7.64063,20.625 0,13.421875 7.25,21.296875 Q 410.93359,56 423.24609,56 q 11.03125,0 17.45313,-7.109375 6.42187,-7.09375 6.42187,-19.296875 z m -8.98437,2.640625 q -0.0937,7.359375 -4.125,11.75 -4.03125,4.40625 -10.67188,4.40625 -7.51562,0 -12.03125,-4.25 -4.51562,-4.25 -5.20312,-11.96875 z"
                   inkscape:connector-curvature="0"
                   style="stroke-linecap:butt;stroke-linejoin:round" />
                <path
                   id="use325"
                   d="m 508.64453,29.59375 v -4.390625 h -41.3125 q 0.59375,-9.28125 5.59375,-14.140625 5,-4.859375 13.9375,-4.859375 5.17188,0 10.03125,1.265625 4.85938,1.265625 9.65625,3.8125 v -8.5 q -4.84375,-2.046875 -9.92187,-3.125 -5.07813,-1.078125 -10.29688,-1.078125 -13.09375,0 -20.73437,7.609375 -7.64063,7.625 -7.64063,20.625 0,13.421875 7.25,21.296875 Q 472.45703,56 484.76953,56 q 11.03125,0 17.45313,-7.109375 6.42187,-7.09375 6.42187,-19.296875 z m -8.98437,2.640625 q -0.0937,7.359375 -4.125,11.75 -4.03125,4.40625 -10.67188,4.40625 -7.51562,0 -12.03125,-4.25 -4.51562,-4.25 -5.20312,-11.96875 z"
                   inkscape:connector-curvature="0"
                   style="stroke-linecap:butt;stroke-linejoin:round" />
                <path
                   id="use327"
                   d="m 559.37109,46.390625 v 29.59375 h 8.98438 V 0 h -8.98438 v 8.203125 q -2.82812,-4.875 -7.15625,-7.25 -4.3125,-2.375 -10.375,-2.375 -9.90625,0 -16.14062,7.90625 -6.21875,7.921875 -6.21875,20.8125 0,12.890625 6.21875,20.796875 Q 531.93359,56 541.83984,56 q 6.0625,0 10.375,-2.375 4.32813,-2.359375 7.15625,-7.234375 z m -30.60937,-19.09375 q 0,-9.90625 4.07812,-15.546875 4.07813,-5.640625 11.20313,-5.640625 7.125,0 11.21875,5.640625 4.10937,5.640625 4.10937,15.546875 0,9.90625 -4.10937,15.546875 -4.09375,5.640625 -11.21875,5.640625 -7.125,0 -11.20313,-5.640625 -4.07812,-5.640625 -4.07812,-15.546875 z"
                   inkscape:connector-curvature="0"
                   style="stroke-linecap:butt;stroke-linejoin:round" />
                <path
                   id="use329"
                   d="M 585.94141,21.578125 V 54.6875 h 8.98437 V 21.921875 q 0,-7.765625 3.01563,-11.65625 3.03125,-3.875 9.09375,-3.875 7.26562,0 11.48437,4.640625 4.23438,4.640625 4.23438,12.65625 v 31 h 8.98437 V 0 h -8.98437 V 8.40625 Q 619.48828,3.421875 615.16016,1 q -4.3125,-2.421875 -10.03125,-2.421875 -9.42188,0 -14.3125,5.859375 -4.875,5.859375 -4.875,17.140625 z M 608.55078,56 Z"
                   inkscape:connector-curvature="0"
                   style="stroke-linecap:butt;stroke-linejoin:round" />
                <path
                   id="use331"
                   d="m 658.92969,8.203125 v -29 h -9.03125 V 54.6875 h 9.03125 v -8.296875 q 2.84375,4.875 7.15625,7.234375 4.32812,2.375 10.32812,2.375 9.96875,0 16.1875,-7.90625 6.23438,-7.90625 6.23438,-20.796875 0,-12.890625 -6.23438,-20.8125 -6.21875,-7.90625 -16.1875,-7.90625 -6,0 -10.32812,2.375 -4.3125,2.375 -7.15625,7.25 z m 30.57812,19.09375 q 0,9.90625 -4.07812,15.546875 -4.07813,5.640625 -11.20313,5.640625 -7.14062,0 -11.21875,-5.640625 -4.07812,-5.640625 -4.07812,-15.546875 0,-9.90625 4.07812,-15.546875 4.07813,-5.640625 11.21875,-5.640625 7.125,0 11.20313,5.640625 4.07812,5.640625 4.07812,15.546875 z"
                   inkscape:connector-curvature="0"
                   style="stroke-linecap:butt;stroke-linejoin:round" />
              </g>
            </g>
          </g>
        </g>
        <g
           id="line2d_27"
           style="stroke-linecap:butt;stroke-linejoin:round" />
        <g
           id="line2d_29"
           style="stroke-linecap:butt;stroke-linejoin:round" />
        <g
           id="line2d_31"
           style="stroke-linecap:butt;stroke-linejoin:round" />
        <g
           id="g1093"
           transform="translate(0,-1.1399804)"
           style="stroke-linecap:butt;stroke-linejoin:round" />
      </g>
    </g>
  </g>
  <defs
     id="defs630">
    <clipPath
       id="p5427d26bba"
       style="stroke-linecap:butt;stroke-linejoin:round">
      <rect
         height="165.46445"
         width="281.1275"
         x="83.540001"
         y="46.01556"
         id="rect627"
         style="stroke-linecap:butt;stroke-linejoin:round" />
    </clipPath>
  </defs>
</svg>
