<?xml version="1.0" encoding="UTF-8" standalone="no"?>
<!-- Created with matplotlib (https://matplotlib.org/) -->

<svg
   xmlns:dc="http://purl.org/dc/elements/1.1/"
   xmlns:cc="http://creativecommons.org/ns#"
   xmlns:rdf="http://www.w3.org/1999/02/22-rdf-syntax-ns#"
   xmlns:svg="http://www.w3.org/2000/svg"
   xmlns="http://www.w3.org/2000/svg"
   xmlns:xlink="http://www.w3.org/1999/xlink"
   xmlns:sodipodi="http://sodipodi.sourceforge.net/DTD/sodipodi-0.dtd"
   xmlns:inkscape="http://www.inkscape.org/namespaces/inkscape"
   height="103.82703pt"
   version="1.1"
   viewBox="0 0 637.34375 103.82703"
   width="637.34375pt"
   id="svg632"
   sodipodi:docname="legend-4.svg"
   inkscape:version="0.92.5 (2060ec1f9f, 2020-04-08)">
  <sodipodi:namedview
     pagecolor="#ffffff"
     bordercolor="#666666"
     borderopacity="1"
     objecttolerance="10"
     gridtolerance="10"
     guidetolerance="10"
     inkscape:pageopacity="0"
     inkscape:pageshadow="2"
     inkscape:window-width="1920"
     inkscape:window-height="1163"
     id="namedview634"
     showgrid="true"
     fit-margin-top="20"
     fit-margin-left="20"
     fit-margin-right="20"
     fit-margin-bottom="20"
     inkscape:zoom="1.7571428"
     inkscape:cx="479.43763"
     inkscape:cy="-16.750985"
     inkscape:window-x="0"
     inkscape:window-y="0"
     inkscape:window-maximized="1"
     inkscape:current-layer="g1093">
    <inkscape:grid
       type="xygrid"
       id="grid1027"
       originx="13.099997"
       originy="-127.67998" />
  </sodipodi:namedview>
  <metadata
     id="metadata2">
    <rdf:RDF>
      <cc:Work>
        <dc:type
           rdf:resource="http://purl.org/dc/dcmitype/StillImage" />
        <dc:date>2022-12-07T17:26:10.697241</dc:date>
        <dc:format>image/svg+xml</dc:format>
        <dc:creator>
          <cc:Agent>
            <dc:title>Matplotlib v3.3.4, https://matplotlib.org/</dc:title>
          </cc:Agent>
        </dc:creator>
        <dc:title></dc:title>
      </cc:Work>
    </rdf:RDF>
  </metadata>
  <defs
     id="defs6"
     style="stroke-linecap:butt;stroke-linejoin:round">
    <style
       type="text/css"
       id="style4">*{stroke-linecap:butt;stroke-linejoin:round;}</style>
  </defs>
  <g
     id="figure_1"
     style="stroke-linecap:butt;stroke-linejoin:round"
     transform="translate(-373.12387,-6.4287794)">
    <g
       id="axes_1"
       style="stroke-linecap:butt;stroke-linejoin:round">
      <g
         id="legend_1"
         style="stroke-linecap:butt;stroke-linejoin:round">
        <g
           id="patch_6"
           style="stroke-width:1.00851989;stroke-linecap:butt;stroke-linejoin:round"
           transform="matrix(1.4575773,0,0,0.67452717,-176.9561,6.5289135)" />
        <g
           id="line2d_21"
           style="stroke-linecap:butt;stroke-linejoin:round" />
        <g
           id="line2d_23"
           style="stroke-linecap:butt;stroke-linejoin:round" />
        <g
           id="line2d_25"
           style="stroke-linecap:butt;stroke-linejoin:round" />
        <g
           id="g1182"
           style="stroke-linecap:butt;stroke-linejoin:round">
          <g
             style="stroke-linecap:butt;stroke-linejoin:round"
             transform="translate(0,-4.8060065e-6)"
             id="g1082">
            <g
               id="line2d_20"
               style="stroke-linecap:butt;stroke-linejoin:round">
              <path
                 d="m 393.12387,33.01728 h 32"
                 style="fill:none;stroke:#706e6e;stroke-width:3;stroke-linecap:butt;stroke-linejoin:round;stroke-dasharray:11.1, 4.8;stroke-dashoffset:0"
                 id="path299"
                 inkscape:connector-curvature="0" />
            </g>
            <g
               id="text_10"
               style="stroke-linecap:butt;stroke-linejoin:round">
              <!-- Ideal speedup -->
              <g
                 transform="matrix(0.16,0,0,-0.16,437.92387,38.61728)"
                 id="g333"
                 style="stroke-linecap:butt;stroke-linejoin:round">
                <defs
                   id="defs305">
                  <path
                     d="m 9.8125,72.90625 h 9.859375 V 0 H 9.8125 Z"
                     id="DejaVuSans-73"
                     inkscape:connector-curvature="0"
                     style="stroke-linecap:butt;stroke-linejoin:round" />
                  <path
                     d="M 9.421875,75.984375 H 18.40625 V 0 H 9.421875 Z"
                     id="DejaVuSans-108"
                     inkscape:connector-curvature="0"
                     style="stroke-linecap:butt;stroke-linejoin:round" />
                </defs>
                <use
                   xlink:href="#DejaVuSans-73"
                   id="use307"
                   style="stroke-linecap:butt;stroke-linejoin:round"
                   x="0"
                   y="0"
                   width="100%"
                   height="100%" />
                <path
                   id="use309"
                   d="m 74.898437,46.390625 v 29.59375 h 8.984375 V 0 h -8.984375 v 8.203125 q -2.828125,-4.875 -7.15625,-7.25 -4.3125,-2.375 -10.375,-2.375 -9.90625,0 -16.140625,7.90625 -6.21875,7.921875 -6.21875,20.8125 0,12.890625 6.21875,20.796875 Q 47.460937,56 57.367187,56 q 6.0625,0 10.375,-2.375 4.328125,-2.359375 7.15625,-7.234375 z M 44.289062,27.296875 q 0,-9.90625 4.078125,-15.546875 4.078125,-5.640625 11.203125,-5.640625 7.125,0 11.21875,5.640625 4.109375,5.640625 4.109375,15.546875 0,9.90625 -4.109375,15.546875 -4.09375,5.640625 -11.21875,5.640625 -7.125,0 -11.203125,-5.640625 -4.078125,-5.640625 -4.078125,-15.546875 z"
                   inkscape:connector-curvature="0"
                   style="stroke-linecap:butt;stroke-linejoin:round" />
                <path
                   id="use311"
                   d="m 149.17187,29.59375 v -4.390625 h -41.31249 q 0.59375,-9.28125 5.59375,-14.140625 5,-4.859375 13.9375,-4.859375 5.17187,0 10.03124,1.265625 4.85938,1.265625 9.65625,3.8125 v -8.5 q -4.84375,-2.046875 -9.92187,-3.125 -5.07813,-1.078125 -10.29687,-1.078125 -13.09375,0 -20.73438,7.609375 -7.640625,7.625 -7.640625,20.625 0,13.421875 7.250005,21.296875 Q 112.98438,56 125.29688,56 q 11.03124,0 17.45312,-7.109375 6.42187,-7.09375 6.42187,-19.296875 z m -8.98437,2.640625 q -0.0937,7.359375 -4.125,11.75 -4.03125,4.40625 -10.67187,4.40625 -7.51563,0 -12.03125,-4.25 -4.51563,-4.25 -5.20313,-11.96875 z"
                   inkscape:connector-curvature="0"
                   style="stroke-linecap:butt;stroke-linejoin:round" />
                <path
                   id="use313"
                   d="m 188.77344,27.484375 q -10.89063,0 -15.09375,-2.484375 -4.20313,-2.484375 -4.20313,-8.5 0,-4.78125 3.15625,-7.59375 3.15625,-2.796875 8.5625,-2.796875 7.48438,0 12,5.296875 4.51563,5.296875 4.51563,14.078125 v 2 z m 17.92187,3.71875 V 0 h -8.98437 v 8.296875 q -3.07813,-4.96875 -7.67188,-7.34375 -4.59375,-2.375 -11.23437,-2.375 -8.39063,0 -13.35938,4.71875 -4.95312,4.71875 -4.95312,12.625 0,9.21875 6.17187,13.90625 6.1875,4.6875 18.4375,4.6875 h 12.60938 v 0.890625 q 0,6.203125 -4.07813,9.59375 -4.07812,3.390625 -11.45312,3.390625 -4.6875,0 -9.14063,-1.125 -4.4375,-1.125 -8.53125,-3.375 v 8.3125 q 4.92188,1.90625 9.5625,2.84375 Q 178.71094,56 183.10156,56 q 11.875,0 17.73438,-6.15625 5.85937,-6.140625 5.85937,-18.640625 z"
                   inkscape:connector-curvature="0"
                   style="stroke-linecap:butt;stroke-linejoin:round" />
                <use
                   x="215.77148"
                   xlink:href="#DejaVuSans-108"
                   id="use315"
                   style="stroke-linecap:butt;stroke-linejoin:round"
                   y="0"
                   width="100%"
                   height="100%" />
                <path
                   id="use317"
                   d=""
                   inkscape:connector-curvature="0"
                   style="stroke-linecap:butt;stroke-linejoin:round" />
                <path
                   id="use319"
                   d="m 319.62305,53.078125 v -8.5 Q 315.82617,46.53125 311.7168,47.5 q -4.09375,0.984375 -8.5,0.984375 -6.6875,0 -10.03125,-2.046875 -3.34375,-2.046875 -3.34375,-6.15625 0,-3.125 2.39062,-4.90625 2.39063,-1.78125 9.625,-3.390625 l 3.07813,-0.6875 q 9.5625,-2.046875 13.59375,-5.78125 4.03125,-3.734375 4.03125,-10.421875 0,-7.625 -6.03125,-12.078125 -6.03125,-4.4375 -16.57813,-4.4375 -4.39062,0 -9.15625,0.859375 Q 286.0293,0.296875 280.76367,2 v 9.28125 q 4.98438,-2.59375 9.8125,-3.890625 4.82813,-1.28125 9.57813,-1.28125 6.34375,0 9.75,2.171875 3.42187,2.171875 3.42187,6.125 0,3.65625 -2.46875,5.609375 -2.45312,1.953125 -10.8125,3.765625 l -3.125,0.734375 q -8.34375,1.75 -12.0625,5.390625 -3.70312,3.640625 -3.70312,9.984375 0,7.71875 5.46875,11.90625 Q 292.0918,56 302.1543,56 q 4.96875,0 9.35937,-0.734375 4.40625,-0.71875 8.10938,-2.1875 z"
                   inkscape:connector-curvature="0"
                   style="stroke-linecap:butt;stroke-linejoin:round" />
                <path
                   id="use321"
                   d="m 345.55078,8.203125 v -29 h -9.03125 V 54.6875 h 9.03125 v -8.296875 q 2.84375,4.875 7.15625,7.234375 4.32813,2.375 10.32813,2.375 9.96875,0 16.1875,-7.90625 6.23437,-7.90625 6.23437,-20.796875 0,-12.890625 -6.23437,-20.8125 -6.21875,-7.90625 -16.1875,-7.90625 -6,0 -10.32813,2.375 -4.3125,2.375 -7.15625,7.25 z m 30.57813,19.09375 q 0,9.90625 -4.07813,15.546875 -4.07812,5.640625 -11.20312,5.640625 -7.14063,0 -11.21875,-5.640625 -4.07813,-5.640625 -4.07813,-15.546875 0,-9.90625 4.07813,-15.546875 4.07812,-5.640625 11.21875,-5.640625 7.125,0 11.20312,5.640625 4.07813,5.640625 4.07813,15.546875 z"
                   inkscape:connector-curvature="0"
                   style="stroke-linecap:butt;stroke-linejoin:round" />
                <path
                   id="use323"
                   d="m 447.12109,29.59375 v -4.390625 h -41.3125 q 0.59375,-9.28125 5.59375,-14.140625 5,-4.859375 13.9375,-4.859375 5.17188,0 10.03125,1.265625 4.85938,1.265625 9.65625,3.8125 v -8.5 q -4.84375,-2.046875 -9.92187,-3.125 -5.07813,-1.078125 -10.29688,-1.078125 -13.09375,0 -20.73437,7.609375 -7.64063,7.625 -7.64063,20.625 0,13.421875 7.25,21.296875 Q 410.93359,56 423.24609,56 q 11.03125,0 17.45313,-7.109375 6.42187,-7.09375 6.42187,-19.296875 z m -8.98437,2.640625 q -0.0937,7.359375 -4.125,11.75 -4.03125,4.40625 -10.67188,4.40625 -7.51562,0 -12.03125,-4.25 -4.51562,-4.25 -5.20312,-11.96875 z"
                   inkscape:connector-curvature="0"
                   style="stroke-linecap:butt;stroke-linejoin:round" />
                <path
                   id="use325"
                   d="m 508.64453,29.59375 v -4.390625 h -41.3125 q 0.59375,-9.28125 5.59375,-14.140625 5,-4.859375 13.9375,-4.859375 5.17188,0 10.03125,1.265625 4.85938,1.265625 9.65625,3.8125 v -8.5 q -4.84375,-2.046875 -9.92187,-3.125 -5.07813,-1.078125 -10.29688,-1.078125 -13.09375,0 -20.73437,7.609375 -7.64063,7.625 -7.64063,20.625 0,13.421875 7.25,21.296875 Q 472.45703,56 484.76953,56 q 11.03125,0 17.45313,-7.109375 6.42187,-7.09375 6.42187,-19.296875 z m -8.98437,2.640625 q -0.0937,7.359375 -4.125,11.75 -4.03125,4.40625 -10.67188,4.40625 -7.51562,0 -12.03125,-4.25 -4.51562,-4.25 -5.20312,-11.96875 z"
                   inkscape:connector-curvature="0"
                   style="stroke-linecap:butt;stroke-linejoin:round" />
                <path
                   id="use327"
                   d="m 559.37109,46.390625 v 29.59375 h 8.98438 V 0 h -8.98438 v 8.203125 q -2.82812,-4.875 -7.15625,-7.25 -4.3125,-2.375 -10.375,-2.375 -9.90625,0 -16.14062,7.90625 -6.21875,7.921875 -6.21875,20.8125 0,12.890625 6.21875,20.796875 Q 531.93359,56 541.83984,56 q 6.0625,0 10.375,-2.375 4.32813,-2.359375 7.15625,-7.234375 z m -30.60937,-19.09375 q 0,-9.90625 4.07812,-15.546875 4.07813,-5.640625 11.20313,-5.640625 7.125,0 11.21875,5.640625 4.10937,5.640625 4.10937,15.546875 0,9.90625 -4.10937,15.546875 -4.09375,5.640625 -11.21875,5.640625 -7.125,0 -11.20313,-5.640625 -4.07812,-5.640625 -4.07812,-15.546875 z"
                   inkscape:connector-curvature="0"
                   style="stroke-linecap:butt;stroke-linejoin:round" />
                <path
                   id="use329"
                   d="M 585.94141,21.578125 V 54.6875 h 8.98437 V 21.921875 q 0,-7.765625 3.01563,-11.65625 3.03125,-3.875 9.09375,-3.875 7.26562,0 11.48437,4.640625 4.23438,4.640625 4.23438,12.65625 v 31 h 8.98437 V 0 h -8.98437 V 8.40625 Q 619.48828,3.421875 615.16016,1 q -4.3125,-2.421875 -10.03125,-2.421875 -9.42188,0 -14.3125,5.859375 -4.875,5.859375 -4.875,17.140625 z M 608.55078,56 Z"
                   inkscape:connector-curvature="0"
                   style="stroke-linecap:butt;stroke-linejoin:round" />
                <path
                   id="use331"
                   d="m 658.92969,8.203125 v -29 h -9.03125 V 54.6875 h 9.03125 v -8.296875 q 2.84375,4.875 7.15625,7.234375 4.32812,2.375 10.32812,2.375 9.96875,0 16.1875,-7.90625 6.23438,-7.90625 6.23438,-20.796875 0,-12.890625 -6.23438,-20.8125 -6.21875,-7.90625 -16.1875,-7.90625 -6,0 -10.32812,2.375 -4.3125,2.375 -7.15625,7.25 z m 30.57812,19.09375 q 0,9.90625 -4.07812,15.546875 -4.07813,5.640625 -11.20313,5.640625 -7.14062,0 -11.21875,-5.640625 -4.07812,-5.640625 -4.07812,-15.546875 0,-9.90625 4.07812,-15.546875 4.07813,-5.640625 11.21875,-5.640625 7.125,0 11.20313,5.640625 4.07812,5.640625 4.07812,15.546875 z"
                   inkscape:connector-curvature="0"
                   style="stroke-linecap:butt;stroke-linejoin:round" />
              </g>
            </g>
          </g>
          <g
             style="stroke-linecap:butt;stroke-linejoin:round"
             transform="translate(0,-11.172182)"
             id="g1118">
            <g
               id="line2d_22"
               style="stroke-linecap:butt;stroke-linejoin:round"
               transform="translate(0,2.3115385)">
              <path
                 d="m 393.12387,67.12428 h 32"
                 style="fill:none;stroke:#179e86;stroke-width:3;stroke-linecap:butt;stroke-linejoin:round;stroke-dasharray:6, 12;stroke-dashoffset:0"
                 id="path336"
                 inkscape:connector-curvature="0" />
            </g>
            <g
               transform="translate(1.4115681)"
               style="stroke-linecap:butt;stroke-linejoin:round"
               id="g1060">
              <g
                 transform="matrix(0.16,0,0,-0.16,436.4148,73.77216)"
                 id="g368"
                 style="stroke-linecap:butt;stroke-linejoin:round">
                <defs
                   id="defs342">
                  <path
                     d="M 19.671875,34.8125 V 8.109375 H 35.5 q 7.953125,0 11.78125,3.296875 3.84375,3.296875 3.84375,10.078125 0,6.84375 -3.84375,10.078125 -3.828125,3.25 -11.78125,3.25 z m 0,29.984375 V 42.828125 H 34.28125 q 7.21875,0 10.75,2.703125 3.546875,2.71875 3.546875,8.28125 0,5.515625 -3.546875,8.25 -3.53125,2.734375 -10.75,2.734375 z M 9.8125,72.90625 h 25.203125 q 11.28125,0 17.375,-4.6875 Q 58.5,63.53125 58.5,54.890625 58.5,48.1875 55.375,44.234375 52.25,40.28125 46.1875,39.3125 53.46875,37.75 57.5,32.78125 q 4.03125,-4.953125 4.03125,-12.375 0,-9.765625 -6.640625,-15.09375 Q 48.25,0 35.984375,0 H 9.8125 Z"
                     id="DejaVuSans-66"
                     inkscape:connector-curvature="0"
                     style="stroke-linecap:butt;stroke-linejoin:round" />
                  <path
                     d="M 19.671875,64.796875 V 8.109375 H 31.59375 q 15.09375,0 22.09375,6.828125 7,6.84375 7,21.59375 0,14.640625 -7,21.453125 -7,6.8125 -22.09375,6.8125 z M 9.8125,72.90625 h 20.265625 q 21.1875,0 31.09375,-8.8125 9.921875,-8.8125 9.921875,-27.5625 0,-18.859375 -9.96875,-27.703125 Q 51.171875,0 30.078125,0 H 9.8125 Z"
                     id="DejaVuSans-68"
                     inkscape:connector-curvature="0"
                     style="stroke-linecap:butt;stroke-linejoin:round" />
                </defs>
                <use
                   xlink:href="#DejaVuSans-66"
                   id="use344"
                   style="stroke-linecap:butt;stroke-linejoin:round"
                   x="0"
                   y="0"
                   width="100%"
                   height="100%" />
                <use
                   x="68.603516"
                   xlink:href="#DejaVuSans-68"
                   id="use346"
                   style="stroke-linecap:butt;stroke-linejoin:round"
                   y="0"
                   width="100%"
                   height="100%" />
                <path
                   id="use348"
                   d="m 155.41797,72.90625 h 14.70312 l 18.59375,-49.609375 18.70313,49.609375 h 14.70312 V 0 h -9.625 v 64.015625 l -18.79687,-50 h -9.90625 l -18.79688,50 V 0 h -9.57812 z"
                   inkscape:connector-curvature="0"
                   style="stroke-linecap:butt;stroke-linejoin:round" />
                <path
                   id="use350"
                   d=""
                   inkscape:connector-curvature="0"
                   style="stroke-linecap:butt;stroke-linejoin:round" />
                <path
                   id="use352"
                   d="m 307.95312,53.078125 v -8.5 q -3.79687,1.953125 -7.90625,2.921875 -4.09375,0.984375 -8.5,0.984375 -6.6875,0 -10.03125,-2.046875 -3.34375,-2.046875 -3.34375,-6.15625 0,-3.125 2.39063,-4.90625 2.39062,-1.78125 9.625,-3.390625 l 3.07812,-0.6875 q 9.5625,-2.046875 13.59375,-5.78125 4.03125,-3.734375 4.03125,-10.421875 0,-7.625 -6.03125,-12.078125 -6.03125,-4.4375 -16.57812,-4.4375 -4.39063,0 -9.15625,0.859375 Q 274.35937,0.296875 269.09375,2 v 9.28125 q 4.98437,-2.59375 9.8125,-3.890625 4.82812,-1.28125 9.57812,-1.28125 6.34375,0 9.75,2.171875 3.42188,2.171875 3.42188,6.125 0,3.65625 -2.46875,5.609375 -2.45313,1.953125 -10.8125,3.765625 l -3.125,0.734375 q -8.34375,1.75 -12.0625,5.390625 -3.70313,3.640625 -3.70313,9.984375 0,7.71875 5.46875,11.90625 Q 280.42187,56 290.48437,56 q 4.96875,0 9.35938,-0.734375 4.40625,-0.71875 8.10937,-2.1875 z"
                   inkscape:connector-curvature="0"
                   style="stroke-linecap:butt;stroke-linejoin:round" />
                <path
                   id="use354"
                   d="M 334.08398,70.21875 V 54.6875 h 18.5 v -6.984375 h -18.5 v -29.6875 q 0,-6.6875 1.82813,-8.59375 1.82812,-1.90625 7.45312,-1.90625 h 9.21875 V 0 h -9.21875 q -10.40625,0 -14.35937,3.875 -3.95313,3.890625 -3.95313,14.140625 v 29.6875 h -6.59375 V 54.6875 h 6.59375 v 15.53125 z"
                   inkscape:connector-curvature="0"
                   style="stroke-linecap:butt;stroke-linejoin:round" />
                <path
                   id="use356"
                   d="m 389.26172,27.484375 q -10.89063,0 -15.09375,-2.484375 -4.20313,-2.484375 -4.20313,-8.5 0,-4.78125 3.15625,-7.59375 3.15625,-2.796875 8.5625,-2.796875 7.48438,0 12,5.296875 4.51563,5.296875 4.51563,14.078125 v 2 z m 17.92187,3.71875 V 0 h -8.98437 v 8.296875 q -3.07813,-4.96875 -7.67188,-7.34375 -4.59375,-2.375 -11.23437,-2.375 -8.39063,0 -13.35938,4.71875 -4.95312,4.71875 -4.95312,12.625 0,9.21875 6.17187,13.90625 6.1875,4.6875 18.4375,4.6875 h 12.60938 v 0.890625 q 0,6.203125 -4.07813,9.59375 -4.07812,3.390625 -11.45312,3.390625 -4.6875,0 -9.14063,-1.125 -4.4375,-1.125 -8.53125,-3.375 v 8.3125 q 4.92188,1.90625 9.5625,2.84375 Q 379.19922,56 383.58984,56 q 11.875,0 17.73438,-6.15625 5.85937,-6.140625 5.85937,-18.640625 z"
                   inkscape:connector-curvature="0"
                   style="stroke-linecap:butt;stroke-linejoin:round" />
                <path
                   id="use358"
                   d="M 471.15039,33.015625 V 0 h -8.98437 v 32.71875 q 0,7.765625 -3.03125,11.609375 -3.03125,3.859375 -9.07813,3.859375 -7.28125,0 -11.48437,-4.640625 -4.20313,-4.625 -4.20313,-12.640625 V 0 h -9.03125 v 54.6875 h 9.03125 v -8.5 q 3.23438,4.9375 7.59375,7.375 4.375,2.4375 10.09375,2.4375 9.42188,0 14.25,-5.828125 4.84375,-5.828125 4.84375,-17.15625 z"
                   inkscape:connector-curvature="0"
                   style="stroke-linecap:butt;stroke-linejoin:round" />
                <path
                   id="use360"
                   d="m 525.04492,46.390625 v 29.59375 h 8.98438 V 0 h -8.98438 v 8.203125 q -2.82812,-4.875 -7.15625,-7.25 -4.3125,-2.375 -10.375,-2.375 -9.90625,0 -16.14062,7.90625 -6.21875,7.921875 -6.21875,20.8125 0,12.890625 6.21875,20.796875 Q 497.60742,56 507.51367,56 q 6.0625,0 10.375,-2.375 4.32813,-2.359375 7.15625,-7.234375 z m -30.60937,-19.09375 q 0,-9.90625 4.07812,-15.546875 4.07813,-5.640625 11.20313,-5.640625 7.125,0 11.21875,5.640625 4.10937,5.640625 4.10937,15.546875 0,9.90625 -4.10937,15.546875 -4.09375,5.640625 -11.21875,5.640625 -7.125,0 -11.20313,-5.640625 -4.07812,-5.640625 -4.07812,-15.546875 z"
                   inkscape:connector-curvature="0"
                   style="stroke-linecap:butt;stroke-linejoin:round" />
                <path
                   id="use362"
                   d="m 577.39648,27.484375 q -10.89062,0 -15.09375,-2.484375 -4.20312,-2.484375 -4.20312,-8.5 0,-4.78125 3.15625,-7.59375 3.15625,-2.796875 8.5625,-2.796875 7.48437,0 12,5.296875 4.51562,5.296875 4.51562,14.078125 v 2 z m 17.92188,3.71875 V 0 h -8.98438 v 8.296875 q -3.07812,-4.96875 -7.67187,-7.34375 -4.59375,-2.375 -11.23438,-2.375 -8.39062,0 -13.35937,4.71875 -4.95313,4.71875 -4.95313,12.625 0,9.21875 6.17188,13.90625 6.1875,4.6875 18.4375,4.6875 h 12.60937 v 0.890625 q 0,6.203125 -4.07812,9.59375 -4.07813,3.390625 -11.45313,3.390625 -4.6875,0 -9.14062,-1.125 -4.4375,-1.125 -8.53125,-3.375 v 8.3125 q 4.92187,1.90625 9.5625,2.84375 Q 567.33398,56 571.72461,56 q 11.875,0 17.73437,-6.15625 5.85938,-6.140625 5.85938,-18.640625 z"
                   inkscape:connector-curvature="0"
                   style="stroke-linecap:butt;stroke-linejoin:round" />
                <path
                   id="use364"
                   d="m 645.50391,46.296875 q -1.51563,0.875 -3.29688,1.28125 Q 640.42578,48 638.28516,48 630.66016,48 626.58203,43.046875 622.50391,38.09375 622.50391,28.8125 V 0 h -9.03125 v 54.6875 h 9.03125 v -8.5 q 2.84375,4.984375 7.375,7.390625 Q 634.42578,56 640.92578,56 q 0.92188,0 2.04688,-0.125 1.125,-0.109375 2.48437,-0.359375 z"
                   inkscape:connector-curvature="0"
                   style="stroke-linecap:butt;stroke-linejoin:round" />
                <path
                   id="use366"
                   d="m 689.16406,46.390625 v 29.59375 h 8.98438 V 0 h -8.98438 v 8.203125 q -2.82812,-4.875 -7.15625,-7.25 -4.3125,-2.375 -10.375,-2.375 -9.90625,0 -16.14062,7.90625 -6.21875,7.921875 -6.21875,20.8125 0,12.890625 6.21875,20.796875 Q 661.72656,56 671.63281,56 q 6.0625,0 10.375,-2.375 4.32813,-2.359375 7.15625,-7.234375 z m -30.60937,-19.09375 q 0,-9.90625 4.07812,-15.546875 4.07813,-5.640625 11.20313,-5.640625 7.125,0 11.21875,5.640625 4.10937,5.640625 4.10937,15.546875 0,9.90625 -4.10937,15.546875 -4.09375,5.640625 -11.21875,5.640625 -7.125,0 -11.20313,-5.640625 -4.07812,-5.640625 -4.07812,-15.546875 z"
                   inkscape:connector-curvature="0"
                   style="stroke-linecap:butt;stroke-linejoin:round" />
              </g>
              <g
                 transform="matrix(0.16,0,0,-0.16,555.37952,73.929477)"
                 id="g398"
                 style="stroke-linecap:butt;stroke-linejoin:round">
                <path
                   id="use370"
                   d="M 9.421875,54.6875 H 18.40625 V 0 H 9.421875 Z m 0,21.296875 H 18.40625 V 64.59375 H 9.421875 Z"
                   inkscape:connector-curvature="0"
                   style="stroke-linecap:butt;stroke-linejoin:round" />
                <path
                   id="use372"
                   d="m 79.783203,44.1875 q 3.375,6.0625 8.0625,8.9375 4.6875,2.875 11.03125,2.875 8.546877,0 13.187497,-5.984375 4.64063,-5.96875 4.64063,-17 V 0 h -9.03125 v 32.71875 q 0,7.859375 -2.79688,11.65625 -2.78125,3.8125 -8.484372,3.8125 -6.984375,0 -11.046875,-4.640625 -4.046875,-4.625 -4.046875,-12.640625 V 0 h -9.03125 v 32.71875 q 0,7.90625 -2.78125,11.6875 -2.78125,3.78125 -8.59375,3.78125 -6.890625,0 -10.953125,-4.65625 -4.046875,-4.65625 -4.046875,-12.625 V 0 h -9.03125 v 54.6875 h 9.03125 v -8.5 q 3.078125,5.03125 7.375,7.421875 Q 57.564453,56 63.470703,56 q 5.96875,0 10.140625,-3.03125 4.171875,-3.015625 6.171875,-8.78125 z"
                   inkscape:connector-curvature="0"
                   style="stroke-linecap:butt;stroke-linejoin:round" />
                <path
                   id="use374"
                   d="m 143.30469,8.203125 v -29 h -9.03125 V 54.6875 h 9.03125 v -8.296875 q 2.84375,4.875 7.15625,7.234375 4.32812,2.375 10.32812,2.375 9.96875,0 16.1875,-7.90625 6.23438,-7.90625 6.23438,-20.796875 0,-12.890625 -6.23438,-20.8125 -6.21875,-7.90625 -16.1875,-7.90625 -6,0 -10.32812,2.375 -4.3125,2.375 -7.15625,7.25 z m 30.57812,19.09375 q 0,9.90625 -4.07812,15.546875 -4.07813,5.640625 -11.20313,5.640625 -7.14062,0 -11.21875,-5.640625 -4.07812,-5.640625 -4.07812,-15.546875 0,-9.90625 4.07812,-15.546875 4.07813,-5.640625 11.21875,-5.640625 7.125,0 11.20313,5.640625 4.07812,5.640625 4.07812,15.546875 z"
                   inkscape:connector-curvature="0"
                   style="stroke-linecap:butt;stroke-linejoin:round" />
                <use
                   x="188.67188"
                   xlink:href="#DejaVuSans-108"
                   id="use376"
                   style="stroke-linecap:butt;stroke-linejoin:round"
                   y="0"
                   width="100%"
                   height="100%" />
                <path
                   id="use378"
                   d="m 272.6582,29.59375 v -4.390625 h -41.3125 q 0.59375,-9.28125 5.59375,-14.140625 5,-4.859375 13.9375,-4.859375 5.17188,0 10.03125,1.265625 4.85938,1.265625 9.65625,3.8125 v -8.5 q -4.84375,-2.046875 -9.92187,-3.125 -5.07813,-1.078125 -10.29688,-1.078125 -13.09375,0 -20.73437,7.609375 -7.64063,7.625 -7.64063,20.625 0,13.421875 7.25,21.296875 Q 236.4707,56 248.7832,56 q 11.03125,0 17.45313,-7.109375 6.42187,-7.09375 6.42187,-19.296875 z m -8.98437,2.640625 q -0.0937,7.359375 -4.125,11.75 -4.03125,4.40625 -10.67188,4.40625 -7.51562,0 -12.03125,-4.25 -4.51562,-4.25 -5.20312,-11.96875 z"
                   inkscape:connector-curvature="0"
                   style="stroke-linecap:butt;stroke-linejoin:round" />
                <path
                   id="use380"
                   d="m 329.97852,44.1875 q 3.375,6.0625 8.0625,8.9375 4.6875,2.875 11.03125,2.875 8.54687,0 13.1875,-5.984375 4.64062,-5.96875 4.64062,-17 V 0 h -9.03125 v 32.71875 q 0,7.859375 -2.79687,11.65625 -2.78125,3.8125 -8.48438,3.8125 -6.98437,0 -11.04687,-4.640625 -4.04688,-4.625 -4.04688,-12.640625 V 0 h -9.03125 v 32.71875 q 0,7.90625 -2.78125,11.6875 -2.78125,3.78125 -8.59375,3.78125 -6.89062,0 -10.95312,-4.65625 -4.04688,-4.65625 -4.04688,-12.625 V 0 h -9.03125 v 54.6875 h 9.03125 v -8.5 q 3.07813,5.03125 7.375,7.421875 Q 307.75977,56 313.66602,56 q 5.96875,0 10.14062,-3.03125 4.17188,-3.015625 6.17188,-8.78125 z"
                   inkscape:connector-curvature="0"
                   style="stroke-linecap:butt;stroke-linejoin:round" />
                <path
                   id="use382"
                   d="m 431.59375,29.59375 v -4.390625 h -41.3125 q 0.59375,-9.28125 5.59375,-14.140625 5,-4.859375 13.9375,-4.859375 5.17187,0 10.03125,1.265625 4.85937,1.265625 9.65625,3.8125 v -8.5 q -4.84375,-2.046875 -9.92188,-3.125 -5.07812,-1.078125 -10.29687,-1.078125 -13.09375,0 -20.73438,7.609375 -7.64062,7.625 -7.64062,20.625 0,13.421875 7.25,21.296875 Q 395.40625,56 407.71875,56 q 11.03125,0 17.45312,-7.109375 6.42188,-7.09375 6.42188,-19.296875 z m -8.98438,2.640625 q -0.0937,7.359375 -4.125,11.75 -4.03125,4.40625 -10.67187,4.40625 -7.51563,0 -12.03125,-4.25 -4.51563,-4.25 -5.20313,-11.96875 z"
                   inkscape:connector-curvature="0"
                   style="stroke-linecap:butt;stroke-linejoin:round" />
                <path
                   id="use384"
                   d="M 491.80469,33.015625 V 0 h -8.98438 v 32.71875 q 0,7.765625 -3.03125,11.609375 -3.03125,3.859375 -9.07812,3.859375 -7.28125,0 -11.48438,-4.640625 -4.20312,-4.625 -4.20312,-12.640625 V 0 h -9.03125 v 54.6875 h 9.03125 v -8.5 q 3.23437,4.9375 7.59375,7.375 4.375,2.4375 10.09375,2.4375 9.42187,0 14.25,-5.828125 4.84375,-5.828125 4.84375,-17.15625 z"
                   inkscape:connector-curvature="0"
                   style="stroke-linecap:butt;stroke-linejoin:round" />
                <path
                   id="use386"
                   d="M 518.60547,70.21875 V 54.6875 h 18.5 v -6.984375 h -18.5 v -29.6875 q 0,-6.6875 1.82812,-8.59375 1.82813,-1.90625 7.45313,-1.90625 h 9.21875 V 0 h -9.21875 q -10.40625,0 -14.35938,3.875 -3.95312,3.890625 -3.95312,14.140625 v 29.6875 h -6.59375 V 54.6875 h 6.59375 v 15.53125 z"
                   inkscape:connector-curvature="0"
                   style="stroke-linecap:butt;stroke-linejoin:round" />
                <path
                   id="use388"
                   d="m 573.7832,27.484375 q -10.89062,0 -15.09375,-2.484375 -4.20312,-2.484375 -4.20312,-8.5 0,-4.78125 3.15625,-7.59375 3.15625,-2.796875 8.5625,-2.796875 7.48437,0 12,5.296875 4.51562,5.296875 4.51562,14.078125 v 2 z m 17.92188,3.71875 V 0 h -8.98438 v 8.296875 q -3.07812,-4.96875 -7.67187,-7.34375 -4.59375,-2.375 -11.23438,-2.375 -8.39062,0 -13.35937,4.71875 -4.95313,4.71875 -4.95313,12.625 0,9.21875 6.17188,13.90625 6.1875,4.6875 18.4375,4.6875 h 12.60937 v 0.890625 q 0,6.203125 -4.07812,9.59375 -4.07813,3.390625 -11.45313,3.390625 -4.6875,0 -9.14062,-1.125 -4.4375,-1.125 -8.53125,-3.375 v 8.3125 q 4.92187,1.90625 9.5625,2.84375 Q 563.7207,56 568.11133,56 q 11.875,0 17.73437,-6.15625 5.85938,-6.140625 5.85938,-18.640625 z"
                   inkscape:connector-curvature="0"
                   style="stroke-linecap:butt;stroke-linejoin:round" />
                <path
                   id="use390"
                   d="M 619.09375,70.21875 V 54.6875 h 18.5 v -6.984375 h -18.5 v -29.6875 q 0,-6.6875 1.82812,-8.59375 1.82813,-1.90625 7.45313,-1.90625 h 9.21875 V 0 H 628.375 q -10.40625,0 -14.35938,3.875 -3.95312,3.890625 -3.95312,14.140625 v 29.6875 h -6.59375 V 54.6875 h 6.59375 v 15.53125 z"
                   inkscape:connector-curvature="0"
                   style="stroke-linecap:butt;stroke-linejoin:round" />
                <path
                   id="use392"
                   d="m 649.41211,54.6875 h 8.98437 V 0 h -8.98437 z m 0,21.296875 h 8.98437 V 64.59375 h -8.98437 z"
                   inkscape:connector-curvature="0"
                   style="stroke-linecap:butt;stroke-linejoin:round" />
                <path
                   id="use394"
                   d="m 698.38281,48.390625 q -7.21875,0 -11.42187,-5.640625 -4.20313,-5.640625 -4.20313,-15.453125 0,-9.8125 4.17188,-15.453125 4.1875,-5.640625 11.45312,-5.640625 7.1875,0 11.375,5.65625 4.20313,5.671875 4.20313,15.4375 0,9.71875 -4.20313,15.40625 -4.1875,5.6875 -11.375,5.6875 z m 0,7.609375 q 11.71875,0 18.40625,-7.625 6.70313,-7.609375 6.70313,-21.078125 0,-13.421875 -6.70313,-21.078125 -6.6875,-7.640625 -18.40625,-7.640625 -11.76562,0 -18.4375,7.640625 -6.65625,7.65625 -6.65625,21.078125 0,13.46875 6.65625,21.078125 6.67188,7.625 18.4375,7.625 z"
                   inkscape:connector-curvature="0"
                   style="stroke-linecap:butt;stroke-linejoin:round" />
                <path
                   id="use396"
                   d="M 783.8457,33.015625 V 0 h -8.98437 v 32.71875 q 0,7.765625 -3.03125,11.609375 -3.03125,3.859375 -9.07813,3.859375 -7.28125,0 -11.48437,-4.640625 -4.20313,-4.625 -4.20313,-12.640625 V 0 h -9.03125 v 54.6875 h 9.03125 v -8.5 q 3.23438,4.9375 7.59375,7.375 4.375,2.4375 10.09375,2.4375 9.42188,0 14.25,-5.828125 4.84375,-5.828125 4.84375,-17.15625 z"
                   inkscape:connector-curvature="0"
                   style="stroke-linecap:butt;stroke-linejoin:round" />
              </g>
            </g>
          </g>
          <g
             style="stroke-linecap:butt;stroke-linejoin:round"
             transform="translate(0,-16.655976)"
             id="g1149">
            <g
               id="line2d_24"
               style="stroke-linecap:butt;stroke-linejoin:round"
               transform="translate(0,-9.412245)">
              <path
                 d="m 393.12387,108.52578 h 32"
                 style="fill:none;stroke:#e44c38;stroke-width:3;stroke-linecap:butt;stroke-linejoin:round;stroke-dasharray:11.1, 4.8;stroke-dashoffset:0"
                 id="path401"
                 inkscape:connector-curvature="0" />
            </g>
            <g
               id="text_12"
               style="stroke-linecap:butt;stroke-linejoin:round">
              <!-- Plus BDM uniform -->
              <g
                 transform="matrix(0.16,0,0,-0.16,437.92387,103.50378)"
                 id="g440"
                 style="stroke-linecap:butt;stroke-linejoin:round">
                <defs
                   id="defs406">
                  <path
                     d="M 19.671875,64.796875 V 37.40625 h 12.40625 q 6.890625,0 10.640625,3.5625 3.765625,3.5625 3.765625,10.15625 0,6.546875 -3.765625,10.109375 -3.75,3.5625 -10.640625,3.5625 z M 9.8125,72.90625 h 22.265625 q 12.265625,0 18.53125,-5.546875 6.28125,-5.546875 6.28125,-16.234375 0,-10.796875 -6.28125,-16.3125 -6.265625,-5.515625 -18.53125,-5.515625 H 19.671875 V 0 H 9.8125 Z"
                     id="DejaVuSans-80"
                     inkscape:connector-curvature="0"
                     style="stroke-linecap:butt;stroke-linejoin:round" />
                </defs>
                <use
                   xlink:href="#DejaVuSans-80"
                   id="use408"
                   style="stroke-linecap:butt;stroke-linejoin:round"
                   x="0"
                   y="0"
                   width="100%"
                   height="100%" />
                <use
                   x="60.302734"
                   xlink:href="#DejaVuSans-108"
                   id="use410"
                   style="stroke-linecap:butt;stroke-linejoin:round"
                   y="0"
                   width="100%"
                   height="100%" />
                <path
                   id="use412"
                   d="M 96.585937,21.578125 V 54.6875 h 8.984373 V 21.921875 q 0,-7.765625 3.01563,-11.65625 3.03125,-3.875 9.09375,-3.875 7.26562,0 11.48437,4.640625 4.23438,4.640625 4.23438,12.65625 v 31 h 8.98437 V 0 h -8.98437 V 8.40625 Q 130.13281,3.421875 125.80469,1 q -4.3125,-2.421875 -10.03125,-2.421875 -9.42188,0 -14.3125,5.859375 -4.875003,5.859375 -4.875003,17.140625 z M 119.19531,56 Z"
                   inkscape:connector-curvature="0"
                   style="stroke-linecap:butt;stroke-linejoin:round" />
                <path
                   id="use414"
                   d="m 195.74609,53.078125 v -8.5 q -3.79687,1.953125 -7.90625,2.921875 -4.09375,0.984375 -8.5,0.984375 -6.6875,0 -10.03125,-2.046875 -3.34375,-2.046875 -3.34375,-6.15625 0,-3.125 2.39063,-4.90625 2.39062,-1.78125 9.625,-3.390625 l 3.07812,-0.6875 q 9.5625,-2.046875 13.59375,-5.78125 4.03125,-3.734375 4.03125,-10.421875 0,-7.625 -6.03125,-12.078125 -6.03125,-4.4375 -16.57812,-4.4375 -4.39063,0 -9.15625,0.859375 Q 162.15234,0.296875 156.88672,2 v 9.28125 q 4.98437,-2.59375 9.8125,-3.890625 4.82812,-1.28125 9.57812,-1.28125 6.34375,0 9.75,2.171875 3.42188,2.171875 3.42188,6.125 0,3.65625 -2.46875,5.609375 -2.45313,1.953125 -10.8125,3.765625 l -3.125,0.734375 q -8.34375,1.75 -12.0625,5.390625 -3.70313,3.640625 -3.70313,9.984375 0,7.71875 5.46875,11.90625 Q 168.21484,56 178.27734,56 q 4.96875,0 9.35938,-0.734375 4.40625,-0.71875 8.10937,-2.1875 z"
                   inkscape:connector-curvature="0"
                   style="stroke-linecap:butt;stroke-linejoin:round" />
                <path
                   id="use416"
                   d=""
                   inkscape:connector-curvature="0"
                   style="stroke-linecap:butt;stroke-linejoin:round" />
                <use
                   x="235.35156"
                   xlink:href="#DejaVuSans-66"
                   id="use418"
                   style="stroke-linecap:butt;stroke-linejoin:round"
                   y="0"
                   width="100%"
                   height="100%" />
                <use
                   x="303.95508"
                   xlink:href="#DejaVuSans-68"
                   id="use420"
                   style="stroke-linecap:butt;stroke-linejoin:round"
                   y="0"
                   width="100%"
                   height="100%" />
                <path
                   id="use422"
                   d="m 390.76953,72.90625 h 14.70313 l 18.59375,-49.609375 18.70312,49.609375 h 14.70313 V 0 h -9.625 v 64.015625 l -18.79688,-50 h -9.90625 l -18.79687,50 V 0 h -9.57813 z"
                   inkscape:connector-curvature="0"
                   style="stroke-linecap:butt;stroke-linejoin:round" />
                <path
                   id="use424"
                   d=""
                   inkscape:connector-curvature="0"
                   style="stroke-linecap:butt;stroke-linejoin:round" />
                <path
                   id="use426"
                   d="M 507.52344,21.578125 V 54.6875 h 8.98437 V 21.921875 q 0,-7.765625 3.01563,-11.65625 3.03125,-3.875 9.09375,-3.875 7.26562,0 11.48437,4.640625 4.23438,4.640625 4.23438,12.65625 v 31 h 8.98437 V 0 h -8.98437 V 8.40625 Q 541.07031,3.421875 536.74219,1 q -4.3125,-2.421875 -10.03125,-2.421875 -9.42188,0 -14.3125,5.859375 -4.875,5.859375 -4.875,17.140625 z M 530.13281,56 Z"
                   inkscape:connector-curvature="0"
                   style="stroke-linecap:butt;stroke-linejoin:round" />
                <path
                   id="use428"
                   d="M 617.29297,33.015625 V 0 h -8.98438 v 32.71875 q 0,7.765625 -3.03125,11.609375 -3.03125,3.859375 -9.07812,3.859375 -7.28125,0 -11.48438,-4.640625 -4.20312,-4.625 -4.20312,-12.640625 V 0 h -9.03125 v 54.6875 h 9.03125 v -8.5 q 3.23437,4.9375 7.59375,7.375 4.375,2.4375 10.09375,2.4375 9.42187,0 14.25,-5.828125 4.84375,-5.828125 4.84375,-17.15625 z"
                   inkscape:connector-curvature="0"
                   style="stroke-linecap:butt;stroke-linejoin:round" />
                <path
                   id="use430"
                   d="m 635.20312,54.6875 h 8.98438 V 0 h -8.98438 z m 0,21.296875 h 8.98438 V 64.59375 h -8.98438 z"
                   inkscape:connector-curvature="0"
                   style="stroke-linecap:butt;stroke-linejoin:round" />
                <path
                   id="use432"
                   d="M 690.67383,75.984375 V 68.5 h -8.59375 q -4.82813,0 -6.71875,-1.953125 -1.875,-1.953125 -1.875,-7.03125 V 54.6875 H 688.2832 V 47.703125 H 673.48633 V 0 h -9.03125 v 47.703125 h -8.59375 V 54.6875 h 8.59375 V 58.5 q 0,9.125 4.25,13.296875 4.25,4.1875 13.46875,4.1875 z"
                   inkscape:connector-curvature="0"
                   style="stroke-linecap:butt;stroke-linejoin:round" />
                <path
                   id="use434"
                   d="m 719.37891,48.390625 q -7.21875,0 -11.42188,-5.640625 -4.20312,-5.640625 -4.20312,-15.453125 0,-9.8125 4.17187,-15.453125 4.1875,-5.640625 11.45313,-5.640625 7.1875,0 11.375,5.65625 4.20312,5.671875 4.20312,15.4375 0,9.71875 -4.20312,15.40625 -4.1875,5.6875 -11.375,5.6875 z m 0,7.609375 q 11.71875,0 18.40625,-7.625 6.70312,-7.609375 6.70312,-21.078125 0,-13.421875 -6.70312,-21.078125 -6.6875,-7.640625 -18.40625,-7.640625 -11.76563,0 -18.4375,7.640625 -6.65625,7.65625 -6.65625,21.078125 0,13.46875 6.65625,21.078125 6.67187,7.625 18.4375,7.625 z"
                   inkscape:connector-curvature="0"
                   style="stroke-linecap:butt;stroke-linejoin:round" />
                <path
                   id="use436"
                   d="m 791.06055,46.296875 q -1.51563,0.875 -3.29688,1.28125 Q 785.98242,48 783.8418,48 776.2168,48 772.13867,43.046875 768.06055,38.09375 768.06055,28.8125 V 0 h -9.03125 v 54.6875 h 9.03125 v -8.5 q 2.84375,4.984375 7.375,7.390625 Q 779.98242,56 786.48242,56 q 0.92188,0 2.04688,-0.125 1.125,-0.109375 2.48437,-0.359375 z"
                   inkscape:connector-curvature="0"
                   style="stroke-linecap:butt;stroke-linejoin:round" />
                <path
                   id="use438"
                   d="m 841.31445,44.1875 q 3.375,6.0625 8.0625,8.9375 4.6875,2.875 11.03125,2.875 8.54688,0 13.1875,-5.984375 4.64063,-5.96875 4.64063,-17 V 0 h -9.03125 v 32.71875 q 0,7.859375 -2.79688,11.65625 -2.78125,3.8125 -8.48437,3.8125 -6.98438,0 -11.04688,-4.640625 -4.04687,-4.625 -4.04687,-12.640625 V 0 h -9.03125 v 32.71875 q 0,7.90625 -2.78125,11.6875 -2.78125,3.78125 -8.59375,3.78125 -6.89063,0 -10.95313,-4.65625 -4.04687,-4.65625 -4.04687,-12.625 V 0 h -9.03125 v 54.6875 h 9.03125 v -8.5 q 3.07812,5.03125 7.375,7.421875 Q 819.0957,56 825.00195,56 q 5.96875,0 10.14063,-3.03125 4.17187,-3.015625 6.17187,-8.78125 z"
                   inkscape:connector-curvature="0"
                   style="stroke-linecap:butt;stroke-linejoin:round" />
              </g>
              <!-- grid -->
              <g
                 transform="matrix(0.16,0,0,-0.16,583.92669,103.55329)"
                 id="g453"
                 style="stroke-linecap:butt;stroke-linejoin:round">
                <defs
                   id="defs443">
                  <path
                     d="m 45.40625,27.984375 q 0,9.765625 -4.03125,15.125 -4.015625,5.375 -11.296875,5.375 -7.21875,0 -11.25,-5.375 -4.03125,-5.359375 -4.03125,-15.125 0,-9.71875 4.03125,-15.09375 4.03125,-5.375 11.25,-5.375 7.28125,0 11.296875,5.375 4.03125,5.375 4.03125,15.09375 z M 54.390625,6.78125 q 0,-13.953125 -6.203125,-20.765625 -6.1875,-6.8125 -18.984375,-6.8125 -4.734375,0 -8.9375,0.703125 -4.203125,0.703125 -8.15625,2.171875 V -9.1875 q 3.953125,-2.140625 7.8125,-3.15625 3.859375,-1.03125 7.859375,-1.03125 8.84375,0 13.234375,4.609375 4.390625,4.609375 4.390625,13.9375 V 9.625 Q 42.625,4.78125 38.28125,2.390625 33.9375,0 27.875,0 17.828125,0 11.671875,7.65625 q -6.15625,7.671875 -6.15625,20.328125 0,12.6875 6.15625,20.34375 Q 17.828125,56 27.875,56 q 6.0625,0 10.40625,-2.390625 4.34375,-2.390625 7.125,-7.21875 V 54.6875 h 8.984375 z"
                     id="DejaVuSans-103"
                     inkscape:connector-curvature="0"
                     style="stroke-linecap:butt;stroke-linejoin:round" />
                </defs>
                <use
                   xlink:href="#DejaVuSans-103"
                   id="use445"
                   style="stroke-linecap:butt;stroke-linejoin:round"
                   x="0"
                   y="0"
                   width="100%"
                   height="100%" />
                <path
                   id="use447"
                   d="m 104.58594,46.296875 q -1.51563,0.875 -3.29688,1.28125 Q 99.507812,48 97.367187,48 89.742187,48 85.664062,43.046875 81.585937,38.09375 81.585937,28.8125 V 0 h -9.03125 v 54.6875 h 9.03125 v -8.5 q 2.84375,4.984375 7.375,7.390625 Q 93.507812,56 100.00781,56 q 0.92188,0 2.04688,-0.125 1.125,-0.109375 2.48437,-0.359375 z"
                   inkscape:connector-curvature="0"
                   style="stroke-linecap:butt;stroke-linejoin:round" />
                <path
                   id="use449"
                   d="m 114.01172,54.6875 h 8.98437 V 0 h -8.98437 z m 0,21.296875 h 8.98437 V 64.59375 h -8.98437 z"
                   inkscape:connector-curvature="0"
                   style="stroke-linecap:butt;stroke-linejoin:round" />
                <path
                   id="use451"
                   d="m 177.7793,46.390625 v 29.59375 h 8.98437 V 0 h -8.98437 v 8.203125 q -2.82813,-4.875 -7.15625,-7.25 -4.3125,-2.375 -10.375,-2.375 -9.90625,0 -16.14063,7.90625 -6.21875,7.921875 -6.21875,20.8125 0,12.890625 6.21875,20.796875 Q 150.3418,56 160.24805,56 q 6.0625,0 10.375,-2.375 4.32812,-2.359375 7.15625,-7.234375 z m -30.60938,-19.09375 q 0,-9.90625 4.07813,-15.546875 4.07812,-5.640625 11.20312,-5.640625 7.125,0 11.21875,5.640625 4.10938,5.640625 4.10938,15.546875 0,9.90625 -4.10938,15.546875 -4.09375,5.640625 -11.21875,5.640625 -7.125,0 -11.20312,-5.640625 -4.07813,-5.640625 -4.07813,-15.546875 z"
                   inkscape:connector-curvature="0"
                   style="stroke-linecap:butt;stroke-linejoin:round" />
              </g>
            </g>
          </g>
        </g>
        <g
           id="line2d_27"
           style="stroke-linecap:butt;stroke-linejoin:round" />
        <g
           id="line2d_29"
           style="stroke-linecap:butt;stroke-linejoin:round" />
        <g
           id="line2d_31"
           style="stroke-linecap:butt;stroke-linejoin:round" />
        <g
           id="g1093"
           transform="translate(0,-1.1399804)"
           style="stroke-linecap:butt;stroke-linejoin:round">
          <g
             style="stroke-linecap:butt;stroke-linejoin:round"
             transform="translate(328.3228,-105.11703)"
             id="g1181">
            <g
               id="line2d_26"
               style="stroke-linecap:butt;stroke-linejoin:round"
               transform="translate(0,-9.467995)">
              <path
                 d="m 393.12387,149.92728 h 32"
                 style="fill:none;stroke:#3f5486;stroke-width:3;stroke-linecap:square;stroke-linejoin:round"
                 id="path456"
                 inkscape:connector-curvature="0" />
            </g>
            <g
               id="text_13"
               style="stroke-linecap:butt;stroke-linejoin:round">
              <!-- Plus memory -->
              <g
                 transform="matrix(0.16,0,0,-0.16,437.92387,144.90528)"
                 id="g482"
                 style="stroke-linecap:butt;stroke-linejoin:round">
                <use
                   xlink:href="#DejaVuSans-80"
                   id="use460"
                   style="stroke-linecap:butt;stroke-linejoin:round"
                   x="0"
                   y="0"
                   width="100%"
                   height="100%" />
                <use
                   x="60.302734"
                   xlink:href="#DejaVuSans-108"
                   id="use462"
                   style="stroke-linecap:butt;stroke-linejoin:round"
                   y="0"
                   width="100%"
                   height="100%" />
                <path
                   id="use464"
                   d="M 96.585937,21.578125 V 54.6875 h 8.984373 V 21.921875 q 0,-7.765625 3.01563,-11.65625 3.03125,-3.875 9.09375,-3.875 7.26562,0 11.48437,4.640625 4.23438,4.640625 4.23438,12.65625 v 31 h 8.98437 V 0 h -8.98437 V 8.40625 Q 130.13281,3.421875 125.80469,1 q -4.3125,-2.421875 -10.03125,-2.421875 -9.42188,0 -14.3125,5.859375 -4.875003,5.859375 -4.875003,17.140625 z M 119.19531,56 Z"
                   inkscape:connector-curvature="0"
                   style="stroke-linecap:butt;stroke-linejoin:round" />
                <path
                   id="use466"
                   d="m 195.74609,53.078125 v -8.5 q -3.79687,1.953125 -7.90625,2.921875 -4.09375,0.984375 -8.5,0.984375 -6.6875,0 -10.03125,-2.046875 -3.34375,-2.046875 -3.34375,-6.15625 0,-3.125 2.39063,-4.90625 2.39062,-1.78125 9.625,-3.390625 l 3.07812,-0.6875 q 9.5625,-2.046875 13.59375,-5.78125 4.03125,-3.734375 4.03125,-10.421875 0,-7.625 -6.03125,-12.078125 -6.03125,-4.4375 -16.57812,-4.4375 -4.39063,0 -9.15625,0.859375 Q 162.15234,0.296875 156.88672,2 v 9.28125 q 4.98437,-2.59375 9.8125,-3.890625 4.82812,-1.28125 9.57812,-1.28125 6.34375,0 9.75,2.171875 3.42188,2.171875 3.42188,6.125 0,3.65625 -2.46875,5.609375 -2.45313,1.953125 -10.8125,3.765625 l -3.125,0.734375 q -8.34375,1.75 -12.0625,5.390625 -3.70313,3.640625 -3.70313,9.984375 0,7.71875 5.46875,11.90625 Q 168.21484,56 178.27734,56 q 4.96875,0 9.35938,-0.734375 4.40625,-0.71875 8.10937,-2.1875 z"
                   inkscape:connector-curvature="0"
                   style="stroke-linecap:butt;stroke-linejoin:round" />
                <path
                   id="use468"
                   d=""
                   inkscape:connector-curvature="0"
                   style="stroke-linecap:butt;stroke-linejoin:round" />
                <path
                   id="use470"
                   d="m 287.35156,44.1875 q 3.375,6.0625 8.0625,8.9375 4.6875,2.875 11.03125,2.875 8.54688,0 13.1875,-5.984375 4.64063,-5.96875 4.64063,-17 V 0 h -9.03125 v 32.71875 q 0,7.859375 -2.79688,11.65625 -2.78125,3.8125 -8.48437,3.8125 -6.98438,0 -11.04688,-4.640625 -4.04687,-4.625 -4.04687,-12.640625 V 0 h -9.03125 v 32.71875 q 0,7.90625 -2.78125,11.6875 -2.78125,3.78125 -8.59375,3.78125 -6.89063,0 -10.95313,-4.65625 -4.04687,-4.65625 -4.04687,-12.625 V 0 h -9.03125 v 54.6875 h 9.03125 v -8.5 q 3.07812,5.03125 7.375,7.421875 Q 265.13281,56 271.03906,56 q 5.96875,0 10.14063,-3.03125 4.17187,-3.015625 6.17187,-8.78125 z"
                   inkscape:connector-curvature="0"
                   style="stroke-linecap:butt;stroke-linejoin:round" />
                <path
                   id="use472"
                   d="m 388.9668,29.59375 v -4.390625 h -41.3125 q 0.59375,-9.28125 5.59375,-14.140625 5,-4.859375 13.9375,-4.859375 5.17187,0 10.03125,1.265625 4.85937,1.265625 9.65625,3.8125 v -8.5 q -4.84375,-2.046875 -9.92188,-3.125 -5.07812,-1.078125 -10.29687,-1.078125 -13.09375,0 -20.73438,7.609375 -7.64062,7.625 -7.64062,20.625 0,13.421875 7.25,21.296875 Q 352.7793,56 365.0918,56 q 11.03125,0 17.45312,-7.109375 6.42188,-7.09375 6.42188,-19.296875 z m -8.98438,2.640625 q -0.0937,7.359375 -4.125,11.75 -4.03125,4.40625 -10.67187,4.40625 -7.51563,0 -12.03125,-4.25 -4.51563,-4.25 -5.20313,-11.96875 z"
                   inkscape:connector-curvature="0"
                   style="stroke-linecap:butt;stroke-linejoin:round" />
                <path
                   id="use474"
                   d="m 446.28711,44.1875 q 3.375,6.0625 8.0625,8.9375 4.6875,2.875 11.03125,2.875 8.54687,0 13.1875,-5.984375 4.64062,-5.96875 4.64062,-17 V 0 h -9.03125 v 32.71875 q 0,7.859375 -2.79687,11.65625 -2.78125,3.8125 -8.48438,3.8125 -6.98437,0 -11.04687,-4.640625 -4.04688,-4.625 -4.04688,-12.640625 V 0 h -9.03125 v 32.71875 q 0,7.90625 -2.78125,11.6875 -2.78125,3.78125 -8.59375,3.78125 -6.89062,0 -10.95312,-4.65625 -4.04688,-4.65625 -4.04688,-12.625 V 0 h -9.03125 v 54.6875 h 9.03125 v -8.5 q 3.07813,5.03125 7.375,7.421875 Q 424.06836,56 429.97461,56 q 5.96875,0 10.14062,-3.03125 4.17188,-3.015625 6.17188,-8.78125 z"
                   inkscape:connector-curvature="0"
                   style="stroke-linecap:butt;stroke-linejoin:round" />
                <path
                   id="use476"
                   d="m 522.30859,48.390625 q -7.21875,0 -11.42187,-5.640625 -4.20313,-5.640625 -4.20313,-15.453125 0,-9.8125 4.17188,-15.453125 4.1875,-5.640625 11.45312,-5.640625 7.1875,0 11.375,5.65625 4.20313,5.671875 4.20313,15.4375 0,9.71875 -4.20313,15.40625 -4.1875,5.6875 -11.375,5.6875 z m 0,7.609375 q 11.71875,0 18.40625,-7.625 6.70313,-7.609375 6.70313,-21.078125 0,-13.421875 -6.70313,-21.078125 -6.6875,-7.640625 -18.40625,-7.640625 -11.76562,0 -18.4375,7.640625 -6.65625,7.65625 -6.65625,21.078125 0,13.46875 6.65625,21.078125 6.67188,7.625 18.4375,7.625 z"
                   inkscape:connector-curvature="0"
                   style="stroke-linecap:butt;stroke-linejoin:round" />
                <path
                   id="use478"
                   d="m 593.99023,46.296875 q -1.51562,0.875 -3.29687,1.28125 Q 588.91211,48 586.77148,48 579.14648,48 575.06836,43.046875 570.99023,38.09375 570.99023,28.8125 V 0 h -9.03125 v 54.6875 h 9.03125 v -8.5 q 2.84375,4.984375 7.375,7.390625 Q 582.91211,56 589.41211,56 q 0.92187,0 2.04687,-0.125 1.125,-0.109375 2.48438,-0.359375 z"
                   inkscape:connector-curvature="0"
                   style="stroke-linecap:butt;stroke-linejoin:round" />
                <path
                   id="use480"
                   d="m 626.16602,-5.078125 q -3.79688,-9.765625 -7.42188,-12.734375 -3.60937,-2.984375 -9.65625,-2.984375 h -7.1875 v 7.515625 h 5.28125 q 3.70313,0 5.75,1.765625 2.0625,1.75 4.54688,8.296875 l 1.60937,4.09375 -22.10937,53.8125 h 9.51562 L 623.58789,11.921875 640.68164,54.6875 h 9.51563 z"
                   inkscape:connector-curvature="0"
                   style="stroke-linecap:butt;stroke-linejoin:round" />
              </g>
              <!-- improvements -->
              <g
                 transform="matrix(0.16,0,0,-0.16,547.23888,144.84329)"
                 id="g511"
                 style="stroke-linecap:butt;stroke-linejoin:round">
                <defs
                   id="defs485">
                  <path
                     d="M 2.984375,54.6875 H 12.5 L 29.59375,8.796875 46.6875,54.6875 h 9.515625 L 35.6875,0 H 23.484375 Z"
                     id="DejaVuSans-118"
                     inkscape:connector-curvature="0"
                     style="stroke-linecap:butt;stroke-linejoin:round" />
                </defs>
                <path
                   id="use487"
                   d="M 9.421875,54.6875 H 18.40625 V 0 H 9.421875 Z m 0,21.296875 H 18.40625 V 64.59375 H 9.421875 Z"
                   inkscape:connector-curvature="0"
                   style="stroke-linecap:butt;stroke-linejoin:round" />
                <path
                   id="use489"
                   d="m 79.783203,44.1875 q 3.375,6.0625 8.0625,8.9375 4.6875,2.875 11.03125,2.875 8.546877,0 13.187497,-5.984375 4.64063,-5.96875 4.64063,-17 V 0 h -9.03125 v 32.71875 q 0,7.859375 -2.79688,11.65625 -2.78125,3.8125 -8.484372,3.8125 -6.984375,0 -11.046875,-4.640625 -4.046875,-4.625 -4.046875,-12.640625 V 0 h -9.03125 v 32.71875 q 0,7.90625 -2.78125,11.6875 -2.78125,3.78125 -8.59375,3.78125 -6.890625,0 -10.953125,-4.65625 -4.046875,-4.65625 -4.046875,-12.625 V 0 h -9.03125 v 54.6875 h 9.03125 v -8.5 q 3.078125,5.03125 7.375,7.421875 Q 57.564453,56 63.470703,56 q 5.96875,0 10.140625,-3.03125 4.171875,-3.015625 6.171875,-8.78125 z"
                   inkscape:connector-curvature="0"
                   style="stroke-linecap:butt;stroke-linejoin:round" />
                <path
                   id="use491"
                   d="m 143.30469,8.203125 v -29 h -9.03125 V 54.6875 h 9.03125 v -8.296875 q 2.84375,4.875 7.15625,7.234375 4.32812,2.375 10.32812,2.375 9.96875,0 16.1875,-7.90625 6.23438,-7.90625 6.23438,-20.796875 0,-12.890625 -6.23438,-20.8125 -6.21875,-7.90625 -16.1875,-7.90625 -6,0 -10.32812,2.375 -4.3125,2.375 -7.15625,7.25 z m 30.57812,19.09375 q 0,9.90625 -4.07812,15.546875 -4.07813,5.640625 -11.20313,5.640625 -7.14062,0 -11.21875,-5.640625 -4.07812,-5.640625 -4.07812,-15.546875 0,-9.90625 4.07812,-15.546875 4.07813,-5.640625 11.21875,-5.640625 7.125,0 11.20313,5.640625 4.07812,5.640625 4.07812,15.546875 z"
                   inkscape:connector-curvature="0"
                   style="stroke-linecap:butt;stroke-linejoin:round" />
                <path
                   id="use493"
                   d="m 229.78125,46.296875 q -1.51563,0.875 -3.29688,1.28125 Q 224.70312,48 222.5625,48 214.9375,48 210.85937,43.046875 206.78125,38.09375 206.78125,28.8125 V 0 H 197.75 v 54.6875 h 9.03125 v -8.5 q 2.84375,4.984375 7.375,7.390625 Q 218.70312,56 225.20312,56 q 0.92188,0 2.04688,-0.125 1.125,-0.109375 2.48437,-0.359375 z"
                   inkscape:connector-curvature="0"
                   style="stroke-linecap:butt;stroke-linejoin:round" />
                <path
                   id="use495"
                   d="m 258.14453,48.390625 q -7.21875,0 -11.42187,-5.640625 -4.20313,-5.640625 -4.20313,-15.453125 0,-9.8125 4.17188,-15.453125 4.1875,-5.640625 11.45312,-5.640625 7.1875,0 11.375,5.65625 4.20313,5.671875 4.20313,15.4375 0,9.71875 -4.20313,15.40625 -4.1875,5.6875 -11.375,5.6875 z m 0,7.609375 q 11.71875,0 18.40625,-7.625 6.70313,-7.609375 6.70313,-21.078125 0,-13.421875 -6.70313,-21.078125 -6.6875,-7.640625 -18.40625,-7.640625 -11.76562,0 -18.4375,7.640625 -6.65625,7.65625 -6.65625,21.078125 0,13.46875 6.65625,21.078125 6.67188,7.625 18.4375,7.625 z"
                   inkscape:connector-curvature="0"
                   style="stroke-linecap:butt;stroke-linejoin:round" />
                <use
                   x="288.7168"
                   xlink:href="#DejaVuSans-118"
                   id="use497"
                   style="stroke-linecap:butt;stroke-linejoin:round"
                   y="0"
                   width="100%"
                   height="100%" />
                <path
                   id="use499"
                   d="m 404.09961,29.59375 v -4.390625 h -41.3125 q 0.59375,-9.28125 5.59375,-14.140625 5,-4.859375 13.9375,-4.859375 5.17187,0 10.03125,1.265625 4.85937,1.265625 9.65625,3.8125 v -8.5 q -4.84375,-2.046875 -9.92188,-3.125 -5.07812,-1.078125 -10.29687,-1.078125 -13.09375,0 -20.73438,7.609375 -7.64062,7.625 -7.64062,20.625 0,13.421875 7.25,21.296875 Q 367.91211,56 380.22461,56 q 11.03125,0 17.45312,-7.109375 6.42188,-7.09375 6.42188,-19.296875 z m -8.98438,2.640625 q -0.0937,7.359375 -4.125,11.75 -4.03125,4.40625 -10.67187,4.40625 -7.51563,0 -12.03125,-4.25 -4.51563,-4.25 -5.20313,-11.96875 z"
                   inkscape:connector-curvature="0"
                   style="stroke-linecap:butt;stroke-linejoin:round" />
                <path
                   id="use501"
                   d="m 461.41992,44.1875 q 3.375,6.0625 8.0625,8.9375 4.6875,2.875 11.03125,2.875 8.54688,0 13.1875,-5.984375 4.64063,-5.96875 4.64063,-17 V 0 h -9.03125 v 32.71875 q 0,7.859375 -2.79688,11.65625 -2.78125,3.8125 -8.48437,3.8125 -6.98438,0 -11.04688,-4.640625 -4.04687,-4.625 -4.04687,-12.640625 V 0 h -9.03125 v 32.71875 q 0,7.90625 -2.78125,11.6875 -2.78125,3.78125 -8.59375,3.78125 -6.89063,0 -10.95313,-4.65625 -4.04687,-4.65625 -4.04687,-12.625 V 0 h -9.03125 v 54.6875 h 9.03125 v -8.5 q 3.07812,5.03125 7.375,7.421875 Q 439.20117,56 445.10742,56 q 5.96875,0 10.14063,-3.03125 4.17187,-3.015625 6.17187,-8.78125 z"
                   inkscape:connector-curvature="0"
                   style="stroke-linecap:butt;stroke-linejoin:round" />
                <path
                   id="use503"
                   d="m 563.03516,29.59375 v -4.390625 h -41.3125 q 0.59375,-9.28125 5.59375,-14.140625 5,-4.859375 13.9375,-4.859375 5.17187,0 10.03125,1.265625 4.85937,1.265625 9.65625,3.8125 v -8.5 q -4.84375,-2.046875 -9.92188,-3.125 -5.07812,-1.078125 -10.29687,-1.078125 -13.09375,0 -20.73438,7.609375 -7.64062,7.625 -7.64062,20.625 0,13.421875 7.25,21.296875 Q 526.84766,56 539.16016,56 q 11.03125,0 17.45312,-7.109375 6.42188,-7.09375 6.42188,-19.296875 z m -8.98438,2.640625 q -0.0937,7.359375 -4.125,11.75 -4.03125,4.40625 -10.67187,4.40625 -7.51563,0 -12.03125,-4.25 -4.51563,-4.25 -5.20313,-11.96875 z"
                   inkscape:connector-curvature="0"
                   style="stroke-linecap:butt;stroke-linejoin:round" />
                <path
                   id="use505"
                   d="M 623.24609,33.015625 V 0 h -8.98437 v 32.71875 q 0,7.765625 -3.03125,11.609375 -3.03125,3.859375 -9.07813,3.859375 -7.28125,0 -11.48437,-4.640625 -4.20313,-4.625 -4.20313,-12.640625 V 0 h -9.03125 v 54.6875 h 9.03125 v -8.5 q 3.23438,4.9375 7.59375,7.375 4.375,2.4375 10.09375,2.4375 9.42188,0 14.25,-5.828125 4.84375,-5.828125 4.84375,-17.15625 z"
                   inkscape:connector-curvature="0"
                   style="stroke-linecap:butt;stroke-linejoin:round" />
                <path
                   id="use507"
                   d="M 650.04687,70.21875 V 54.6875 h 18.5 v -6.984375 h -18.5 v -29.6875 q 0,-6.6875 1.82813,-8.59375 1.82812,-1.90625 7.45312,-1.90625 h 9.21875 V 0 h -9.21875 q -10.40625,0 -14.35937,3.875 -3.95313,3.890625 -3.95313,14.140625 v 29.6875 h -6.59375 V 54.6875 h 6.59375 v 15.53125 z"
                   inkscape:connector-curvature="0"
                   style="stroke-linecap:butt;stroke-linejoin:round" />
                <path
                   id="use509"
                   d="m 715.22461,53.078125 v -8.5 q -3.79688,1.953125 -7.90625,2.921875 -4.09375,0.984375 -8.5,0.984375 -6.6875,0 -10.03125,-2.046875 -3.34375,-2.046875 -3.34375,-6.15625 0,-3.125 2.39062,-4.90625 2.39063,-1.78125 9.625,-3.390625 l 3.07813,-0.6875 q 9.5625,-2.046875 13.59375,-5.78125 4.03125,-3.734375 4.03125,-10.421875 0,-7.625 -6.03125,-12.078125 -6.03125,-4.4375 -16.57813,-4.4375 -4.39062,0 -9.15625,0.859375 Q 681.63086,0.296875 676.36523,2 v 9.28125 q 4.98438,-2.59375 9.8125,-3.890625 4.82813,-1.28125 9.57813,-1.28125 6.34375,0 9.75,2.171875 3.42187,2.171875 3.42187,6.125 0,3.65625 -2.46875,5.609375 -2.45312,1.953125 -10.8125,3.765625 l -3.125,0.734375 q -8.34375,1.75 -12.0625,5.390625 -3.70312,3.640625 -3.70312,9.984375 0,7.71875 5.46875,11.90625 Q 687.69336,56 697.75586,56 q 4.96875,0 9.35937,-0.734375 4.40625,-0.71875 8.10938,-2.1875 z"
                   inkscape:connector-curvature="0"
                   style="stroke-linecap:butt;stroke-linejoin:round" />
              </g>
            </g>
          </g>
          <g
             style="stroke-linecap:butt;stroke-linejoin:round"
             transform="translate(328.3228,-122.37851)"
             id="g1206">
            <g
               id="line2d_28"
               style="stroke-linecap:butt;stroke-linejoin:round"
               transform="translate(0,1.185)">
              <path
                 d="m 393.12387,180.70678 h 32"
                 style="fill:none;stroke:#52b9d4;stroke-width:3;stroke-linecap:butt;stroke-linejoin:round;stroke-dasharray:19.2, 4.8, 3, 4.8;stroke-dashoffset:0"
                 id="path514"
                 inkscape:connector-curvature="0" />
            </g>
            <g
               id="text_14"
               style="stroke-linecap:butt;stroke-linejoin:round">
              <!-- Plus extra memory -->
              <g
                 transform="matrix(0.16,0,0,-0.16,437.92387,186.30678)"
                 id="g555"
                 style="stroke-linecap:butt;stroke-linejoin:round">
                <defs
                   id="defs519">
                  <path
                     d="M 54.890625,54.6875 35.109375,28.078125 55.90625,0 H 45.3125 L 29.390625,21.484375 13.484375,0 H 2.875 L 24.125,28.609375 4.6875,54.6875 h 10.59375 l 14.5,-19.484375 14.5,19.484375 z"
                     id="DejaVuSans-120"
                     inkscape:connector-curvature="0"
                     style="stroke-linecap:butt;stroke-linejoin:round" />
                </defs>
                <use
                   xlink:href="#DejaVuSans-80"
                   id="use521"
                   style="stroke-linecap:butt;stroke-linejoin:round"
                   x="0"
                   y="0"
                   width="100%"
                   height="100%" />
                <use
                   x="60.302734"
                   xlink:href="#DejaVuSans-108"
                   id="use523"
                   style="stroke-linecap:butt;stroke-linejoin:round"
                   y="0"
                   width="100%"
                   height="100%" />
                <path
                   id="use525"
                   d="M 96.585937,21.578125 V 54.6875 h 8.984373 V 21.921875 q 0,-7.765625 3.01563,-11.65625 3.03125,-3.875 9.09375,-3.875 7.26562,0 11.48437,4.640625 4.23438,4.640625 4.23438,12.65625 v 31 h 8.98437 V 0 h -8.98437 V 8.40625 Q 130.13281,3.421875 125.80469,1 q -4.3125,-2.421875 -10.03125,-2.421875 -9.42188,0 -14.3125,5.859375 -4.875003,5.859375 -4.875003,17.140625 z M 119.19531,56 Z"
                   inkscape:connector-curvature="0"
                   style="stroke-linecap:butt;stroke-linejoin:round" />
                <path
                   id="use527"
                   d="m 195.74609,53.078125 v -8.5 q -3.79687,1.953125 -7.90625,2.921875 -4.09375,0.984375 -8.5,0.984375 -6.6875,0 -10.03125,-2.046875 -3.34375,-2.046875 -3.34375,-6.15625 0,-3.125 2.39063,-4.90625 2.39062,-1.78125 9.625,-3.390625 l 3.07812,-0.6875 q 9.5625,-2.046875 13.59375,-5.78125 4.03125,-3.734375 4.03125,-10.421875 0,-7.625 -6.03125,-12.078125 -6.03125,-4.4375 -16.57812,-4.4375 -4.39063,0 -9.15625,0.859375 Q 162.15234,0.296875 156.88672,2 v 9.28125 q 4.98437,-2.59375 9.8125,-3.890625 4.82812,-1.28125 9.57812,-1.28125 6.34375,0 9.75,2.171875 3.42188,2.171875 3.42188,6.125 0,3.65625 -2.46875,5.609375 -2.45313,1.953125 -10.8125,3.765625 l -3.125,0.734375 q -8.34375,1.75 -12.0625,5.390625 -3.70313,3.640625 -3.70313,9.984375 0,7.71875 5.46875,11.90625 Q 168.21484,56 178.27734,56 q 4.96875,0 9.35938,-0.734375 4.40625,-0.71875 8.10937,-2.1875 z"
                   inkscape:connector-curvature="0"
                   style="stroke-linecap:butt;stroke-linejoin:round" />
                <path
                   id="use529"
                   d=""
                   inkscape:connector-curvature="0"
                   style="stroke-linecap:butt;stroke-linejoin:round" />
                <path
                   id="use531"
                   d="m 291.55469,29.59375 v -4.390625 h -41.3125 q 0.59375,-9.28125 5.59375,-14.140625 5,-4.859375 13.9375,-4.859375 5.17187,0 10.03125,1.265625 4.85937,1.265625 9.65625,3.8125 v -8.5 q -4.84375,-2.046875 -9.92188,-3.125 -5.07812,-1.078125 -10.29687,-1.078125 -13.09375,0 -20.73438,7.609375 -7.64062,7.625 -7.64062,20.625 0,13.421875 7.25,21.296875 Q 255.36719,56 267.67969,56 q 11.03125,0 17.45312,-7.109375 6.42188,-7.09375 6.42188,-19.296875 z m -8.98438,2.640625 q -0.0937,7.359375 -4.125,11.75 -4.03125,4.40625 -10.67187,4.40625 -7.51563,0 -12.03125,-4.25 -4.51563,-4.25 -5.20313,-11.96875 z"
                   inkscape:connector-curvature="0"
                   style="stroke-linecap:butt;stroke-linejoin:round" />
                <use
                   x="295.125"
                   xlink:href="#DejaVuSans-120"
                   id="use533"
                   style="stroke-linecap:butt;stroke-linejoin:round"
                   y="0"
                   width="100%"
                   height="100%" />
                <path
                   id="use535"
                   d="M 372.61719,70.21875 V 54.6875 h 18.5 v -6.984375 h -18.5 v -29.6875 q 0,-6.6875 1.82812,-8.59375 1.82813,-1.90625 7.45313,-1.90625 h 9.21875 V 0 h -9.21875 q -10.40625,0 -14.35938,3.875 -3.95312,3.890625 -3.95312,14.140625 v 29.6875 h -6.59375 V 54.6875 h 6.59375 v 15.53125 z"
                   inkscape:connector-curvature="0"
                   style="stroke-linecap:butt;stroke-linejoin:round" />
                <path
                   id="use537"
                   d="m 434.62305,46.296875 q -1.51563,0.875 -3.29688,1.28125 Q 429.54492,48 427.4043,48 419.7793,48 415.70117,43.046875 411.62305,38.09375 411.62305,28.8125 V 0 h -9.03125 v 54.6875 h 9.03125 v -8.5 q 2.84375,4.984375 7.375,7.390625 Q 423.54492,56 430.04492,56 q 0.92188,0 2.04688,-0.125 1.125,-0.109375 2.48437,-0.359375 z"
                   inkscape:connector-curvature="0"
                   style="stroke-linecap:butt;stroke-linejoin:round" />
                <path
                   id="use539"
                   d="m 468.9082,27.484375 q -10.89062,0 -15.09375,-2.484375 -4.20312,-2.484375 -4.20312,-8.5 0,-4.78125 3.15625,-7.59375 3.15625,-2.796875 8.5625,-2.796875 7.48437,0 12,5.296875 4.51562,5.296875 4.51562,14.078125 v 2 z m 17.92188,3.71875 V 0 h -8.98438 v 8.296875 q -3.07812,-4.96875 -7.67187,-7.34375 -4.59375,-2.375 -11.23438,-2.375 -8.39062,0 -13.35937,4.71875 -4.95313,4.71875 -4.95313,12.625 0,9.21875 6.17188,13.90625 6.1875,4.6875 18.4375,4.6875 h 12.60937 v 0.890625 q 0,6.203125 -4.07812,9.59375 -4.07813,3.390625 -11.45313,3.390625 -4.6875,0 -9.14062,-1.125 -4.4375,-1.125 -8.53125,-3.375 v 8.3125 q 4.92187,1.90625 9.5625,2.84375 Q 458.8457,56 463.23633,56 q 11.875,0 17.73437,-6.15625 5.85938,-6.140625 5.85938,-18.640625 z"
                   inkscape:connector-curvature="0"
                   style="stroke-linecap:butt;stroke-linejoin:round" />
                <path
                   id="use541"
                   d=""
                   inkscape:connector-curvature="0"
                   style="stroke-linecap:butt;stroke-linejoin:round" />
                <path
                   id="use543"
                   d="m 579.69336,44.1875 q 3.375,6.0625 8.0625,8.9375 4.6875,2.875 11.03125,2.875 8.54687,0 13.1875,-5.984375 4.64062,-5.96875 4.64062,-17 V 0 h -9.03125 v 32.71875 q 0,7.859375 -2.79687,11.65625 -2.78125,3.8125 -8.48438,3.8125 -6.98437,0 -11.04687,-4.640625 -4.04688,-4.625 -4.04688,-12.640625 V 0 h -9.03125 v 32.71875 q 0,7.90625 -2.78125,11.6875 -2.78125,3.78125 -8.59375,3.78125 -6.89062,0 -10.95312,-4.65625 -4.04688,-4.65625 -4.04688,-12.625 V 0 h -9.03125 v 54.6875 h 9.03125 v -8.5 q 3.07813,5.03125 7.375,7.421875 Q 557.47461,56 563.38086,56 q 5.96875,0 10.14062,-3.03125 4.17188,-3.015625 6.17188,-8.78125 z"
                   inkscape:connector-curvature="0"
                   style="stroke-linecap:butt;stroke-linejoin:round" />
                <path
                   id="use545"
                   d="m 681.30859,29.59375 v -4.390625 h -41.3125 q 0.59375,-9.28125 5.59375,-14.140625 5,-4.859375 13.9375,-4.859375 5.17188,0 10.03125,1.265625 4.85938,1.265625 9.65625,3.8125 v -8.5 q -4.84375,-2.046875 -9.92187,-3.125 -5.07813,-1.078125 -10.29688,-1.078125 -13.09375,0 -20.73437,7.609375 -7.64063,7.625 -7.64063,20.625 0,13.421875 7.25,21.296875 Q 645.12109,56 657.43359,56 q 11.03125,0 17.45313,-7.109375 6.42187,-7.09375 6.42187,-19.296875 z m -8.98437,2.640625 q -0.0937,7.359375 -4.125,11.75 -4.03125,4.40625 -10.67188,4.40625 -7.51562,0 -12.03125,-4.25 -4.51562,-4.25 -5.20312,-11.96875 z"
                   inkscape:connector-curvature="0"
                   style="stroke-linecap:butt;stroke-linejoin:round" />
                <path
                   id="use547"
                   d="m 738.62891,44.1875 q 3.375,6.0625 8.0625,8.9375 4.6875,2.875 11.03125,2.875 8.54687,0 13.1875,-5.984375 4.64062,-5.96875 4.64062,-17 V 0 h -9.03125 v 32.71875 q 0,7.859375 -2.79687,11.65625 -2.78125,3.8125 -8.48438,3.8125 -6.98437,0 -11.04687,-4.640625 -4.04688,-4.625 -4.04688,-12.640625 V 0 h -9.03125 v 32.71875 q 0,7.90625 -2.78125,11.6875 -2.78125,3.78125 -8.59375,3.78125 -6.89062,0 -10.95312,-4.65625 -4.04688,-4.65625 -4.04688,-12.625 V 0 h -9.03125 v 54.6875 h 9.03125 v -8.5 q 3.07813,5.03125 7.375,7.421875 Q 716.41016,56 722.31641,56 q 5.96875,0 10.14062,-3.03125 4.17188,-3.015625 6.17188,-8.78125 z"
                   inkscape:connector-curvature="0"
                   style="stroke-linecap:butt;stroke-linejoin:round" />
                <path
                   id="use549"
                   d="m 814.65039,48.390625 q -7.21875,0 -11.42187,-5.640625 -4.20313,-5.640625 -4.20313,-15.453125 0,-9.8125 4.17188,-15.453125 4.1875,-5.640625 11.45312,-5.640625 7.1875,0 11.375,5.65625 4.20313,5.671875 4.20313,15.4375 0,9.71875 -4.20313,15.40625 -4.1875,5.6875 -11.375,5.6875 z m 0,7.609375 q 11.71875,0 18.40625,-7.625 6.70313,-7.609375 6.70313,-21.078125 0,-13.421875 -6.70313,-21.078125 -6.6875,-7.640625 -18.40625,-7.640625 -11.76562,0 -18.4375,7.640625 -6.65625,7.65625 -6.65625,21.078125 0,13.46875 6.65625,21.078125 6.67188,7.625 18.4375,7.625 z"
                   inkscape:connector-curvature="0"
                   style="stroke-linecap:butt;stroke-linejoin:round" />
                <path
                   id="use551"
                   d="m 886.33203,46.296875 q -1.51562,0.875 -3.29687,1.28125 Q 881.25391,48 879.11328,48 871.48828,48 867.41016,43.046875 863.33203,38.09375 863.33203,28.8125 V 0 h -9.03125 v 54.6875 h 9.03125 v -8.5 q 2.84375,4.984375 7.375,7.390625 Q 875.25391,56 881.75391,56 q 0.92187,0 2.04687,-0.125 1.125,-0.109375 2.48438,-0.359375 z"
                   inkscape:connector-curvature="0"
                   style="stroke-linecap:butt;stroke-linejoin:round" />
                <path
                   id="use553"
                   d="m 918.50781,-5.078125 q -3.79687,-9.765625 -7.42187,-12.734375 -3.60938,-2.984375 -9.65625,-2.984375 h -7.1875 v 7.515625 h 5.28125 q 3.70312,0 5.75,1.765625 2.0625,1.75 4.54687,8.296875 l 1.60938,4.09375 -22.10938,53.8125 h 9.51563 L 915.92969,11.921875 933.02344,54.6875 h 9.51562 z"
                   inkscape:connector-curvature="0"
                   style="stroke-linecap:butt;stroke-linejoin:round" />
              </g>
            </g>
          </g>
        </g>
      </g>
    </g>
  </g>
  <defs
     id="defs630">
    <clipPath
       id="p5427d26bba"
       style="stroke-linecap:butt;stroke-linejoin:round">
      <rect
         height="165.46445"
         width="281.1275"
         x="83.540001"
         y="46.01556"
         id="rect627"
         style="stroke-linecap:butt;stroke-linejoin:round" />
    </clipPath>
  </defs>
</svg>
