<svg version="1.1" xmlns="http://www.w3.org/2000/svg" xmlns:xlink="http://www.w3.org/1999/xlink" width="1445.16455078125" height="609"><defs/><g><g transform="translate(-94,-326) scale(1,1)"><path fill="none" stroke="#000000" d="M 1476 727 L 1441 618" stroke-miterlimit="10"/></g><g transform="translate(-94,-326) scale(1,1)"><path fill="#FFFFFF" stroke="none" d="M 1455.2299233599626 634.7782383213969 L 1441 618 L 1439.1980692101706 639.9260813970182"/></g><g transform="translate(-94,-326) scale(1,1)"><path fill="none" stroke="#000000" d="M 1455.2299233599626 634.7782383213969 L 1441 618 L 1439.1980692101706 639.9260813970182 L 1455.2299233599626 634.7782383213969" stroke-miterlimit="10"/></g><g transform="translate(-94,-326) scale(1,1)"><path fill="none" stroke="#000000" d="M 1168 453 L 860 369" stroke-miterlimit="10"/></g><g transform="translate(-94,-326) scale(1,1)"><path fill="#FFFFFF" stroke="none" d="M 870.9121784212368 367.6127862085847 L 860 369 L 868.6969836380393 375.7351670803088 L 881.2248040672301 374.7885829274264"/></g><g transform="translate(-94,-326) scale(1,1)"><path fill="none" stroke="#000000" d="M 870.9121784212368 367.6127862085847 L 860 369 L 868.6969836380393 375.7351670803088 L 881.2248040672301 374.7885829274264 L 870.9121784212368 367.6127862085847" stroke-miterlimit="10"/></g><g transform="translate(-94,-326) scale(1,1)"><path fill="none" stroke="#000000" d="M 1386 727 L 1421 618" stroke-miterlimit="10"/></g><g transform="translate(-94,-326) scale(1,1)"><path fill="#FFFFFF" stroke="none" d="M 1422.8019307898294 639.9260813970182 L 1421 618 L 1406.7700766400374 634.7782383213969"/></g><g transform="translate(-94,-326) scale(1,1)"><path fill="none" stroke="#000000" d="M 1422.8019307898294 639.9260813970182 L 1421 618 L 1406.7700766400374 634.7782383213969 L 1422.8019307898294 639.9260813970182" stroke-miterlimit="10"/></g><g transform="translate(-94,-326) scale(1,1)"><path fill="none" stroke="#000000" d="M 1466 663 L 1445 618" stroke-miterlimit="10"/></g><g transform="translate(-94,-326) scale(1,1)"><path fill="#FFFFFF" stroke="none" d="M 1461.2244830083755 632.8582014763207 L 1445 618 L 1445.9661069363258 639.9787769766104"/></g><g transform="translate(-94,-326) scale(1,1)"><path fill="none" stroke="#000000" d="M 1461.2244830083755 632.8582014763207 L 1445 618 L 1445.9661069363258 639.9787769766104 L 1461.2244830083755 632.8582014763207" stroke-miterlimit="10"/></g><g transform="translate(-94,-326) scale(1,1)"><path fill="none" stroke="#000000" d="M 963 415 L 860 374" stroke-miterlimit="10"/></g><g transform="translate(-94,-326) scale(1,1)"><path fill="#000000" stroke="none" d="M 870.9989422880345 373.8474596955373 L 860 374 L 867.8852889614386 381.66956439405885 L 880.4401446129476 382.13636824398884"/></g><g transform="translate(-94,-326) scale(1,1)"><path fill="none" stroke="#000000" d="M 870.9989422880345 373.8474596955373 L 860 374 L 867.8852889614386 381.66956439405885 L 880.4401446129476 382.13636824398884 L 870.9989422880345 373.8474596955373" stroke-miterlimit="10"/></g><g transform="translate(-94,-326) scale(1,1)"><path fill="none" stroke="#000000" d="M 899 839 L 1004 722" stroke-miterlimit="10"/></g><g transform="translate(-94,-326) scale(1,1)"><path fill="#FFFFFF" stroke="none" d="M 996.6903031361371 742.7501405238238 L 1004 722 L 984.158698704175 731.5038288541141"/></g><g transform="translate(-94,-326) scale(1,1)"><path fill="none" stroke="#000000" d="M 996.6903031361371 742.7501405238238 L 1004 722 L 984.158698704175 731.5038288541141 L 996.6903031361371 742.7501405238238" stroke-miterlimit="10"/></g><g transform="translate(-94,-326) scale(1,1)"><rect fill="#C0C0C0" stroke="none" x="791" y="343" width="75.447265625" height="44" opacity="0.2"/></g><g transform="translate(-94,-326) scale(1,1)"><rect fill="#ffffff" stroke="none" x="784" y="336" width="75.447265625" height="44"/></g><g transform="translate(-94,-326) scale(1,1)"><path fill="none" stroke="#000000" d="M 784 336 L 859.447265625 336 L 859.447265625 380 L 784 380 L 784 336 Z Z" stroke-miterlimit="10"/></g><g transform="translate(-94,-326) scale(1,1)"><path fill="none" stroke="#000000" d="M 784 361 L 859.447265625 361" stroke-miterlimit="10"/></g><g transform="translate(-94,-326) scale(1,1)"><path fill="none" stroke="#000000" d="M 784 371 L 859.447265625 371" stroke-miterlimit="10"/></g><g transform="translate(-94,-326) scale(1,1)"><g><path fill="none" stroke="none"/><text fill="#000000" stroke="none" font-family="Arial" font-size="13px" font-style="normal" font-weight="bold" text-decoration="none" x="791.37548828125" y="355.5">Simulation</text></g></g><g transform="translate(-94,-326) scale(1,1)"><rect fill="#C0C0C0" stroke="none" x="972" y="567" width="132.1953125" height="74" opacity="0.2"/></g><g transform="translate(-94,-326) scale(1,1)"><rect fill="#ffffff" stroke="none" x="965" y="560" width="132.1953125" height="74"/></g><g transform="translate(-94,-326) scale(1,1)"><path fill="none" stroke="#000000" d="M 965 560 L 1097.1953125 560 L 1097.1953125 634 L 965 634 L 965 560 Z Z" stroke-miterlimit="10"/></g><g transform="translate(-94,-326) scale(1,1)"><path fill="none" stroke="#000000" d="M 965 585 L 1097.1953125 585" stroke-miterlimit="10"/></g><g transform="translate(-94,-326) scale(1,1)"><path fill="none" stroke="#000000" d="M 965 595 L 1097.1953125 595" stroke-miterlimit="10"/></g><g transform="translate(-94,-326) scale(1,1)"><g><path fill="none" stroke="none"/><text fill="#000000" stroke="none" font-family="Arial" font-size="13px" font-style="normal" font-weight="bold" text-decoration="none" x="1014.111328125" y="579.5">Agent</text></g></g><g transform="translate(-94,-326) scale(1,1)"><g><path fill="none" stroke="none"/><text fill="#000000" stroke="none" font-family="Arial" font-size="13px" font-style="normal" font-weight="normal" text-decoration="none" x="970" y="614.5">+AddBehavior(b)</text></g></g><g transform="translate(-94,-326) scale(1,1)"><g><path fill="none" stroke="none"/><text fill="#000000" stroke="none" font-family="Arial" font-size="13px" font-style="normal" font-weight="normal" text-decoration="none" x="970" y="629.5">+RemoveBehavior(b)</text></g></g><g transform="translate(-94,-326) scale(1,1)"><rect fill="#C0C0C0" stroke="none" x="247" y="423" width="127.1298828125" height="100" opacity="0.2"/></g><g transform="translate(-94,-326) scale(1,1)"><rect fill="#ffffff" stroke="none" x="240" y="416" width="127.1298828125" height="100"/></g><g transform="translate(-94,-326) scale(1,1)"><path fill="none" stroke="#000000" d="M 240 416 L 367.1298828125 416 L 367.1298828125 516 L 240 516 L 240 416 Z Z" stroke-miterlimit="10"/></g><g transform="translate(-94,-326) scale(1,1)"><path fill="none" stroke="#000000" d="M 240 441 L 367.1298828125 441" stroke-miterlimit="10"/></g><g transform="translate(-94,-326) scale(1,1)"><path fill="none" stroke="#000000" d="M 240 494 L 367.1298828125 494" stroke-miterlimit="10"/></g><g transform="translate(-94,-326) scale(1,1)"><g><path fill="none" stroke="none"/><text fill="#000000" stroke="none" font-family="Arial" font-size="13px" font-style="normal" font-weight="bold" text-decoration="none" x="284.42041015625" y="435.5">Param</text></g></g><g transform="translate(-94,-326) scale(1,1)"><g><path fill="none" stroke="none"/><text fill="#000000" stroke="none" font-family="Arial" font-size="13px" font-style="normal" font-weight="normal" text-decoration="none" x="245" y="458.5">+core_param1</text></g></g><g transform="translate(-94,-326) scale(1,1)"><g><path fill="none" stroke="none"/><text fill="#000000" stroke="none" font-family="Arial" font-size="13px" font-style="normal" font-weight="normal" text-decoration="none" x="245" y="473.5">+core_param2</text></g></g><g transform="translate(-94,-326) scale(1,1)"><g><path fill="none" stroke="none"/><text fill="#000000" stroke="none" font-family="Arial" font-size="13px" font-style="normal" font-weight="normal" text-decoration="none" x="245" y="488.5">+...</text></g></g><g transform="translate(-94,-326) scale(1,1)"><g><path fill="none" stroke="none"/><text fill="#000000" stroke="none" font-family="Arial" font-size="13px" font-style="normal" font-weight="normal" text-decoration="none" x="245" y="511.5">+Get()</text></g></g><g transform="translate(-94,-326) scale(1,1)"><rect fill="#C0C0C0" stroke="none" x="582" y="567" width="114.1171875" height="57" opacity="0.2"/></g><g transform="translate(-94,-326) scale(1,1)"><rect fill="#ffffff" stroke="none" x="575" y="560" width="114.1171875" height="57"/></g><g transform="translate(-94,-326) scale(1,1)"><path fill="none" stroke="#000000" d="M 575 560 L 689.1171875 560 L 689.1171875 617 L 575 617 L 575 560 Z Z" stroke-miterlimit="10"/></g><g transform="translate(-94,-326) scale(1,1)"><path fill="none" stroke="#000000" d="M 575 585 L 689.1171875 585" stroke-miterlimit="10"/></g><g transform="translate(-94,-326) scale(1,1)"><path fill="none" stroke="#000000" d="M 575 595 L 689.1171875 595" stroke-miterlimit="10"/></g><g transform="translate(-94,-326) scale(1,1)"><g><path fill="none" stroke="none"/><text fill="#000000" stroke="none" font-family="Arial" font-size="13px" font-style="normal" font-weight="bold" text-decoration="none" x="606.404541015625" y="579.5">Behavior</text></g></g><g transform="translate(-94,-326) scale(1,1)"><g><path fill="none" stroke="none"/><text fill="#000000" stroke="none" font-family="Arial" font-size="13px" font-style="normal" font-weight="normal" text-decoration="none" x="580" y="612.5">+Run(agent)</text></g></g><g transform="translate(-94,-326) scale(1,1)"><rect fill="#C0C0C0" stroke="none" x="233" y="567" width="94.24267578125" height="44" opacity="0.2"/></g><g transform="translate(-94,-326) scale(1,1)"><rect fill="#ffffff" stroke="none" x="226" y="560" width="94.24267578125" height="44"/></g><g transform="translate(-94,-326) scale(1,1)"><path fill="none" stroke="#000000" d="M 226 560 L 320.24267578125 560 L 320.24267578125 604 L 226 604 L 226 560 Z Z" stroke-miterlimit="10"/></g><g transform="translate(-94,-326) scale(1,1)"><path fill="none" stroke="#000000" d="M 226 585 L 320.24267578125 585" stroke-miterlimit="10"/></g><g transform="translate(-94,-326) scale(1,1)"><path fill="none" stroke="#000000" d="M 226 595 L 320.24267578125 595" stroke-miterlimit="10"/></g><g transform="translate(-94,-326) scale(1,1)"><g><path fill="none" stroke="none"/><text fill="#000000" stroke="none" font-family="Arial" font-size="13px" font-style="normal" font-weight="bold" text-decoration="none" x="235.911376953125" y="579.5">ParamGroup</text></g></g><g transform="translate(-94,-326) scale(1,1)"><path fill="none" stroke="#000000" d="M 302 663 L 281 605" stroke-miterlimit="10"/></g><g transform="translate(-94,-326) scale(1,1)"><path fill="#FFFFFF" stroke="none" d="M 295.8357156632393 621.2450466530422 L 281 605 L 280.00345250017403 626.9774177982899"/></g><g transform="translate(-94,-326) scale(1,1)"><path fill="none" stroke="#000000" d="M 295.8357156632393 621.2450466530422 L 281 605 L 280.00345250017403 626.9774177982899 L 295.8357156632393 621.2450466530422" stroke-miterlimit="10"/></g><g transform="translate(-94,-326) scale(1,1)"><rect fill="#C0C0C0" stroke="none" x="359" y="567" width="166.89794921875" height="87" opacity="0.2"/></g><g transform="translate(-94,-326) scale(1,1)"><rect fill="#ffffff" stroke="none" x="352" y="560" width="166.89794921875" height="87"/></g><g transform="translate(-94,-326) scale(1,1)"><path fill="none" stroke="#000000" d="M 352 560 L 518.89794921875 560 L 518.89794921875 647 L 352 647 L 352 560 Z Z" stroke-miterlimit="10"/></g><g transform="translate(-94,-326) scale(1,1)"><path fill="none" stroke="#000000" d="M 352 585 L 518.89794921875 585" stroke-miterlimit="10"/></g><g transform="translate(-94,-326) scale(1,1)"><path fill="none" stroke="#000000" d="M 352 595 L 518.89794921875 595" stroke-miterlimit="10"/></g><g transform="translate(-94,-326) scale(1,1)"><g><path fill="none" stroke="none"/><text fill="#000000" stroke="none" font-family="Arial" font-size="13px" font-style="normal" font-weight="bold" text-decoration="none" x="397.997802734375" y="579.5">DiffusionGrid</text></g></g><g transform="translate(-94,-326) scale(1,1)"><g><path fill="none" stroke="none"/><text fill="#000000" stroke="none" font-family="Arial" font-size="13px" font-style="normal" font-weight="normal" text-decoration="none" x="357" y="612.5">+GetConcentration(pos)</text></g></g><g transform="translate(-94,-326) scale(1,1)"><g><path fill="none" stroke="none"/><text fill="#000000" stroke="none" font-family="Arial" font-size="13px" font-style="normal" font-weight="normal" text-decoration="none" x="357" y="627.5">+GetGradient(pos)</text></g></g><g transform="translate(-94,-326) scale(1,1)"><g><path fill="none" stroke="none"/><text fill="#000000" stroke="none" font-family="Arial" font-size="13px" font-style="normal" font-weight="normal" text-decoration="none" x="357" y="642.5">+ChangeConcentrationBy()</text></g></g><g transform="translate(-94,-326) scale(1,1)"><rect fill="#C0C0C0" stroke="none" x="994" y="671" width="89.57080078125" height="57" opacity="0.2"/></g><g transform="translate(-94,-326) scale(1,1)"><rect fill="#ffffff" stroke="none" x="987" y="664" width="89.57080078125" height="57"/></g><g transform="translate(-94,-326) scale(1,1)"><path fill="none" stroke="#000000" d="M 987 664 L 1076.57080078125 664 L 1076.57080078125 721 L 987 721 L 987 664 Z Z" stroke-miterlimit="10"/></g><g transform="translate(-94,-326) scale(1,1)"><path fill="none" stroke="#000000" d="M 987 689 L 1076.57080078125 689" stroke-miterlimit="10"/></g><g transform="translate(-94,-326) scale(1,1)"><path fill="none" stroke="#000000" d="M 987 699 L 1076.57080078125 699" stroke-miterlimit="10"/></g><g transform="translate(-94,-326) scale(1,1)"><g><path fill="none" stroke="none"/><text fill="#000000" stroke="none" font-family="Arial" font-size="13px" font-style="normal" font-weight="bold" text-decoration="none" x="1020.588134765625" y="683.5">Cell</text></g></g><g transform="translate(-94,-326) scale(1,1)"><g><path fill="none" stroke="none"/><text fill="#000000" stroke="none" font-family="Arial" font-size="13px" font-style="normal" font-weight="normal" text-decoration="none" x="992" y="716.5">+Divide()</text></g></g><g transform="translate(-94,-326) scale(1,1)"><path fill="none" stroke="#000000" d="M 1031 663 L 1031 635" stroke-miterlimit="10"/></g><g transform="translate(-94,-326) scale(1,1)"><path fill="#FFFFFF" stroke="none" d="M 1039.419035512032 655.3253497152483 L 1031 635 L 1022.580964487968 655.3253497152483"/></g><g transform="translate(-94,-326) scale(1,1)"><path fill="none" stroke="#000000" d="M 1039.419035512032 655.3253497152483 L 1031 635 L 1022.580964487968 655.3253497152483 L 1039.419035512032 655.3253497152483" stroke-miterlimit="10"/></g><g transform="translate(-94,-326) scale(1,1)"><rect fill="#C0C0C0" stroke="none" x="1152" y="671" width="148.826171875" height="102" opacity="0.2"/></g><g transform="translate(-94,-326) scale(1,1)"><rect fill="#6dff6d" stroke="none" x="1145" y="664" width="148.826171875" height="102"/></g><g transform="translate(-94,-326) scale(1,1)"><path fill="none" stroke="#000000" d="M 1145 664 L 1293.826171875 664 L 1293.826171875 766 L 1145 766 L 1145 664 Z Z" stroke-miterlimit="10"/></g><g transform="translate(-94,-326) scale(1,1)"><path fill="none" stroke="#000000" d="M 1145 689 L 1293.826171875 689" stroke-miterlimit="10"/></g><g transform="translate(-94,-326) scale(1,1)"><path fill="none" stroke="#000000" d="M 1145 699 L 1293.826171875 699" stroke-miterlimit="10"/></g><g transform="translate(-94,-326) scale(1,1)"><g><path fill="none" stroke="none"/><text fill="#000000" stroke="none" font-family="Arial" font-size="13px" font-style="normal" font-weight="bold" text-decoration="none" x="1174.614501953125" y="683.5">NeuriteElement</text></g></g><g transform="translate(-94,-326) scale(1,1)"><g><path fill="none" stroke="none"/><text fill="#000000" stroke="none" font-family="Arial" font-size="13px" font-style="normal" font-weight="normal" text-decoration="none" x="1150" y="716.5">+Branch()</text></g></g><g transform="translate(-94,-326) scale(1,1)"><g><path fill="none" stroke="none"/><text fill="#000000" stroke="none" font-family="Arial" font-size="13px" font-style="normal" font-weight="normal" text-decoration="none" x="1150" y="731.5">+Bifurcate()</text></g></g><g transform="translate(-94,-326) scale(1,1)"><g><path fill="none" stroke="none"/><text fill="#000000" stroke="none" font-family="Arial" font-size="13px" font-style="normal" font-weight="normal" text-decoration="none" x="1150" y="746.5">+ElongateTerminalEnd()</text></g></g><g transform="translate(-94,-326) scale(1,1)"><g><path fill="none" stroke="none"/><text fill="#000000" stroke="none" font-family="Arial" font-size="13px" font-style="normal" font-weight="normal" text-decoration="none" x="1150" y="761.5">+RetractTerminalEnd()</text></g></g><g transform="translate(-94,-326) scale(1,1)"><path fill="none" stroke="#000000" d="M 1144 668 L 1092 635" stroke-miterlimit="10"/></g><g transform="translate(-94,-326) scale(1,1)"><path fill="#FFFFFF" stroke="none" d="M 1113.672415726405 638.7823797511458 L 1092 635 L 1104.650165753777 652.9992584958927"/></g><g transform="translate(-94,-326) scale(1,1)"><path fill="none" stroke="#000000" d="M 1113.672415726405 638.7823797511458 L 1092 635 L 1104.650165753777 652.9992584958927 L 1113.672415726405 638.7823797511458" stroke-miterlimit="10"/></g><g transform="translate(-94,-326) scale(1,1)"><rect fill="#C0C0C0" stroke="none" x="972" y="759" width="133.63623046875" height="57" opacity="0.2"/></g><g transform="translate(-94,-326) scale(1,1)"><rect fill="#6dff6d" stroke="none" x="965" y="752" width="133.63623046875" height="57"/></g><g transform="translate(-94,-326) scale(1,1)"><path fill="none" stroke="#000000" d="M 965 752 L 1098.63623046875 752 L 1098.63623046875 809 L 965 809 L 965 752 Z Z" stroke-miterlimit="10"/></g><g transform="translate(-94,-326) scale(1,1)"><path fill="none" stroke="#000000" d="M 965 777 L 1098.63623046875 777" stroke-miterlimit="10"/></g><g transform="translate(-94,-326) scale(1,1)"><path fill="none" stroke="#000000" d="M 965 787 L 1098.63623046875 787" stroke-miterlimit="10"/></g><g transform="translate(-94,-326) scale(1,1)"><g><path fill="none" stroke="none"/><text fill="#000000" stroke="none" font-family="Arial" font-size="13px" font-style="normal" font-weight="bold" text-decoration="none" x="993.884521484375" y="771.5">NeuriteSoma</text></g></g><g transform="translate(-94,-326) scale(1,1)"><g><path fill="none" stroke="none"/><text fill="#000000" stroke="none" font-family="Arial" font-size="13px" font-style="normal" font-weight="normal" text-decoration="none" x="970" y="804.5">+ExtendNewNeurite()</text></g></g><g transform="translate(-94,-326) scale(1,1)"><path fill="none" stroke="#000000" d="M 547 663 L 598 618" stroke-miterlimit="10"/></g><g transform="translate(-94,-326) scale(1,1)"><path fill="#FFFFFF" stroke="none" d="M 588.3294994181356 637.7606026855499 L 598 618 L 577.1890673018098 625.1347796203806"/></g><g transform="translate(-94,-326) scale(1,1)"><path fill="none" stroke="#000000" d="M 588.3294994181356 637.7606026855499 L 598 618 L 577.1890673018098 625.1347796203806 L 588.3294994181356 637.7606026855499" stroke-miterlimit="10"/></g><g transform="translate(-94,-326) scale(1,1)"><path fill="none" stroke="#000000" d="M 686 663 L 654 618" stroke-miterlimit="10"/></g><g transform="translate(-94,-326) scale(1,1)"><path fill="#FFFFFF" stroke="none" d="M 672.6401614443358 629.6852206367315 L 654 618 L 658.917885807808 639.4432833115958"/></g><g transform="translate(-94,-326) scale(1,1)"><path fill="none" stroke="#000000" d="M 672.6401614443358 629.6852206367315 L 654 618 L 658.917885807808 639.4432833115958 L 672.6401614443358 629.6852206367315" stroke-miterlimit="10"/></g><g transform="translate(-94,-326) scale(1,1)"><path fill="none" stroke="#000000" d="M 611 663 L 624 618" stroke-miterlimit="10"/></g><g transform="translate(-94,-326) scale(1,1)"><path fill="#FFFFFF" stroke="none" d="M 626.4471963188215 639.8634679357403 L 624 618 L 610.2706226743168 635.1902355495502"/></g><g transform="translate(-94,-326) scale(1,1)"><path fill="none" stroke="#000000" d="M 626.4471963188215 639.8634679357403 L 624 618 L 610.2706226743168 635.1902355495502 L 626.4471963188215 639.8634679357403" stroke-miterlimit="10"/></g><g transform="translate(-94,-326) scale(1,1)"><path fill="none" stroke="#000000" d="M 632 871 L 632 618" stroke-miterlimit="10"/></g><g transform="translate(-94,-326) scale(1,1)"><path fill="#FFFFFF" stroke="none" d="M 640.419035512032 638.3253497152483 L 632 618 L 623.580964487968 638.3253497152483"/></g><g transform="translate(-94,-326) scale(1,1)"><path fill="none" stroke="#000000" d="M 640.419035512032 638.3253497152483 L 632 618 L 623.580964487968 638.3253497152483 L 640.419035512032 638.3253497152483" stroke-miterlimit="10"/></g><g transform="translate(-94,-326) scale(1,1)"><path fill="none" stroke="#000000" d="M 182 663 L 247 605" stroke-miterlimit="10"/></g><g transform="translate(-94,-326) scale(1,1)"><path fill="#FFFFFF" stroke="none" d="M 237.43970675326767 624.8141563796313 L 247 605 L 226.22912747557564 612.2505761546316"/></g><g transform="translate(-94,-326) scale(1,1)"><path fill="none" stroke="#000000" d="M 237.43970675326767 624.8141563796313 L 247 605 L 226.22912747557564 612.2505761546316 L 237.43970675326767 624.8141563796313" stroke-miterlimit="10"/></g><g transform="translate(-94,-326) scale(1,1)"><rect fill="#C0C0C0" stroke="none" x="855" y="759" width="73.5126953125" height="57" opacity="0.2"/></g><g transform="translate(-94,-326) scale(1,1)"><rect fill="#ffaa56" stroke="none" x="848" y="752" width="73.5126953125" height="57"/></g><g transform="translate(-94,-326) scale(1,1)"><path fill="none" stroke="#000000" d="M 848 752 L 921.5126953125 752 L 921.5126953125 809 L 848 809 L 848 752 Z Z" stroke-miterlimit="10"/></g><g transform="translate(-94,-326) scale(1,1)"><path fill="none" stroke="#000000" d="M 848 777 L 921.5126953125 777" stroke-miterlimit="10"/></g><g transform="translate(-94,-326) scale(1,1)"><path fill="none" stroke="#000000" d="M 848 800 L 921.5126953125 800" stroke-miterlimit="10"/></g><g transform="translate(-94,-326) scale(1,1)"><g><path fill="none" stroke="none"/><text fill="#000000" stroke="none" font-family="Arial" font-size="13px" font-style="normal" font-weight="bold" text-decoration="none" x="864.161376953125" y="771.5">Person</text></g></g><g transform="translate(-94,-326) scale(1,1)"><g><path fill="none" stroke="none"/><text fill="#000000" stroke="none" font-family="Arial" font-size="13px" font-style="normal" font-weight="normal" text-decoration="none" x="853" y="794.5">+state_</text></g></g><g transform="translate(-94,-326) scale(1,1)"><rect fill="#C0C0C0" stroke="none" x="559" y="879" width="160.4423828125" height="44" opacity="0.2"/></g><g transform="translate(-94,-326) scale(1,1)"><rect fill="#ff5656" stroke="none" x="552" y="872" width="160.4423828125" height="44"/></g><g transform="translate(-94,-326) scale(1,1)"><path fill="none" stroke="#000000" d="M 552 872 L 712.4423828125 872 L 712.4423828125 916 L 552 916 L 552 872 Z Z" stroke-miterlimit="10"/></g><g transform="translate(-94,-326) scale(1,1)"><path fill="none" stroke="#000000" d="M 552 897 L 712.4423828125 897" stroke-miterlimit="10"/></g><g transform="translate(-94,-326) scale(1,1)"><path fill="none" stroke="#000000" d="M 552 907 L 712.4423828125 907" stroke-miterlimit="10"/></g><g transform="translate(-94,-326) scale(1,1)"><g><path fill="none" stroke="none"/><text fill="#000000" stroke="none" font-family="Arial" font-size="13px" font-style="normal" font-weight="bold" text-decoration="none" x="576.83154296875" y="891.5">TumorCellBehavior</text></g></g><g transform="translate(-94,-326) scale(1,1)"><rect fill="#C0C0C0" stroke="none" x="471" y="743" width="77.39599609375" height="44" opacity="0.2"/></g><g transform="translate(-94,-326) scale(1,1)"><rect fill="#ffaa56" stroke="none" x="464" y="736" width="77.39599609375" height="44"/></g><g transform="translate(-94,-326) scale(1,1)"><path fill="none" stroke="#000000" d="M 464 736 L 541.39599609375 736 L 541.39599609375 780 L 464 780 L 464 736 Z Z" stroke-miterlimit="10"/></g><g transform="translate(-94,-326) scale(1,1)"><path fill="none" stroke="#000000" d="M 464 761 L 541.39599609375 761" stroke-miterlimit="10"/></g><g transform="translate(-94,-326) scale(1,1)"><path fill="none" stroke="#000000" d="M 464 771 L 541.39599609375 771" stroke-miterlimit="10"/></g><g transform="translate(-94,-326) scale(1,1)"><g><path fill="none" stroke="none"/><text fill="#000000" stroke="none" font-family="Arial" font-size="13px" font-style="normal" font-weight="bold" text-decoration="none" x="478.126220703125" y="755.5">Infection</text></g></g><g transform="translate(-94,-326) scale(1,1)"><rect fill="#C0C0C0" stroke="none" x="968" y="847" width="141.38623046875" height="57" opacity="0.2"/></g><g transform="translate(-94,-326) scale(1,1)"><rect fill="#aa56ff" stroke="none" x="961" y="840" width="141.38623046875" height="57"/></g><g transform="translate(-94,-326) scale(1,1)"><path fill="none" stroke="#000000" d="M 961 840 L 1102.38623046875 840 L 1102.38623046875 897 L 961 897 L 961 840 Z Z" stroke-miterlimit="10"/></g><g transform="translate(-94,-326) scale(1,1)"><path fill="none" stroke="#000000" d="M 961 865 L 1102.38623046875 865" stroke-miterlimit="10"/></g><g transform="translate(-94,-326) scale(1,1)"><path fill="none" stroke="#000000" d="M 961 888 L 1102.38623046875 888" stroke-miterlimit="10"/></g><g transform="translate(-94,-326) scale(1,1)"><g><path fill="none" stroke="none"/><text fill="#000000" stroke="none" font-family="Arial" font-size="13px" font-style="normal" font-weight="bold" text-decoration="none" x="974.6181640625" y="859.5">PyramidalCellSoma</text></g></g><g transform="translate(-94,-326) scale(1,1)"><g><path fill="none" stroke="none"/><text fill="#000000" stroke="none" font-family="Arial" font-size="13px" font-style="normal" font-weight="normal" text-decoration="none" x="966" y="882.5">+swc_label_</text></g></g><g transform="translate(-94,-326) scale(1,1)"><path fill="none" stroke="#000000" d="M 1031 839 L 1031 810" stroke-miterlimit="10"/></g><g transform="translate(-94,-326) scale(1,1)"><path fill="#FFFFFF" stroke="none" d="M 1039.419035512032 830.3253497152483 L 1031 810 L 1022.580964487968 830.3253497152483"/></g><g transform="translate(-94,-326) scale(1,1)"><path fill="none" stroke="#000000" d="M 1039.419035512032 830.3253497152483 L 1031 810 L 1022.580964487968 830.3253497152483 L 1039.419035512032 830.3253497152483" stroke-miterlimit="10"/></g><g transform="translate(-94,-326) scale(1,1)"><rect fill="#C0C0C0" stroke="none" x="1126" y="847" width="200" height="59" opacity="0.2"/></g><g transform="translate(-94,-326) scale(1,1)"><rect fill="#aa56ff" stroke="none" x="1119" y="840" width="200" height="59"/></g><g transform="translate(-94,-326) scale(1,1)"><path fill="none" stroke="#000000" d="M 1119 840 L 1319 840 L 1319 899 L 1119 899 L 1119 840 Z Z" stroke-miterlimit="10"/></g><g transform="translate(-94,-326) scale(1,1)"><path fill="none" stroke="#000000" d="M 1119 865 L 1319 865" stroke-miterlimit="10"/></g><g transform="translate(-94,-326) scale(1,1)"><path fill="none" stroke="#000000" d="M 1119 890 L 1319 890" stroke-miterlimit="10"/></g><g transform="translate(-94,-326) scale(1,1)"><g><path fill="none" stroke="none"/><text fill="#000000" stroke="none" font-family="Arial" font-size="13px" font-style="normal" font-weight="bold" text-decoration="none" x="1134.1064453125" y="859.5">PyramidalCellNeuriteElement</text></g></g><g transform="translate(-94,-326) scale(1,1)"><g><path fill="none" stroke="none"/><text fill="#000000" stroke="none" font-family="Arial" font-size="13px" font-style="normal" font-weight="normal" text-decoration="none" x="1124" y="884.5">+its_soma_</text></g></g><g transform="translate(-94,-326) scale(1,1)"><path fill="none" stroke="#000000" d="M 1219 839 L 1219 767" stroke-miterlimit="10"/></g><g transform="translate(-94,-326) scale(1,1)"><path fill="#FFFFFF" stroke="none" d="M 1227.419035512032 787.3253497152483 L 1219 767 L 1210.580964487968 787.3253497152483"/></g><g transform="translate(-94,-326) scale(1,1)"><path fill="none" stroke="#000000" d="M 1227.419035512032 787.3253497152483 L 1219 767 L 1210.580964487968 787.3253497152483 L 1227.419035512032 787.3253497152483" stroke-miterlimit="10"/></g><g transform="translate(-94,-326) scale(1,1)"><path fill="none" stroke="#000000" d="M 520 735 L 609 618" stroke-miterlimit="10"/></g><g transform="translate(-94,-326) scale(1,1)"><path fill="#FFFFFF" stroke="none" d="M 603.3951707079952 639.2740661042379 L 609 618 L 589.993750794513 629.0798236059479"/></g><g transform="translate(-94,-326) scale(1,1)"><path fill="none" stroke="#000000" d="M 603.3951707079952 639.2740661042379 L 609 618 L 589.993750794513 629.0798236059479 L 603.3951707079952 639.2740661042379" stroke-miterlimit="10"/></g><g transform="translate(-94,-326) scale(1,1)"><path fill="none" stroke="#000000" d="M 598 735 L 625 618" stroke-miterlimit="10"/></g><g transform="translate(-94,-326) scale(1,1)"><path fill="#FFFFFF" stroke="none" d="M 628.6330859687138 639.6979419840669 L 625 618 L 612.2262178103853 635.9117416398373"/></g><g transform="translate(-94,-326) scale(1,1)"><path fill="none" stroke="#000000" d="M 628.6330859687138 639.6979419840669 L 625 618 L 612.2262178103853 635.9117416398373 L 628.6330859687138 639.6979419840669" stroke-miterlimit="10"/></g><g transform="translate(-94,-326) scale(1,1)"><path fill="none" stroke="#000000" d="M 693 735 L 644 618" stroke-miterlimit="10"/></g><g transform="translate(-94,-326) scale(1,1)"><path fill="#FFFFFF" stroke="none" d="M 659.6170759033323 633.4953844815016 L 644 618 L 644.0860488295887 639.9998317175138"/></g><g transform="translate(-94,-326) scale(1,1)"><path fill="none" stroke="#000000" d="M 659.6170759033323 633.4953844815016 L 644 618 L 644.0860488295887 639.9998317175138 L 659.6170759033323 633.4953844815016" stroke-miterlimit="10"/></g><g transform="translate(-94,-326) scale(1,1)"><rect fill="#C0C0C0" stroke="none" x="486" y="815" width="146.236328125" height="44" opacity="0.2"/></g><g transform="translate(-94,-326) scale(1,1)"><rect fill="#aa56ff" stroke="none" x="479" y="808" width="146.236328125" height="44"/></g><g transform="translate(-94,-326) scale(1,1)"><path fill="none" stroke="#000000" d="M 479 808 L 625.236328125 808 L 625.236328125 852 L 479 852 L 479 808 Z Z" stroke-miterlimit="10"/></g><g transform="translate(-94,-326) scale(1,1)"><path fill="none" stroke="#000000" d="M 479 833 L 625.236328125 833" stroke-miterlimit="10"/></g><g transform="translate(-94,-326) scale(1,1)"><path fill="none" stroke="#000000" d="M 479 843 L 625.236328125 843" stroke-miterlimit="10"/></g><g transform="translate(-94,-326) scale(1,1)"><g><path fill="none" stroke="none"/><text fill="#000000" stroke="none" font-family="Arial" font-size="13px" font-style="normal" font-weight="bold" text-decoration="none" x="488.8955078125" y="827.5">ApicalDendriteGrowth</text></g></g><g transform="translate(-94,-326) scale(1,1)"><path fill="none" stroke="#000000" d="M 560 807 L 622 618" stroke-miterlimit="10"/></g><g transform="translate(-94,-326) scale(1,1)"><path fill="#FFFFFF" stroke="none" d="M 623.6642039933137 639.9369648098509 L 622 618 L 607.6649933532535 634.6885465046461"/></g><g transform="translate(-94,-326) scale(1,1)"><path fill="none" stroke="#000000" d="M 623.6642039933137 639.9369648098509 L 622 618 L 607.6649933532535 634.6885465046461 L 623.6642039933137 639.9369648098509" stroke-miterlimit="10"/></g><g transform="translate(-94,-326) scale(1,1)"><rect fill="#C0C0C0" stroke="none" x="646" y="815" width="141.91357421875" height="44" opacity="0.2"/></g><g transform="translate(-94,-326) scale(1,1)"><rect fill="#aa56ff" stroke="none" x="639" y="808" width="141.91357421875" height="44"/></g><g transform="translate(-94,-326) scale(1,1)"><path fill="none" stroke="#000000" d="M 639 808 L 780.91357421875 808 L 780.91357421875 852 L 639 852 L 639 808 Z Z" stroke-miterlimit="10"/></g><g transform="translate(-94,-326) scale(1,1)"><path fill="none" stroke="#000000" d="M 639 833 L 780.91357421875 833" stroke-miterlimit="10"/></g><g transform="translate(-94,-326) scale(1,1)"><path fill="none" stroke="#000000" d="M 639 843 L 780.91357421875 843" stroke-miterlimit="10"/></g><g transform="translate(-94,-326) scale(1,1)"><g><path fill="none" stroke="none"/><text fill="#000000" stroke="none" font-family="Arial" font-size="13px" font-style="normal" font-weight="bold" text-decoration="none" x="648.17822265625" y="827.5">BasalDendriteGrowth</text></g></g><g transform="translate(-94,-326) scale(1,1)"><path fill="none" stroke="#000000" d="M 702 807 L 642 618" stroke-miterlimit="10"/></g><g transform="translate(-94,-326) scale(1,1)"><path fill="#FFFFFF" stroke="none" d="M 656.1744137355813 634.8251595907012 L 642 618 L 640.1256396306426 639.920008512904"/></g><g transform="translate(-94,-326) scale(1,1)"><path fill="none" stroke="#000000" d="M 656.1744137355813 634.8251595907012 L 642 618 L 640.1256396306426 639.920008512904 L 656.1744137355813 634.8251595907012" stroke-miterlimit="10"/></g><g transform="translate(-94,-326) scale(1,1)"><rect fill="#C0C0C0" stroke="none" x="487" y="671" width="82.68994140625" height="44" opacity="0.2"/></g><g transform="translate(-94,-326) scale(1,1)"><rect fill="#ffffff" stroke="none" x="480" y="664" width="82.68994140625" height="44"/></g><g transform="translate(-94,-326) scale(1,1)"><path fill="none" stroke="#000000" d="M 480 664 L 562.68994140625 664 L 562.68994140625 708 L 480 708 L 480 664 Z Z" stroke-miterlimit="10"/></g><g transform="translate(-94,-326) scale(1,1)"><path fill="none" stroke="#000000" d="M 480 689 L 562.68994140625 689" stroke-miterlimit="10"/></g><g transform="translate(-94,-326) scale(1,1)"><path fill="none" stroke="#000000" d="M 480 699 L 562.68994140625 699" stroke-miterlimit="10"/></g><g transform="translate(-94,-326) scale(1,1)"><g><path fill="none" stroke="none"/><text fill="#000000" stroke="none" font-family="Arial" font-size="13px" font-style="normal" font-weight="bold" text-decoration="none" x="487.0263671875" y="683.5">Chemotaxis</text></g></g><g transform="translate(-94,-326) scale(1,1)"><rect fill="#C0C0C0" stroke="none" x="654" y="671" width="113" height="44" opacity="0.2"/></g><g transform="translate(-94,-326) scale(1,1)"><rect fill="#ffffff" stroke="none" x="647" y="664" width="113" height="44"/></g><g transform="translate(-94,-326) scale(1,1)"><path fill="none" stroke="#000000" d="M 647 664 L 760 664 L 760 708 L 647 708 L 647 664 Z Z" stroke-miterlimit="10"/></g><g transform="translate(-94,-326) scale(1,1)"><path fill="none" stroke="#000000" d="M 647 689 L 760 689" stroke-miterlimit="10"/></g><g transform="translate(-94,-326) scale(1,1)"><path fill="none" stroke="#000000" d="M 647 699 L 760 699" stroke-miterlimit="10"/></g><g transform="translate(-94,-326) scale(1,1)"><g><path fill="none" stroke="none"/><text fill="#000000" stroke="none" font-family="Arial" font-size="13px" font-style="normal" font-weight="bold" text-decoration="none" x="659.793212890625" y="683.5">GrowthDivision</text></g></g><g transform="translate(-94,-326) scale(1,1)"><rect fill="#C0C0C0" stroke="none" x="578" y="671" width="68.24267578125" height="44" opacity="0.2"/></g><g transform="translate(-94,-326) scale(1,1)"><rect fill="#ffffff" stroke="none" x="571" y="664" width="68.24267578125" height="44"/></g><g transform="translate(-94,-326) scale(1,1)"><path fill="none" stroke="#000000" d="M 571 664 L 639.24267578125 664 L 639.24267578125 708 L 571 708 L 571 664 Z Z" stroke-miterlimit="10"/></g><g transform="translate(-94,-326) scale(1,1)"><path fill="none" stroke="#000000" d="M 571 689 L 639.24267578125 689" stroke-miterlimit="10"/></g><g transform="translate(-94,-326) scale(1,1)"><path fill="none" stroke="#000000" d="M 571 699 L 639.24267578125 699" stroke-miterlimit="10"/></g><g transform="translate(-94,-326) scale(1,1)"><g><path fill="none" stroke="none"/><text fill="#000000" stroke="none" font-family="Arial" font-size="13px" font-style="normal" font-weight="bold" text-decoration="none" x="577.661376953125" y="683.5">Secretion</text></g></g><g transform="translate(-94,-326) scale(1,1)"><rect fill="#C0C0C0" stroke="none" x="647" y="743" width="125.2890625" height="44" opacity="0.2"/></g><g transform="translate(-94,-326) scale(1,1)"><rect fill="#ffaa56" stroke="none" x="640" y="736" width="125.2890625" height="44"/></g><g transform="translate(-94,-326) scale(1,1)"><path fill="none" stroke="#000000" d="M 640 736 L 765.2890625 736 L 765.2890625 780 L 640 780 L 640 736 Z Z" stroke-miterlimit="10"/></g><g transform="translate(-94,-326) scale(1,1)"><path fill="none" stroke="#000000" d="M 640 761 L 765.2890625 761" stroke-miterlimit="10"/></g><g transform="translate(-94,-326) scale(1,1)"><path fill="none" stroke="#000000" d="M 640 771 L 765.2890625 771" stroke-miterlimit="10"/></g><g transform="translate(-94,-326) scale(1,1)"><g><path fill="none" stroke="none"/><text fill="#000000" stroke="none" font-family="Arial" font-size="13px" font-style="normal" font-weight="bold" text-decoration="none" x="647.73095703125" y="755.5">RandomMovement</text></g></g><g transform="translate(-94,-326) scale(1,1)"><rect fill="#C0C0C0" stroke="none" x="111" y="743" width="72.5908203125" height="44" opacity="0.2"/></g><g transform="translate(-94,-326) scale(1,1)"><rect fill="#ffff49" stroke="none" x="104" y="736" width="72.5908203125" height="44"/></g><g transform="translate(-94,-326) scale(1,1)"><path fill="none" stroke="#000000" d="M 104 736 L 176.5908203125 736 L 176.5908203125 780 L 104 780 L 104 736 Z Z" stroke-miterlimit="10"/></g><g transform="translate(-94,-326) scale(1,1)"><path fill="none" stroke="#000000" d="M 104 761 L 176.5908203125 761" stroke-miterlimit="10"/></g><g transform="translate(-94,-326) scale(1,1)"><path fill="none" stroke="#000000" d="M 104 771 L 176.5908203125 771" stroke-miterlimit="10"/></g><g transform="translate(-94,-326) scale(1,1)"><g><path fill="none" stroke="none"/><text fill="#000000" stroke="none" font-family="Arial" font-size="13px" font-style="normal" font-weight="bold" text-decoration="none" x="109.956787109375" y="755.5">SimParam</text></g></g><g transform="translate(-94,-326) scale(1,1)"><rect fill="#C0C0C0" stroke="none" x="196" y="743" width="72.5908203125" height="44" opacity="0.2"/></g><g transform="translate(-94,-326) scale(1,1)"><rect fill="#6dceff" stroke="none" x="189" y="736" width="72.5908203125" height="44"/></g><g transform="translate(-94,-326) scale(1,1)"><path fill="none" stroke="#000000" d="M 189 736 L 261.5908203125 736 L 261.5908203125 780 L 189 780 L 189 736 Z Z" stroke-miterlimit="10"/></g><g transform="translate(-94,-326) scale(1,1)"><path fill="none" stroke="#000000" d="M 189 761 L 261.5908203125 761" stroke-miterlimit="10"/></g><g transform="translate(-94,-326) scale(1,1)"><path fill="none" stroke="#000000" d="M 189 771 L 261.5908203125 771" stroke-miterlimit="10"/></g><g transform="translate(-94,-326) scale(1,1)"><g><path fill="none" stroke="none"/><text fill="#000000" stroke="none" font-family="Arial" font-size="13px" font-style="normal" font-weight="bold" text-decoration="none" x="194.956787109375" y="755.5">SimParam</text></g></g><g transform="translate(-94,-326) scale(1,1)"><rect fill="#C0C0C0" stroke="none" x="281" y="743" width="72.5908203125" height="44" opacity="0.2"/></g><g transform="translate(-94,-326) scale(1,1)"><rect fill="#ff5656" stroke="none" x="274" y="736" width="72.5908203125" height="44"/></g><g transform="translate(-94,-326) scale(1,1)"><path fill="none" stroke="#000000" d="M 274 736 L 346.5908203125 736 L 346.5908203125 780 L 274 780 L 274 736 Z Z" stroke-miterlimit="10"/></g><g transform="translate(-94,-326) scale(1,1)"><path fill="none" stroke="#000000" d="M 274 761 L 346.5908203125 761" stroke-miterlimit="10"/></g><g transform="translate(-94,-326) scale(1,1)"><path fill="none" stroke="#000000" d="M 274 771 L 346.5908203125 771" stroke-miterlimit="10"/></g><g transform="translate(-94,-326) scale(1,1)"><g><path fill="none" stroke="none"/><text fill="#000000" stroke="none" font-family="Arial" font-size="13px" font-style="normal" font-weight="bold" text-decoration="none" x="279.956787109375" y="755.5">SimParam</text></g></g><g transform="translate(-94,-326) scale(1,1)"><rect fill="#C0C0C0" stroke="none" x="366" y="743" width="72.5908203125" height="44" opacity="0.2"/></g><g transform="translate(-94,-326) scale(1,1)"><rect fill="#aa56ff" stroke="none" x="359" y="736" width="72.5908203125" height="44"/></g><g transform="translate(-94,-326) scale(1,1)"><path fill="none" stroke="#000000" d="M 359 736 L 431.5908203125 736 L 431.5908203125 780 L 359 780 L 359 736 Z Z" stroke-miterlimit="10"/></g><g transform="translate(-94,-326) scale(1,1)"><path fill="none" stroke="#000000" d="M 359 761 L 431.5908203125 761" stroke-miterlimit="10"/></g><g transform="translate(-94,-326) scale(1,1)"><path fill="none" stroke="#000000" d="M 359 771 L 431.5908203125 771" stroke-miterlimit="10"/></g><g transform="translate(-94,-326) scale(1,1)"><g><path fill="none" stroke="none"/><text fill="#000000" stroke="none" font-family="Arial" font-size="13px" font-style="normal" font-weight="bold" text-decoration="none" x="364.956787109375" y="755.5">SimParam</text></g></g><g transform="translate(-94,-326) scale(1,1)"><rect fill="#C0C0C0" stroke="none" x="807" y="847" width="147.525390625" height="57" opacity="0.2"/></g><g transform="translate(-94,-326) scale(1,1)"><rect fill="#38bcff" stroke="none" x="800" y="840" width="147.525390625" height="57"/></g><g transform="translate(-94,-326) scale(1,1)"><path fill="none" stroke="#000000" d="M 800 840 L 947.525390625 840 L 947.525390625 897 L 800 897 L 800 840 Z Z" stroke-miterlimit="10"/></g><g transform="translate(-94,-326) scale(1,1)"><path fill="none" stroke="#000000" d="M 800 865 L 947.525390625 865" stroke-miterlimit="10"/></g><g transform="translate(-94,-326) scale(1,1)"><path fill="none" stroke="#000000" d="M 800 888 L 947.525390625 888" stroke-miterlimit="10"/></g><g transform="translate(-94,-326) scale(1,1)"><g><path fill="none" stroke="none"/><text fill="#000000" stroke="none" font-family="Arial" font-size="13px" font-style="normal" font-weight="bold" text-decoration="none" x="816.32275390625" y="859.5">SomaClusteringCell</text></g></g><g transform="translate(-94,-326) scale(1,1)"><g><path fill="none" stroke="none"/><text fill="#000000" stroke="none" font-family="Arial" font-size="13px" font-style="normal" font-weight="normal" text-decoration="none" x="805" y="882.5">+cell_type_</text></g></g><g transform="translate(-94,-326) scale(1,1)"><path fill="none" stroke="#000000" d="M 690 589 L 964 595" stroke-miterlimit="10"/></g><g transform="translate(-94,-326) scale(1,1)"><path fill="#FFFFFF" stroke="none" d="M 953.747603711091 598.986021868375 L 964 595 L 953.9319179676148 590.5690041537864 L 942.0052727588204 594.5183636370544"/></g><g transform="translate(-94,-326) scale(1,1)"><path fill="none" stroke="#000000" d="M 953.747603711091 598.986021868375 L 964 595 L 953.9319179676148 590.5690041537864 L 942.0052727588204 594.5183636370544 L 953.747603711091 598.986021868375" stroke-miterlimit="10"/></g><g transform="translate(-94,-326) scale(1,1)"><path fill="none" stroke="#000000" d="M 157 735 L 256 605" stroke-miterlimit="10"/></g><g transform="translate(-94,-326) scale(1,1)"><path fill="#FFFFFF" stroke="none" d="M 250.3836581522132 626.2710296941356 L 256 605 L 236.98775725442448 616.0695359335119"/></g><g transform="translate(-94,-326) scale(1,1)"><path fill="none" stroke="#000000" d="M 250.3836581522132 626.2710296941356 L 256 605 L 236.98775725442448 616.0695359335119 L 250.3836581522132 626.2710296941356" stroke-miterlimit="10"/></g><g transform="translate(-94,-326) scale(1,1)"><path fill="none" stroke="#000000" d="M 231 735 L 267 605" stroke-miterlimit="10"/></g><g transform="translate(-94,-326) scale(1,1)"><path fill="#FFFFFF" stroke="none" d="M 269.68926658491364 626.8350142027723 L 267 605 L 253.461912028526 622.3412852486957"/></g><g transform="translate(-94,-326) scale(1,1)"><path fill="none" stroke="#000000" d="M 269.68926658491364 626.8350142027723 L 267 605 L 253.461912028526 622.3412852486957 L 269.68926658491364 626.8350142027723" stroke-miterlimit="10"/></g><g transform="translate(-94,-326) scale(1,1)"><path fill="none" stroke="#000000" d="M 305 735 L 278 605" stroke-miterlimit="10"/></g><g transform="translate(-94,-326) scale(1,1)"><path fill="#FFFFFF" stroke="none" d="M 290.37633898940777 623.188629228704 L 278 605 L 273.89009015756926 626.6126962937782"/></g><g transform="translate(-94,-326) scale(1,1)"><path fill="none" stroke="#000000" d="M 290.37633898940777 623.188629228704 L 278 605 L 273.89009015756926 626.6126962937782 L 290.37633898940777 623.188629228704" stroke-miterlimit="10"/></g><g transform="translate(-94,-326) scale(1,1)"><path fill="none" stroke="#000000" d="M 379 735 L 289 605" stroke-miterlimit="10"/></g><g transform="translate(-94,-326) scale(1,1)"><path fill="#FFFFFF" stroke="none" d="M 307.4914571402995 616.9191448027309 L 289 605 L 293.6473266219707 626.5035428538816"/></g><g transform="translate(-94,-326) scale(1,1)"><path fill="none" stroke="#000000" d="M 307.4914571402995 616.9191448027309 L 289 605 L 293.6473266219707 626.5035428538816 L 307.4914571402995 616.9191448027309" stroke-miterlimit="10"/></g><g transform="translate(-94,-326) scale(1,1)"><rect fill="#C0C0C0" stroke="none" x="223" y="671" width="188.89892578125" height="44" opacity="0.2"/></g><g transform="translate(-94,-326) scale(1,1)"><rect fill="#6dff6d" stroke="none" x="216" y="664" width="188.89892578125" height="44"/></g><g transform="translate(-94,-326) scale(1,1)"><path fill="none" stroke="#000000" d="M 216 664 L 404.89892578125 664 L 404.89892578125 708 L 216 708 L 216 664 Z Z" stroke-miterlimit="10"/></g><g transform="translate(-94,-326) scale(1,1)"><path fill="none" stroke="#000000" d="M 216 689 L 404.89892578125 689" stroke-miterlimit="10"/></g><g transform="translate(-94,-326) scale(1,1)"><path fill="none" stroke="#000000" d="M 216 699 L 404.89892578125 699" stroke-miterlimit="10"/></g><g transform="translate(-94,-326) scale(1,1)"><g><path fill="none" stroke="none"/><text fill="#000000" stroke="none" font-family="Arial" font-size="13px" font-style="normal" font-weight="bold" text-decoration="none" x="251.562255859375" y="683.5">NeuroscienceParam</text></g></g><g transform="translate(-94,-326) scale(1,1)"><rect fill="#C0C0C0" stroke="none" x="127" y="671" width="72.5908203125" height="44" opacity="0.2"/></g><g transform="translate(-94,-326) scale(1,1)"><rect fill="#ffaa56" stroke="none" x="120" y="664" width="72.5908203125" height="44"/></g><g transform="translate(-94,-326) scale(1,1)"><path fill="none" stroke="#000000" d="M 120 664 L 192.5908203125 664 L 192.5908203125 708 L 120 708 L 120 664 Z Z" stroke-miterlimit="10"/></g><g transform="translate(-94,-326) scale(1,1)"><path fill="none" stroke="#000000" d="M 120 689 L 192.5908203125 689" stroke-miterlimit="10"/></g><g transform="translate(-94,-326) scale(1,1)"><path fill="none" stroke="#000000" d="M 120 699 L 192.5908203125 699" stroke-miterlimit="10"/></g><g transform="translate(-94,-326) scale(1,1)"><g><path fill="none" stroke="none"/><text fill="#000000" stroke="none" font-family="Arial" font-size="13px" font-style="normal" font-weight="bold" text-decoration="none" x="125.956787109375" y="683.5">SimParam</text></g></g><g transform="translate(-94,-326) scale(1,1)"><path fill="none" stroke="#000000" d="M 468 559 L 509 504" stroke-miterlimit="10"/></g><g transform="translate(-94,-326) scale(1,1)"><path fill="#FFFFFF" stroke="none" d="M 506.3010873800526 514.6637643761426 L 509 504 L 499.5511604812593 509.63200068795123 L 495.8513678339987 521.6384090031725"/></g><g transform="translate(-94,-326) scale(1,1)"><path fill="none" stroke="#000000" d="M 506.3010873800526 514.6637643761426 L 509 504 L 499.5511604812593 509.63200068795123 L 495.8513678339987 521.6384090031725 L 506.3010873800526 514.6637643761426" stroke-miterlimit="10"/></g><g transform="translate(-94,-326) scale(1,1)"><path fill="none" stroke="#000000" d="M 964 578 L 659 492" stroke-miterlimit="10"/></g><g transform="translate(-94,-326) scale(1,1)"><path fill="#FFFFFF" stroke="none" d="M 669.9236788066974 490.706461702109 L 659 492 L 667.6388770618827 498.80953765755623 L 680.1743578899353 497.9704746837195"/></g><g transform="translate(-94,-326) scale(1,1)"><path fill="none" stroke="#000000" d="M 669.9236788066974 490.706461702109 L 659 492 L 667.6388770618827 498.80953765755623 L 680.1743578899353 497.9704746837195 L 669.9236788066974 490.706461702109" stroke-miterlimit="10"/></g><g transform="translate(-94,-326) scale(1,1)"><path fill="none" stroke="#000000" d="M 279 559 L 290 517" stroke-miterlimit="10"/></g><g transform="translate(-94,-326) scale(1,1)"><path fill="#000000" stroke="none" d="M 291.49736142962405 527.8976102311045 L 290 517 L 283.3530203276324 525.7645685139163 L 284.42609337957094 538.2821889143654"/></g><g transform="translate(-94,-326) scale(1,1)"><path fill="none" stroke="#000000" d="M 291.49736142962405 527.8976102311045 L 290 517 L 283.3530203276324 525.7645685139163 L 284.42609337957094 538.2821889143654 L 291.49736142962405 527.8976102311045" stroke-miterlimit="10"/></g><g transform="translate(-94,-326) scale(1,1)"><path fill="none" stroke="#000000" d="M 1031 751 L 1031 722" stroke-miterlimit="10"/></g><g transform="translate(-94,-326) scale(1,1)"><path fill="#FFFFFF" stroke="none" d="M 1039.419035512032 742.3253497152483 L 1031 722 L 1022.580964487968 742.3253497152483"/></g><g transform="translate(-94,-326) scale(1,1)"><path fill="none" stroke="#000000" d="M 1039.419035512032 742.3253497152483 L 1031 722 L 1022.580964487968 742.3253497152483 L 1039.419035512032 742.3253497152483" stroke-miterlimit="10"/></g><g transform="translate(-94,-326) scale(1,1)"><path fill="none" stroke="#000000" d="M 368 452 L 783 366" stroke-miterlimit="10"/></g><g transform="translate(-94,-326) scale(1,1)"><path fill="#000000" stroke="none" d="M 773.9029370611191 372.18412854701774 L 783 366 L 772.194565875711 363.94024433836205 L 761.4576924124826 370.46418904223253"/></g><g transform="translate(-94,-326) scale(1,1)"><path fill="none" stroke="#000000" d="M 773.9029370611191 372.18412854701774 L 783 366 L 772.194565875711 363.94024433836205 L 761.4576924124826 370.46418904223253 L 773.9029370611191 372.18412854701774" stroke-miterlimit="10"/></g><g transform="translate(-94,-326) scale(1,1)"><path fill="none" stroke="#000000" d="M 659 417 L 783 372" stroke-miterlimit="10"/></g><g transform="translate(-94,-326) scale(1,1)"><path fill="#000000" stroke="none" d="M 774.8829486045172 379.4238451386792 L 783 372 L 772.0109266749755 371.50982915505324 L 762.3196796247092 379.5049549749039"/></g><g transform="translate(-94,-326) scale(1,1)"><path fill="none" stroke="#000000" d="M 774.8829486045172 379.4238451386792 L 783 372 L 772.0109266749755 371.50982915505324 L 762.3196796247092 379.5049549749039 L 774.8829486045172 379.4238451386792" stroke-miterlimit="10"/></g><g transform="translate(-94,-326) scale(1,1)"><path fill="none" stroke="#000000" d="M 1341 456 L 860 365" stroke-miterlimit="10"/></g><g transform="translate(-94,-326) scale(1,1)"><path fill="#000000" stroke="none" d="M 870.768056209378 362.7530096858962 L 860 365 L 869.2030276542124 371.02530347748575 L 881.6165454053355 369.0896166983067"/></g><g transform="translate(-94,-326) scale(1,1)"><path fill="none" stroke="#000000" d="M 870.768056209378 362.7530096858962 L 860 365 L 869.2030276542124 371.02530347748575 L 881.6165454053355 369.0896166983067 L 870.768056209378 362.7530096858962" stroke-miterlimit="10"/></g><g transform="translate(-94,-326) scale(1,1)"><path fill="none" stroke="#000000" d="M 816 415 L 819 381" stroke-miterlimit="10"/></g><g transform="translate(-94,-326) scale(1,1)"><path fill="#000000" stroke="none" d="M 822.2999900749398 391.49333433686826 L 819 381 L 813.913537492981 390.7533532266954 L 817.0663361734802 402.9148567005584"/></g><g transform="translate(-94,-326) scale(1,1)"><path fill="none" stroke="#000000" d="M 822.2999900749398 391.49333433686826 L 819 381 L 813.913537492981 390.7533532266954 L 817.0663361734802 402.9148567005584 L 822.2999900749398 391.49333433686826" stroke-miterlimit="10"/></g><g transform="translate(-94,-326) scale(1,1)"><rect fill="#C0C0C0" stroke="none" x="1349" y="423" width="114.1298828125" height="102" opacity="0.2"/></g><g transform="translate(-94,-326) scale(1,1)"><rect fill="#ffffff" stroke="none" x="1342" y="416" width="114.1298828125" height="102"/></g><g transform="translate(-94,-326) scale(1,1)"><path fill="none" stroke="#000000" d="M 1342 416 L 1456.1298828125 416 L 1456.1298828125 518 L 1342 518 L 1342 416 Z Z" stroke-miterlimit="10"/></g><g transform="translate(-94,-326) scale(1,1)"><path fill="none" stroke="#000000" d="M 1342 441 L 1456.1298828125 441" stroke-miterlimit="10"/></g><g transform="translate(-94,-326) scale(1,1)"><path fill="none" stroke="#000000" d="M 1342 451 L 1456.1298828125 451" stroke-miterlimit="10"/></g><g transform="translate(-94,-326) scale(1,1)"><g><path fill="none" stroke="none"/><text fill="#000000" stroke="none" font-family="Arial" font-size="13px" font-style="normal" font-weight="bold" text-decoration="none" x="1374.496337890625" y="435.5">Random</text></g></g><g transform="translate(-94,-326) scale(1,1)"><g><path fill="none" stroke="none"/><text fill="#000000" stroke="none" font-family="Arial" font-size="13px" font-style="normal" font-weight="normal" text-decoration="none" x="1347" y="468.5">+Uniform(...)</text></g></g><g transform="translate(-94,-326) scale(1,1)"><g><path fill="none" stroke="none"/><text fill="#000000" stroke="none" font-family="Arial" font-size="13px" font-style="normal" font-weight="normal" text-decoration="none" x="1347" y="483.5">+Gaus(...)</text></g></g><g transform="translate(-94,-326) scale(1,1)"><g><path fill="none" stroke="none"/><text fill="#000000" stroke="none" font-family="Arial" font-size="13px" font-style="normal" font-weight="normal" text-decoration="none" x="1347" y="498.5">+SetSeed(...)</text></g></g><g transform="translate(-94,-326) scale(1,1)"><g><path fill="none" stroke="none"/><text fill="#000000" stroke="none" font-family="Arial" font-size="13px" font-style="normal" font-weight="normal" text-decoration="none" x="1347" y="513.5">+SetGenerator(...)</text></g></g><g transform="translate(-94,-326) scale(1,1)"><rect fill="#C0C0C0" stroke="none" x="970" y="423" width="145" height="57" opacity="0.2"/></g><g transform="translate(-94,-326) scale(1,1)"><rect fill="#ffffff" stroke="none" x="963" y="416" width="145" height="57"/></g><g transform="translate(-94,-326) scale(1,1)"><path fill="none" stroke="#000000" d="M 963 416 L 1108 416 L 1108 473 L 963 473 L 963 416 Z Z" stroke-miterlimit="10"/></g><g transform="translate(-94,-326) scale(1,1)"><path fill="none" stroke="#000000" d="M 963 441 L 1108 441" stroke-miterlimit="10"/></g><g transform="translate(-94,-326) scale(1,1)"><path fill="none" stroke="#000000" d="M 963 451 L 1108 451" stroke-miterlimit="10"/></g><g transform="translate(-94,-326) scale(1,1)"><g><path fill="none" stroke="none"/><text fill="#000000" stroke="none" font-family="Arial" font-size="13px" font-style="normal" font-weight="bold" text-decoration="none" x="999.010498046875" y="435.5">Environment</text></g></g><g transform="translate(-94,-326) scale(1,1)"><g><path fill="none" stroke="none"/><text fill="#000000" stroke="none" font-family="Arial" font-size="13px" font-style="normal" font-weight="normal" text-decoration="none" x="968" y="468.5">+ForEachNeighbor(...)</text></g></g><g transform="translate(-94,-326) scale(1,1)"><rect fill="#C0C0C0" stroke="none" x="727" y="423" width="181.33251953125" height="117" opacity="0.2"/></g><g transform="translate(-94,-326) scale(1,1)"><rect fill="#ffffff" stroke="none" x="720" y="416" width="181.33251953125" height="117"/></g><g transform="translate(-94,-326) scale(1,1)"><path fill="none" stroke="#000000" d="M 720 416 L 901.33251953125 416 L 901.33251953125 533 L 720 533 L 720 416 Z Z" stroke-miterlimit="10"/></g><g transform="translate(-94,-326) scale(1,1)"><path fill="none" stroke="#000000" d="M 720 441 L 901.33251953125 441" stroke-miterlimit="10"/></g><g transform="translate(-94,-326) scale(1,1)"><path fill="none" stroke="#000000" d="M 720 451 L 901.33251953125 451" stroke-miterlimit="10"/></g><g transform="translate(-94,-326) scale(1,1)"><g><path fill="none" stroke="none"/><text fill="#000000" stroke="none" font-family="Arial" font-size="13px" font-style="normal" font-weight="bold" text-decoration="none" x="781.397216796875" y="435.5">Scheduler</text></g></g><g transform="translate(-94,-326) scale(1,1)"><g><path fill="none" stroke="none"/><text fill="#000000" stroke="none" font-family="Arial" font-size="13px" font-style="normal" font-weight="normal" text-decoration="none" x="725" y="468.5">+Simulate(steps)</text></g></g><g transform="translate(-94,-326) scale(1,1)"><g><path fill="none" stroke="none"/><text fill="#000000" stroke="none" font-family="Arial" font-size="13px" font-style="normal" font-weight="normal" text-decoration="none" x="725" y="483.5">+SimulateUntil(exit_condition)</text></g></g><g transform="translate(-94,-326) scale(1,1)"><g><path fill="none" stroke="none"/><text fill="#000000" stroke="none" font-family="Arial" font-size="13px" font-style="normal" font-weight="normal" text-decoration="none" x="725" y="498.5">+ScheduleOp(operation)</text></g></g><g transform="translate(-94,-326) scale(1,1)"><g><path fill="none" stroke="none"/><text fill="#000000" stroke="none" font-family="Arial" font-size="13px" font-style="normal" font-weight="normal" text-decoration="none" x="725" y="513.5">+GetOps(name)</text></g></g><g transform="translate(-94,-326) scale(1,1)"><g><path fill="none" stroke="none"/><text fill="#000000" stroke="none" font-family="Arial" font-size="13px" font-style="normal" font-weight="normal" text-decoration="none" x="725" y="528.5">+SetAgentFilters(...)</text></g></g><g transform="translate(-94,-326) scale(1,1)"><rect fill="#C0C0C0" stroke="none" x="436" y="423" width="229.0224609375" height="87" opacity="0.2"/></g><g transform="translate(-94,-326) scale(1,1)"><rect fill="#ffffff" stroke="none" x="429" y="416" width="229.0224609375" height="87"/></g><g transform="translate(-94,-326) scale(1,1)"><path fill="none" stroke="#000000" d="M 429 416 L 658.0224609375 416 L 658.0224609375 503 L 429 503 L 429 416 Z Z" stroke-miterlimit="10"/></g><g transform="translate(-94,-326) scale(1,1)"><path fill="none" stroke="#000000" d="M 429 441 L 658.0224609375 441" stroke-miterlimit="10"/></g><g transform="translate(-94,-326) scale(1,1)"><path fill="none" stroke="#000000" d="M 429 451 L 658.0224609375 451" stroke-miterlimit="10"/></g><g transform="translate(-94,-326) scale(1,1)"><g><path fill="none" stroke="none"/><text fill="#000000" stroke="none" font-family="Arial" font-size="13px" font-style="normal" font-weight="bold" text-decoration="none" x="490.03857421875" y="435.5">ResourceManager</text></g></g><g transform="translate(-94,-326) scale(1,1)"><g><path fill="none" stroke="none"/><text fill="#000000" stroke="none" font-family="Arial" font-size="13px" font-style="normal" font-weight="normal" text-decoration="none" x="434" y="468.5">+ForEachAgent(functor, filter)</text></g></g><g transform="translate(-94,-326) scale(1,1)"><g><path fill="none" stroke="none"/><text fill="#000000" stroke="none" font-family="Arial" font-size="13px" font-style="normal" font-weight="normal" text-decoration="none" x="434" y="483.5">+ForEachAgentParallel(functor, filter)</text></g></g><g transform="translate(-94,-326) scale(1,1)"><g><path fill="none" stroke="none"/><text fill="#000000" stroke="none" font-family="Arial" font-size="13px" font-style="normal" font-weight="normal" text-decoration="none" x="434" y="498.5">+ForEachDiffusionGrid(...)</text></g></g><g transform="translate(-94,-326) scale(1,1)"><rect fill="#C0C0C0" stroke="none" x="567" y="743" width="67.5380859375" height="44" opacity="0.2"/></g><g transform="translate(-94,-326) scale(1,1)"><rect fill="#ffaa56" stroke="none" x="560" y="736" width="67.5380859375" height="44"/></g><g transform="translate(-94,-326) scale(1,1)"><path fill="none" stroke="#000000" d="M 560 736 L 627.5380859375 736 L 627.5380859375 780 L 560 780 L 560 736 Z Z" stroke-miterlimit="10"/></g><g transform="translate(-94,-326) scale(1,1)"><path fill="none" stroke="#000000" d="M 560 761 L 627.5380859375 761" stroke-miterlimit="10"/></g><g transform="translate(-94,-326) scale(1,1)"><path fill="none" stroke="#000000" d="M 560 771 L 627.5380859375 771" stroke-miterlimit="10"/></g><g transform="translate(-94,-326) scale(1,1)"><g><path fill="none" stroke="none"/><text fill="#000000" stroke="none" font-family="Arial" font-size="13px" font-style="normal" font-weight="bold" text-decoration="none" x="566.3154296875" y="755.5">Recovery</text></g></g><g transform="translate(-94,-326) scale(1,1)"><rect fill="#C0C0C0" stroke="none" x="839" y="671" width="104.3544921875" height="44" opacity="0.2"/></g><g transform="translate(-94,-326) scale(1,1)"><rect fill="#ffffff" stroke="none" x="832" y="664" width="104.3544921875" height="44"/></g><g transform="translate(-94,-326) scale(1,1)"><path fill="none" stroke="#000000" d="M 832 664 L 936.3544921875 664 L 936.3544921875 708 L 832 708 L 832 664 Z Z" stroke-miterlimit="10"/></g><g transform="translate(-94,-326) scale(1,1)"><path fill="none" stroke="#000000" d="M 832 689 L 936.3544921875 689" stroke-miterlimit="10"/></g><g transform="translate(-94,-326) scale(1,1)"><path fill="none" stroke="#000000" d="M 832 699 L 936.3544921875 699" stroke-miterlimit="10"/></g><g transform="translate(-94,-326) scale(1,1)"><g><path fill="none" stroke="none"/><text fill="#000000" stroke="none" font-family="Arial" font-size="13px" font-style="normal" font-weight="bold" text-decoration="none" x="840.0927734375" y="683.5">SphericalAgent</text></g></g><g transform="translate(-94,-326) scale(1,1)"><path fill="none" stroke="#000000" d="M 922 663 L 968 635" stroke-miterlimit="10"/></g><g transform="translate(-94,-326) scale(1,1)"><path fill="#FFFFFF" stroke="none" d="M 955.0155674411644 652.7596315030761 L 968 635 L 946.2606638205887 638.3765755549873"/></g><g transform="translate(-94,-326) scale(1,1)"><path fill="none" stroke="#000000" d="M 955.0155674411644 652.7596315030761 L 968 635 L 946.2606638205887 638.3765755549873 L 955.0155674411644 652.7596315030761" stroke-miterlimit="10"/></g><g transform="translate(-94,-326) scale(1,1)"><rect fill="#C0C0C0" stroke="none" x="1176" y="423" width="110.51171875" height="104" opacity="0.2"/></g><g transform="translate(-94,-326) scale(1,1)"><rect fill="#ffffff" stroke="none" x="1169" y="416" width="110.51171875" height="104"/></g><g transform="translate(-94,-326) scale(1,1)"><path fill="none" stroke="#000000" d="M 1169 416 L 1279.51171875 416 L 1279.51171875 520 L 1169 520 L 1169 416 Z Z" stroke-miterlimit="10"/></g><g transform="translate(-94,-326) scale(1,1)"><path fill="none" stroke="#000000" d="M 1169 441 L 1279.51171875 441" stroke-miterlimit="10"/></g><g transform="translate(-94,-326) scale(1,1)"><path fill="none" stroke="#000000" d="M 1169 451 L 1279.51171875 451" stroke-miterlimit="10"/></g><g transform="translate(-94,-326) scale(1,1)"><g><path fill="none" stroke="none"/><text fill="#000000" stroke="none" font-family="Arial" font-size="13px" font-style="normal" font-weight="bold" text-decoration="none" x="1191.62890625" y="435.5">TimeSeries</text></g></g><g transform="translate(-94,-326) scale(1,1)"><g><path fill="none" stroke="none"/><text fill="#000000" stroke="none" font-family="Arial" font-size="13px" font-style="normal" font-weight="normal" text-decoration="none" x="1174" y="470.5">+AddCollector(...)</text></g></g><g transform="translate(-94,-326) scale(1,1)"><g><path fill="none" stroke="none"/><text fill="#000000" stroke="none" font-family="Arial" font-size="13px" font-style="normal" font-weight="normal" text-decoration="none" x="1174" y="485.5">+Save(...)</text></g></g><g transform="translate(-94,-326) scale(1,1)"><g><path fill="none" stroke="none"/><text fill="#000000" stroke="none" font-family="Arial" font-size="13px" font-style="normal" font-weight="normal" text-decoration="none" x="1174" y="500.5">+Load(...)</text></g></g><g transform="translate(-94,-326) scale(1,1)"><g><path fill="none" stroke="none"/><text fill="#000000" stroke="none" font-family="Arial" font-size="13px" font-style="normal" font-weight="normal" text-decoration="none" x="1174" y="515.5">+Merge(...)</text></g></g><g transform="translate(-94,-326) scale(1,1)"><rect fill="#C0C0C0" stroke="none" x="1194" y="567" width="74.00634765625" height="44" opacity="0.2"/></g><g transform="translate(-94,-326) scale(1,1)"><rect fill="#ffffff" stroke="none" x="1187" y="560" width="74.00634765625" height="44"/></g><g transform="translate(-94,-326) scale(1,1)"><path fill="none" stroke="#000000" d="M 1187 560 L 1261.00634765625 560 L 1261.00634765625 604 L 1187 604 L 1187 560 Z Z" stroke-miterlimit="10"/></g><g transform="translate(-94,-326) scale(1,1)"><path fill="none" stroke="#000000" d="M 1187 585 L 1261.00634765625 585" stroke-miterlimit="10"/></g><g transform="translate(-94,-326) scale(1,1)"><path fill="none" stroke="#000000" d="M 1187 595 L 1261.00634765625 595" stroke-miterlimit="10"/></g><g transform="translate(-94,-326) scale(1,1)"><g><path fill="none" stroke="none"/><text fill="#000000" stroke="none" font-family="Arial" font-size="13px" font-style="normal" font-weight="bold" text-decoration="none" x="1193.648681640625" y="579.5">LineGraph</text></g></g><g transform="translate(-94,-326) scale(1,1)"><rect fill="#C0C0C0" stroke="none" x="175" y="815" width="212.39794921875" height="117" opacity="0.2"/></g><g transform="translate(-94,-326) scale(1,1)"><rect fill="#ffffff" stroke="none" x="168" y="808" width="212.39794921875" height="117"/></g><g transform="translate(-94,-326) scale(1,1)"><path fill="none" stroke="#000000" d="M 168 808 L 380.39794921875 808 L 380.39794921875 925 L 168 925 L 168 808 Z Z" stroke-miterlimit="10"/></g><g transform="translate(-94,-326) scale(1,1)"><path fill="none" stroke="#000000" d="M 168 833 L 380.39794921875 833" stroke-miterlimit="10"/></g><g transform="translate(-94,-326) scale(1,1)"><path fill="none" stroke="#000000" d="M 168 843 L 380.39794921875 843" stroke-miterlimit="10"/></g><g transform="translate(-94,-326) scale(1,1)"><g><path fill="none" stroke="none"/><text fill="#000000" stroke="none" font-family="Arial" font-size="13px" font-style="normal" font-weight="bold" text-decoration="none" x="230.84765625" y="827.5">ModelInitializer</text></g></g><g transform="translate(-94,-326) scale(1,1)"><g><path fill="none" stroke="none"/><text fill="#000000" stroke="none" font-family="Arial" font-size="13px" font-style="normal" font-weight="normal" text-decoration="none" x="173" y="860.5">+Grid3D(...)</text></g></g><g transform="translate(-94,-326) scale(1,1)"><g><path fill="none" stroke="none"/><text fill="#000000" stroke="none" font-family="Arial" font-size="13px" font-style="normal" font-weight="normal" text-decoration="none" x="173" y="875.5">+CreateAgentsRandom(...)</text></g></g><g transform="translate(-94,-326) scale(1,1)"><g><path fill="none" stroke="none"/><text fill="#000000" stroke="none" font-family="Arial" font-size="13px" font-style="normal" font-weight="normal" text-decoration="none" x="173" y="890.5">+CreateAgentsOnSurface(...)</text></g></g><g transform="translate(-94,-326) scale(1,1)"><g><path fill="none" stroke="none"/><text fill="#000000" stroke="none" font-family="Arial" font-size="13px" font-style="normal" font-weight="normal" text-decoration="none" x="173" y="905.5">+DefineSubstance(...)</text></g></g><g transform="translate(-94,-326) scale(1,1)"><g><path fill="none" stroke="none"/><text fill="#000000" stroke="none" font-family="Arial" font-size="13px" font-style="normal" font-weight="normal" text-decoration="none" x="173" y="920.5">+InitializeSubstance(...)</text></g></g><g transform="translate(-94,-326) scale(1,1)"><rect fill="#C0C0C0" stroke="none" x="1385" y="567" width="107.20458984375" height="57" opacity="0.2"/></g><g transform="translate(-94,-326) scale(1,1)"><rect fill="#ffffff" stroke="none" x="1378" y="560" width="107.20458984375" height="57"/></g><g transform="translate(-94,-326) scale(1,1)"><path fill="none" stroke="#000000" d="M 1378 560 L 1485.20458984375 560 L 1485.20458984375 617 L 1378 617 L 1378 560 Z Z" stroke-miterlimit="10"/></g><g transform="translate(-94,-326) scale(1,1)"><path fill="none" stroke="#000000" d="M 1378 585 L 1485.20458984375 585" stroke-miterlimit="10"/></g><g transform="translate(-94,-326) scale(1,1)"><path fill="none" stroke="#000000" d="M 1378 595 L 1485.20458984375 595" stroke-miterlimit="10"/></g><g transform="translate(-94,-326) scale(1,1)"><g><path fill="none" stroke="none"/><text fill="#000000" stroke="none" font-family="Arial" font-size="13px" font-style="normal" font-weight="bold" text-decoration="none" x="1387.16552734375" y="579.5">DistributionRng</text></g></g><g transform="translate(-94,-326) scale(1,1)"><g><path fill="none" stroke="none"/><text fill="#000000" stroke="none" font-family="Arial" font-size="13px" font-style="normal" font-weight="normal" text-decoration="none" x="1383" y="612.5">+Sample()</text></g></g><g transform="translate(-94,-326) scale(1,1)"><rect fill="#C0C0C0" stroke="none" x="1343" y="791" width="191.05078125" height="44" opacity="0.2"/></g><g transform="translate(-94,-326) scale(1,1)"><rect fill="#ffffff" stroke="none" x="1336" y="784" width="191.05078125" height="44"/></g><g transform="translate(-94,-326) scale(1,1)"><path fill="none" stroke="#000000" d="M 1336 784 L 1527.05078125 784 L 1527.05078125 828 L 1336 828 L 1336 784 Z Z" stroke-miterlimit="10"/></g><g transform="translate(-94,-326) scale(1,1)"><path fill="none" stroke="#000000" d="M 1336 809 L 1527.05078125 809" stroke-miterlimit="10"/></g><g transform="translate(-94,-326) scale(1,1)"><path fill="none" stroke="#000000" d="M 1336 819 L 1527.05078125 819" stroke-miterlimit="10"/></g><g transform="translate(-94,-326) scale(1,1)"><g><path fill="none" stroke="none"/><text fill="#000000" stroke="none" font-family="Arial" font-size="13px" font-style="normal" font-weight="bold" text-decoration="none" x="1345.175048828125" y="803.5">UserDefinedDistRng{1, 2, 3}D</text></g></g><g transform="translate(-94,-326) scale(1,1)"><rect fill="#C0C0C0" stroke="none" x="1455" y="671" width="58.11181640625" height="44" opacity="0.2"/></g><g transform="translate(-94,-326) scale(1,1)"><rect fill="#ffffff" stroke="none" x="1448" y="664" width="58.11181640625" height="44"/></g><g transform="translate(-94,-326) scale(1,1)"><path fill="none" stroke="#000000" d="M 1448 664 L 1506.11181640625 664 L 1506.11181640625 708 L 1448 708 L 1448 664 Z Z" stroke-miterlimit="10"/></g><g transform="translate(-94,-326) scale(1,1)"><path fill="none" stroke="#000000" d="M 1448 689 L 1506.11181640625 689" stroke-miterlimit="10"/></g><g transform="translate(-94,-326) scale(1,1)"><path fill="none" stroke="#000000" d="M 1448 699 L 1506.11181640625 699" stroke-miterlimit="10"/></g><g transform="translate(-94,-326) scale(1,1)"><g><path fill="none" stroke="none"/><text fill="#000000" stroke="none" font-family="Arial" font-size="13px" font-style="normal" font-weight="bold" text-decoration="none" x="1453.931396484375" y="683.5">ExpRng</text></g></g><g transform="translate(-94,-326) scale(1,1)"><rect fill="#C0C0C0" stroke="none" x="1343" y="735" width="84.83544921875" height="44" opacity="0.2"/></g><g transform="translate(-94,-326) scale(1,1)"><rect fill="#ffffff" stroke="none" x="1336" y="728" width="84.83544921875" height="44"/></g><g transform="translate(-94,-326) scale(1,1)"><path fill="none" stroke="#000000" d="M 1336 728 L 1420.83544921875 728 L 1420.83544921875 772 L 1336 772 L 1336 728 Z Z" stroke-miterlimit="10"/></g><g transform="translate(-94,-326) scale(1,1)"><path fill="none" stroke="#000000" d="M 1336 753 L 1420.83544921875 753" stroke-miterlimit="10"/></g><g transform="translate(-94,-326) scale(1,1)"><path fill="none" stroke="#000000" d="M 1336 763 L 1420.83544921875 763" stroke-miterlimit="10"/></g><g transform="translate(-94,-326) scale(1,1)"><g><path fill="none" stroke="none"/><text fill="#000000" stroke="none" font-family="Arial" font-size="13px" font-style="normal" font-weight="bold" text-decoration="none" x="1343.369140625" y="747.5">PoissonRng</text></g></g><g transform="translate(-94,-326) scale(1,1)"><path fill="none" stroke="#000000" d="M 884 751 L 884 709" stroke-miterlimit="10"/></g><g transform="translate(-94,-326) scale(1,1)"><path fill="#FFFFFF" stroke="none" d="M 892.419035512032 729.3253497152483 L 884 709 L 875.580964487968 729.3253497152483"/></g><g transform="translate(-94,-326) scale(1,1)"><path fill="none" stroke="#000000" d="M 892.419035512032 729.3253497152483 L 884 709 L 875.580964487968 729.3253497152483 L 892.419035512032 729.3253497152483" stroke-miterlimit="10"/></g><g transform="translate(-94,-326) scale(1,1)"><path fill="none" stroke="#000000" d="M 1224 521 L 1224 559" stroke-miterlimit="10"/></g><g transform="translate(-94,-326) scale(1,1)"><path fill="none" stroke="#000000" d="M 1431 783 L 1431 618" stroke-miterlimit="10"/></g><g transform="translate(-94,-326) scale(1,1)"><path fill="#FFFFFF" stroke="none" d="M 1439.419035512032 638.3253497152483 L 1431 618 L 1422.580964487968 638.3253497152483"/></g><g transform="translate(-94,-326) scale(1,1)"><path fill="none" stroke="#000000" d="M 1439.419035512032 638.3253497152483 L 1431 618 L 1422.580964487968 638.3253497152483 L 1439.419035512032 638.3253497152483" stroke-miterlimit="10"/></g><g transform="translate(-94,-326) scale(1,1)"><rect fill="#C0C0C0" stroke="none" x="1359" y="671" width="66.78271484375" height="44" opacity="0.2"/></g><g transform="translate(-94,-326) scale(1,1)"><rect fill="#ffffff" stroke="none" x="1352" y="664" width="66.78271484375" height="44"/></g><g transform="translate(-94,-326) scale(1,1)"><path fill="none" stroke="#000000" d="M 1352 664 L 1418.78271484375 664 L 1418.78271484375 708 L 1352 708 L 1352 664 Z Z" stroke-miterlimit="10"/></g><g transform="translate(-94,-326) scale(1,1)"><path fill="none" stroke="#000000" d="M 1352 689 L 1418.78271484375 689" stroke-miterlimit="10"/></g><g transform="translate(-94,-326) scale(1,1)"><path fill="none" stroke="#000000" d="M 1352 699 L 1418.78271484375 699" stroke-miterlimit="10"/></g><g transform="translate(-94,-326) scale(1,1)"><g><path fill="none" stroke="none"/><text fill="#000000" stroke="none" font-family="Arial" font-size="13px" font-style="normal" font-weight="bold" text-decoration="none" x="1357.931396484375" y="683.5">GausRng</text></g></g><g transform="translate(-94,-326) scale(1,1)"><rect fill="#C0C0C0" stroke="none" x="1447" y="735" width="89.16455078125" height="44" opacity="0.2"/></g><g transform="translate(-94,-326) scale(1,1)"><rect fill="#ffffff" stroke="none" x="1440" y="728" width="89.16455078125" height="44"/></g><g transform="translate(-94,-326) scale(1,1)"><path fill="none" stroke="#000000" d="M 1440 728 L 1529.16455078125 728 L 1529.16455078125 772 L 1440 772 L 1440 728 Z Z" stroke-miterlimit="10"/></g><g transform="translate(-94,-326) scale(1,1)"><path fill="none" stroke="#000000" d="M 1440 753 L 1529.16455078125 753" stroke-miterlimit="10"/></g><g transform="translate(-94,-326) scale(1,1)"><path fill="none" stroke="#000000" d="M 1440 763 L 1529.16455078125 763" stroke-miterlimit="10"/></g><g transform="translate(-94,-326) scale(1,1)"><g><path fill="none" stroke="none"/><text fill="#000000" stroke="none" font-family="Arial" font-size="13px" font-style="normal" font-weight="bold" text-decoration="none" x="1447.73095703125" y="747.5">BinomialRng</text></g></g><g transform="translate(-94,-326) scale(1,1)"><path fill="none" stroke="#000000" d="M 1413 519 L 1423 559" stroke-miterlimit="10"/></g><g transform="translate(-94,-326) scale(1,1)"><path fill="none" stroke="#000000" d="M 1396 663 L 1417 618" stroke-miterlimit="10"/></g><g transform="translate(-94,-326) scale(1,1)"><path fill="#FFFFFF" stroke="none" d="M 1416.0338930636742 639.9787769766104 L 1417 618 L 1400.7755169916245 632.8582014763207"/></g><g transform="translate(-94,-326) scale(1,1)"><path fill="none" stroke="#000000" d="M 1416.0338930636742 639.9787769766104 L 1417 618 L 1400.7755169916245 632.8582014763207 L 1416.0338930636742 639.9787769766104" stroke-miterlimit="10"/></g></g></svg>