<?xml version="1.0" encoding="utf-8" standalone="no"?>
<!DOCTYPE svg PUBLIC "-//W3C//DTD SVG 1.1//EN"
  "http://www.w3.org/Graphics/SVG/1.1/DTD/svg11.dtd">
<!-- Created with matplotlib (https://matplotlib.org/) -->
<svg height="288pt" version="1.1" viewBox="0 0 504 288" width="504pt" xmlns="http://www.w3.org/2000/svg" xmlns:xlink="http://www.w3.org/1999/xlink">
 <metadata>
  <rdf:RDF xmlns:cc="http://creativecommons.org/ns#" xmlns:dc="http://purl.org/dc/elements/1.1/" xmlns:rdf="http://www.w3.org/1999/02/22-rdf-syntax-ns#">
   <cc:Work>
    <dc:type rdf:resource="http://purl.org/dc/dcmitype/StillImage"/>
    <dc:date>2022-12-06T16:47:43.154974</dc:date>
    <dc:format>image/svg+xml</dc:format>
    <dc:creator>
     <cc:Agent>
      <dc:title>Matplotlib v3.3.4, https://matplotlib.org/</dc:title>
     </cc:Agent>
    </dc:creator>
   </cc:Work>
  </rdf:RDF>
 </metadata>
 <defs>
  <style type="text/css">*{stroke-linecap:butt;stroke-linejoin:round;}</style>
 </defs>
 <g id="figure_1">
  <g id="patch_1">
   <path d="M 0 288 
L 504 288 
L 504 0 
L 0 0 
z
" style="fill:#ffffff;"/>
  </g>
  <g id="axes_1">
   <g id="patch_2">
    <path d="M 84.71 202.983105 
L 482.4 202.983105 
L 482.4 21.6 
L 84.71 21.6 
z
" style="fill:#ffffff;"/>
   </g>
   <g id="matplotlib.axis_1">
    <g id="xtick_1">
     <g id="line2d_1">
      <defs>
       <path d="M 0 0 
L 0 3.5 
" id="me3c11a96f6" style="stroke:#000000;stroke-width:0.8;"/>
      </defs>
      <g>
       <use style="stroke:#000000;stroke-width:0.8;" x="127.94394" xlink:href="#me3c11a96f6" y="202.983105"/>
      </g>
     </g>
     <g id="text_1">
      <!-- Cell prolif. -->
      <g transform="translate(30.751757 250.416271)rotate(-15)scale(0.2 -0.2)">
       <defs>
        <path d="M 64.40625 67.28125 
L 64.40625 56.890625 
Q 59.421875 61.53125 53.78125 63.8125 
Q 48.140625 66.109375 41.796875 66.109375 
Q 29.296875 66.109375 22.65625 58.46875 
Q 16.015625 50.828125 16.015625 36.375 
Q 16.015625 21.96875 22.65625 14.328125 
Q 29.296875 6.6875 41.796875 6.6875 
Q 48.140625 6.6875 53.78125 8.984375 
Q 59.421875 11.28125 64.40625 15.921875 
L 64.40625 5.609375 
Q 59.234375 2.09375 53.4375 0.328125 
Q 47.65625 -1.421875 41.21875 -1.421875 
Q 24.65625 -1.421875 15.125 8.703125 
Q 5.609375 18.84375 5.609375 36.375 
Q 5.609375 53.953125 15.125 64.078125 
Q 24.65625 74.21875 41.21875 74.21875 
Q 47.75 74.21875 53.53125 72.484375 
Q 59.328125 70.75 64.40625 67.28125 
z
" id="DejaVuSans-67"/>
        <path d="M 56.203125 29.59375 
L 56.203125 25.203125 
L 14.890625 25.203125 
Q 15.484375 15.921875 20.484375 11.0625 
Q 25.484375 6.203125 34.421875 6.203125 
Q 39.59375 6.203125 44.453125 7.46875 
Q 49.3125 8.734375 54.109375 11.28125 
L 54.109375 2.78125 
Q 49.265625 0.734375 44.1875 -0.34375 
Q 39.109375 -1.421875 33.890625 -1.421875 
Q 20.796875 -1.421875 13.15625 6.1875 
Q 5.515625 13.8125 5.515625 26.8125 
Q 5.515625 40.234375 12.765625 48.109375 
Q 20.015625 56 32.328125 56 
Q 43.359375 56 49.78125 48.890625 
Q 56.203125 41.796875 56.203125 29.59375 
z
M 47.21875 32.234375 
Q 47.125 39.59375 43.09375 43.984375 
Q 39.0625 48.390625 32.421875 48.390625 
Q 24.90625 48.390625 20.390625 44.140625 
Q 15.875 39.890625 15.1875 32.171875 
z
" id="DejaVuSans-101"/>
        <path d="M 9.421875 75.984375 
L 18.40625 75.984375 
L 18.40625 0 
L 9.421875 0 
z
" id="DejaVuSans-108"/>
        <path id="DejaVuSans-32"/>
        <path d="M 18.109375 8.203125 
L 18.109375 -20.796875 
L 9.078125 -20.796875 
L 9.078125 54.6875 
L 18.109375 54.6875 
L 18.109375 46.390625 
Q 20.953125 51.265625 25.265625 53.625 
Q 29.59375 56 35.59375 56 
Q 45.5625 56 51.78125 48.09375 
Q 58.015625 40.1875 58.015625 27.296875 
Q 58.015625 14.40625 51.78125 6.484375 
Q 45.5625 -1.421875 35.59375 -1.421875 
Q 29.59375 -1.421875 25.265625 0.953125 
Q 20.953125 3.328125 18.109375 8.203125 
z
M 48.6875 27.296875 
Q 48.6875 37.203125 44.609375 42.84375 
Q 40.53125 48.484375 33.40625 48.484375 
Q 26.265625 48.484375 22.1875 42.84375 
Q 18.109375 37.203125 18.109375 27.296875 
Q 18.109375 17.390625 22.1875 11.75 
Q 26.265625 6.109375 33.40625 6.109375 
Q 40.53125 6.109375 44.609375 11.75 
Q 48.6875 17.390625 48.6875 27.296875 
z
" id="DejaVuSans-112"/>
        <path d="M 41.109375 46.296875 
Q 39.59375 47.171875 37.8125 47.578125 
Q 36.03125 48 33.890625 48 
Q 26.265625 48 22.1875 43.046875 
Q 18.109375 38.09375 18.109375 28.8125 
L 18.109375 0 
L 9.078125 0 
L 9.078125 54.6875 
L 18.109375 54.6875 
L 18.109375 46.1875 
Q 20.953125 51.171875 25.484375 53.578125 
Q 30.03125 56 36.53125 56 
Q 37.453125 56 38.578125 55.875 
Q 39.703125 55.765625 41.0625 55.515625 
z
" id="DejaVuSans-114"/>
        <path d="M 30.609375 48.390625 
Q 23.390625 48.390625 19.1875 42.75 
Q 14.984375 37.109375 14.984375 27.296875 
Q 14.984375 17.484375 19.15625 11.84375 
Q 23.34375 6.203125 30.609375 6.203125 
Q 37.796875 6.203125 41.984375 11.859375 
Q 46.1875 17.53125 46.1875 27.296875 
Q 46.1875 37.015625 41.984375 42.703125 
Q 37.796875 48.390625 30.609375 48.390625 
z
M 30.609375 56 
Q 42.328125 56 49.015625 48.375 
Q 55.71875 40.765625 55.71875 27.296875 
Q 55.71875 13.875 49.015625 6.21875 
Q 42.328125 -1.421875 30.609375 -1.421875 
Q 18.84375 -1.421875 12.171875 6.21875 
Q 5.515625 13.875 5.515625 27.296875 
Q 5.515625 40.765625 12.171875 48.375 
Q 18.84375 56 30.609375 56 
z
" id="DejaVuSans-111"/>
        <path d="M 9.421875 54.6875 
L 18.40625 54.6875 
L 18.40625 0 
L 9.421875 0 
z
M 9.421875 75.984375 
L 18.40625 75.984375 
L 18.40625 64.59375 
L 9.421875 64.59375 
z
" id="DejaVuSans-105"/>
        <path d="M 37.109375 75.984375 
L 37.109375 68.5 
L 28.515625 68.5 
Q 23.6875 68.5 21.796875 66.546875 
Q 19.921875 64.59375 19.921875 59.515625 
L 19.921875 54.6875 
L 34.71875 54.6875 
L 34.71875 47.703125 
L 19.921875 47.703125 
L 19.921875 0 
L 10.890625 0 
L 10.890625 47.703125 
L 2.296875 47.703125 
L 2.296875 54.6875 
L 10.890625 54.6875 
L 10.890625 58.5 
Q 10.890625 67.625 15.140625 71.796875 
Q 19.390625 75.984375 28.609375 75.984375 
z
" id="DejaVuSans-102"/>
        <path d="M 10.6875 12.40625 
L 21 12.40625 
L 21 0 
L 10.6875 0 
z
" id="DejaVuSans-46"/>
       </defs>
       <use xlink:href="#DejaVuSans-67"/>
       <use x="69.824219" xlink:href="#DejaVuSans-101"/>
       <use x="131.347656" xlink:href="#DejaVuSans-108"/>
       <use x="159.130859" xlink:href="#DejaVuSans-108"/>
       <use x="186.914062" xlink:href="#DejaVuSans-32"/>
       <use x="218.701172" xlink:href="#DejaVuSans-112"/>
       <use x="282.177734" xlink:href="#DejaVuSans-114"/>
       <use x="321.041016" xlink:href="#DejaVuSans-111"/>
       <use x="382.222656" xlink:href="#DejaVuSans-108"/>
       <use x="410.005859" xlink:href="#DejaVuSans-105"/>
       <use x="437.789062" xlink:href="#DejaVuSans-102"/>
       <use x="465.744141" xlink:href="#DejaVuSans-46"/>
      </g>
     </g>
    </g>
    <g id="xtick_2">
     <g id="line2d_2">
      <g>
       <use style="stroke:#000000;stroke-width:0.8;" x="205.74947" xlink:href="#me3c11a96f6" y="202.983105"/>
      </g>
     </g>
     <g id="text_2">
      <!-- Cell clustering -->
      <g transform="translate(66.850422 261.591593)rotate(-15)scale(0.2 -0.2)">
       <defs>
        <path d="M 48.78125 52.59375 
L 48.78125 44.1875 
Q 44.96875 46.296875 41.140625 47.34375 
Q 37.3125 48.390625 33.40625 48.390625 
Q 24.65625 48.390625 19.8125 42.84375 
Q 14.984375 37.3125 14.984375 27.296875 
Q 14.984375 17.28125 19.8125 11.734375 
Q 24.65625 6.203125 33.40625 6.203125 
Q 37.3125 6.203125 41.140625 7.25 
Q 44.96875 8.296875 48.78125 10.40625 
L 48.78125 2.09375 
Q 45.015625 0.34375 40.984375 -0.53125 
Q 36.96875 -1.421875 32.421875 -1.421875 
Q 20.0625 -1.421875 12.78125 6.34375 
Q 5.515625 14.109375 5.515625 27.296875 
Q 5.515625 40.671875 12.859375 48.328125 
Q 20.21875 56 33.015625 56 
Q 37.15625 56 41.109375 55.140625 
Q 45.0625 54.296875 48.78125 52.59375 
z
" id="DejaVuSans-99"/>
        <path d="M 8.5 21.578125 
L 8.5 54.6875 
L 17.484375 54.6875 
L 17.484375 21.921875 
Q 17.484375 14.15625 20.5 10.265625 
Q 23.53125 6.390625 29.59375 6.390625 
Q 36.859375 6.390625 41.078125 11.03125 
Q 45.3125 15.671875 45.3125 23.6875 
L 45.3125 54.6875 
L 54.296875 54.6875 
L 54.296875 0 
L 45.3125 0 
L 45.3125 8.40625 
Q 42.046875 3.421875 37.71875 1 
Q 33.40625 -1.421875 27.6875 -1.421875 
Q 18.265625 -1.421875 13.375 4.4375 
Q 8.5 10.296875 8.5 21.578125 
z
M 31.109375 56 
z
" id="DejaVuSans-117"/>
        <path d="M 44.28125 53.078125 
L 44.28125 44.578125 
Q 40.484375 46.53125 36.375 47.5 
Q 32.28125 48.484375 27.875 48.484375 
Q 21.1875 48.484375 17.84375 46.4375 
Q 14.5 44.390625 14.5 40.28125 
Q 14.5 37.15625 16.890625 35.375 
Q 19.28125 33.59375 26.515625 31.984375 
L 29.59375 31.296875 
Q 39.15625 29.25 43.1875 25.515625 
Q 47.21875 21.78125 47.21875 15.09375 
Q 47.21875 7.46875 41.1875 3.015625 
Q 35.15625 -1.421875 24.609375 -1.421875 
Q 20.21875 -1.421875 15.453125 -0.5625 
Q 10.6875 0.296875 5.421875 2 
L 5.421875 11.28125 
Q 10.40625 8.6875 15.234375 7.390625 
Q 20.0625 6.109375 24.8125 6.109375 
Q 31.15625 6.109375 34.5625 8.28125 
Q 37.984375 10.453125 37.984375 14.40625 
Q 37.984375 18.0625 35.515625 20.015625 
Q 33.0625 21.96875 24.703125 23.78125 
L 21.578125 24.515625 
Q 13.234375 26.265625 9.515625 29.90625 
Q 5.8125 33.546875 5.8125 39.890625 
Q 5.8125 47.609375 11.28125 51.796875 
Q 16.75 56 26.8125 56 
Q 31.78125 56 36.171875 55.265625 
Q 40.578125 54.546875 44.28125 53.078125 
z
" id="DejaVuSans-115"/>
        <path d="M 18.3125 70.21875 
L 18.3125 54.6875 
L 36.8125 54.6875 
L 36.8125 47.703125 
L 18.3125 47.703125 
L 18.3125 18.015625 
Q 18.3125 11.328125 20.140625 9.421875 
Q 21.96875 7.515625 27.59375 7.515625 
L 36.8125 7.515625 
L 36.8125 0 
L 27.59375 0 
Q 17.1875 0 13.234375 3.875 
Q 9.28125 7.765625 9.28125 18.015625 
L 9.28125 47.703125 
L 2.6875 47.703125 
L 2.6875 54.6875 
L 9.28125 54.6875 
L 9.28125 70.21875 
z
" id="DejaVuSans-116"/>
        <path d="M 54.890625 33.015625 
L 54.890625 0 
L 45.90625 0 
L 45.90625 32.71875 
Q 45.90625 40.484375 42.875 44.328125 
Q 39.84375 48.1875 33.796875 48.1875 
Q 26.515625 48.1875 22.3125 43.546875 
Q 18.109375 38.921875 18.109375 30.90625 
L 18.109375 0 
L 9.078125 0 
L 9.078125 54.6875 
L 18.109375 54.6875 
L 18.109375 46.1875 
Q 21.34375 51.125 25.703125 53.5625 
Q 30.078125 56 35.796875 56 
Q 45.21875 56 50.046875 50.171875 
Q 54.890625 44.34375 54.890625 33.015625 
z
" id="DejaVuSans-110"/>
        <path d="M 45.40625 27.984375 
Q 45.40625 37.75 41.375 43.109375 
Q 37.359375 48.484375 30.078125 48.484375 
Q 22.859375 48.484375 18.828125 43.109375 
Q 14.796875 37.75 14.796875 27.984375 
Q 14.796875 18.265625 18.828125 12.890625 
Q 22.859375 7.515625 30.078125 7.515625 
Q 37.359375 7.515625 41.375 12.890625 
Q 45.40625 18.265625 45.40625 27.984375 
z
M 54.390625 6.78125 
Q 54.390625 -7.171875 48.1875 -13.984375 
Q 42 -20.796875 29.203125 -20.796875 
Q 24.46875 -20.796875 20.265625 -20.09375 
Q 16.0625 -19.390625 12.109375 -17.921875 
L 12.109375 -9.1875 
Q 16.0625 -11.328125 19.921875 -12.34375 
Q 23.78125 -13.375 27.78125 -13.375 
Q 36.625 -13.375 41.015625 -8.765625 
Q 45.40625 -4.15625 45.40625 5.171875 
L 45.40625 9.625 
Q 42.625 4.78125 38.28125 2.390625 
Q 33.9375 0 27.875 0 
Q 17.828125 0 11.671875 7.65625 
Q 5.515625 15.328125 5.515625 27.984375 
Q 5.515625 40.671875 11.671875 48.328125 
Q 17.828125 56 27.875 56 
Q 33.9375 56 38.28125 53.609375 
Q 42.625 51.21875 45.40625 46.390625 
L 45.40625 54.6875 
L 54.390625 54.6875 
z
" id="DejaVuSans-103"/>
       </defs>
       <use xlink:href="#DejaVuSans-67"/>
       <use x="69.824219" xlink:href="#DejaVuSans-101"/>
       <use x="131.347656" xlink:href="#DejaVuSans-108"/>
       <use x="159.130859" xlink:href="#DejaVuSans-108"/>
       <use x="186.914062" xlink:href="#DejaVuSans-32"/>
       <use x="218.701172" xlink:href="#DejaVuSans-99"/>
       <use x="273.681641" xlink:href="#DejaVuSans-108"/>
       <use x="301.464844" xlink:href="#DejaVuSans-117"/>
       <use x="364.84375" xlink:href="#DejaVuSans-115"/>
       <use x="416.943359" xlink:href="#DejaVuSans-116"/>
       <use x="456.152344" xlink:href="#DejaVuSans-101"/>
       <use x="517.675781" xlink:href="#DejaVuSans-114"/>
       <use x="558.789062" xlink:href="#DejaVuSans-105"/>
       <use x="586.572266" xlink:href="#DejaVuSans-110"/>
       <use x="649.951172" xlink:href="#DejaVuSans-103"/>
      </g>
     </g>
    </g>
    <g id="xtick_3">
     <g id="line2d_3">
      <g>
       <use style="stroke:#000000;stroke-width:0.8;" x="283.555" xlink:href="#me3c11a96f6" y="202.983105"/>
      </g>
     </g>
     <g id="text_3">
      <!-- Epidemiology -->
      <g transform="translate(151.598544 259.731331)rotate(-15)scale(0.2 -0.2)">
       <defs>
        <path d="M 9.8125 72.90625 
L 55.90625 72.90625 
L 55.90625 64.59375 
L 19.671875 64.59375 
L 19.671875 43.015625 
L 54.390625 43.015625 
L 54.390625 34.71875 
L 19.671875 34.71875 
L 19.671875 8.296875 
L 56.78125 8.296875 
L 56.78125 0 
L 9.8125 0 
z
" id="DejaVuSans-69"/>
        <path d="M 45.40625 46.390625 
L 45.40625 75.984375 
L 54.390625 75.984375 
L 54.390625 0 
L 45.40625 0 
L 45.40625 8.203125 
Q 42.578125 3.328125 38.25 0.953125 
Q 33.9375 -1.421875 27.875 -1.421875 
Q 17.96875 -1.421875 11.734375 6.484375 
Q 5.515625 14.40625 5.515625 27.296875 
Q 5.515625 40.1875 11.734375 48.09375 
Q 17.96875 56 27.875 56 
Q 33.9375 56 38.25 53.625 
Q 42.578125 51.265625 45.40625 46.390625 
z
M 14.796875 27.296875 
Q 14.796875 17.390625 18.875 11.75 
Q 22.953125 6.109375 30.078125 6.109375 
Q 37.203125 6.109375 41.296875 11.75 
Q 45.40625 17.390625 45.40625 27.296875 
Q 45.40625 37.203125 41.296875 42.84375 
Q 37.203125 48.484375 30.078125 48.484375 
Q 22.953125 48.484375 18.875 42.84375 
Q 14.796875 37.203125 14.796875 27.296875 
z
" id="DejaVuSans-100"/>
        <path d="M 52 44.1875 
Q 55.375 50.25 60.0625 53.125 
Q 64.75 56 71.09375 56 
Q 79.640625 56 84.28125 50.015625 
Q 88.921875 44.046875 88.921875 33.015625 
L 88.921875 0 
L 79.890625 0 
L 79.890625 32.71875 
Q 79.890625 40.578125 77.09375 44.375 
Q 74.3125 48.1875 68.609375 48.1875 
Q 61.625 48.1875 57.5625 43.546875 
Q 53.515625 38.921875 53.515625 30.90625 
L 53.515625 0 
L 44.484375 0 
L 44.484375 32.71875 
Q 44.484375 40.625 41.703125 44.40625 
Q 38.921875 48.1875 33.109375 48.1875 
Q 26.21875 48.1875 22.15625 43.53125 
Q 18.109375 38.875 18.109375 30.90625 
L 18.109375 0 
L 9.078125 0 
L 9.078125 54.6875 
L 18.109375 54.6875 
L 18.109375 46.1875 
Q 21.1875 51.21875 25.484375 53.609375 
Q 29.78125 56 35.6875 56 
Q 41.65625 56 45.828125 52.96875 
Q 50 49.953125 52 44.1875 
z
" id="DejaVuSans-109"/>
        <path d="M 32.171875 -5.078125 
Q 28.375 -14.84375 24.75 -17.8125 
Q 21.140625 -20.796875 15.09375 -20.796875 
L 7.90625 -20.796875 
L 7.90625 -13.28125 
L 13.1875 -13.28125 
Q 16.890625 -13.28125 18.9375 -11.515625 
Q 21 -9.765625 23.484375 -3.21875 
L 25.09375 0.875 
L 2.984375 54.6875 
L 12.5 54.6875 
L 29.59375 11.921875 
L 46.6875 54.6875 
L 56.203125 54.6875 
z
" id="DejaVuSans-121"/>
       </defs>
       <use xlink:href="#DejaVuSans-69"/>
       <use x="63.183594" xlink:href="#DejaVuSans-112"/>
       <use x="126.660156" xlink:href="#DejaVuSans-105"/>
       <use x="154.443359" xlink:href="#DejaVuSans-100"/>
       <use x="217.919922" xlink:href="#DejaVuSans-101"/>
       <use x="279.443359" xlink:href="#DejaVuSans-109"/>
       <use x="376.855469" xlink:href="#DejaVuSans-105"/>
       <use x="404.638672" xlink:href="#DejaVuSans-111"/>
       <use x="465.820312" xlink:href="#DejaVuSans-108"/>
       <use x="493.603516" xlink:href="#DejaVuSans-111"/>
       <use x="554.785156" xlink:href="#DejaVuSans-103"/>
       <use x="618.261719" xlink:href="#DejaVuSans-121"/>
      </g>
     </g>
    </g>
    <g id="xtick_4">
     <g id="line2d_4">
      <g>
       <use style="stroke:#000000;stroke-width:0.8;" x="361.36053" xlink:href="#me3c11a96f6" y="202.983105"/>
      </g>
     </g>
     <g id="text_4">
      <!-- Neuroscience -->
      <g transform="translate(229.681777 259.65692)rotate(-15)scale(0.2 -0.2)">
       <defs>
        <path d="M 9.8125 72.90625 
L 23.09375 72.90625 
L 55.421875 11.921875 
L 55.421875 72.90625 
L 64.984375 72.90625 
L 64.984375 0 
L 51.703125 0 
L 19.390625 60.984375 
L 19.390625 0 
L 9.8125 0 
z
" id="DejaVuSans-78"/>
       </defs>
       <use xlink:href="#DejaVuSans-78"/>
       <use x="74.804688" xlink:href="#DejaVuSans-101"/>
       <use x="136.328125" xlink:href="#DejaVuSans-117"/>
       <use x="199.707031" xlink:href="#DejaVuSans-114"/>
       <use x="238.570312" xlink:href="#DejaVuSans-111"/>
       <use x="299.751953" xlink:href="#DejaVuSans-115"/>
       <use x="351.851562" xlink:href="#DejaVuSans-99"/>
       <use x="406.832031" xlink:href="#DejaVuSans-105"/>
       <use x="434.615234" xlink:href="#DejaVuSans-101"/>
       <use x="496.138672" xlink:href="#DejaVuSans-110"/>
       <use x="559.517578" xlink:href="#DejaVuSans-99"/>
       <use x="614.498047" xlink:href="#DejaVuSans-101"/>
      </g>
     </g>
    </g>
    <g id="xtick_5">
     <g id="line2d_5">
      <g>
       <use style="stroke:#000000;stroke-width:0.8;" x="439.16606" xlink:href="#me3c11a96f6" y="202.983105"/>
      </g>
     </g>
     <g id="text_5">
      <!-- Oncology -->
      <g transform="translate(347.310618 248.986296)rotate(-15)scale(0.2 -0.2)">
       <defs>
        <path d="M 39.40625 66.21875 
Q 28.65625 66.21875 22.328125 58.203125 
Q 16.015625 50.203125 16.015625 36.375 
Q 16.015625 22.609375 22.328125 14.59375 
Q 28.65625 6.59375 39.40625 6.59375 
Q 50.140625 6.59375 56.421875 14.59375 
Q 62.703125 22.609375 62.703125 36.375 
Q 62.703125 50.203125 56.421875 58.203125 
Q 50.140625 66.21875 39.40625 66.21875 
z
M 39.40625 74.21875 
Q 54.734375 74.21875 63.90625 63.9375 
Q 73.09375 53.65625 73.09375 36.375 
Q 73.09375 19.140625 63.90625 8.859375 
Q 54.734375 -1.421875 39.40625 -1.421875 
Q 24.03125 -1.421875 14.8125 8.828125 
Q 5.609375 19.09375 5.609375 36.375 
Q 5.609375 53.65625 14.8125 63.9375 
Q 24.03125 74.21875 39.40625 74.21875 
z
" id="DejaVuSans-79"/>
       </defs>
       <use xlink:href="#DejaVuSans-79"/>
       <use x="78.710938" xlink:href="#DejaVuSans-110"/>
       <use x="142.089844" xlink:href="#DejaVuSans-99"/>
       <use x="197.070312" xlink:href="#DejaVuSans-111"/>
       <use x="258.251953" xlink:href="#DejaVuSans-108"/>
       <use x="286.035156" xlink:href="#DejaVuSans-111"/>
       <use x="347.216797" xlink:href="#DejaVuSans-103"/>
       <use x="410.693359" xlink:href="#DejaVuSans-121"/>
      </g>
     </g>
    </g>
   </g>
   <g id="matplotlib.axis_2">
    <g id="ytick_1">
     <g id="line2d_6">
      <path clip-path="url(#pddd2cd9579)" d="M 84.71 202.983105 
L 482.4 202.983105 
" style="fill:none;stroke:#999999;stroke-dasharray:1,1.65;stroke-dashoffset:0;"/>
     </g>
     <g id="line2d_7">
      <defs>
       <path d="M 0 0 
L -3.5 0 
" id="ma0170a03df" style="stroke:#000000;stroke-width:0.8;"/>
      </defs>
      <g>
       <use style="stroke:#000000;stroke-width:0.8;" x="84.71" xlink:href="#ma0170a03df" y="202.983105"/>
      </g>
     </g>
     <g id="text_6">
      <!-- 0.0 -->
      <g transform="translate(45.90375 210.581542)scale(0.2 -0.2)">
       <defs>
        <path d="M 31.78125 66.40625 
Q 24.171875 66.40625 20.328125 58.90625 
Q 16.5 51.421875 16.5 36.375 
Q 16.5 21.390625 20.328125 13.890625 
Q 24.171875 6.390625 31.78125 6.390625 
Q 39.453125 6.390625 43.28125 13.890625 
Q 47.125 21.390625 47.125 36.375 
Q 47.125 51.421875 43.28125 58.90625 
Q 39.453125 66.40625 31.78125 66.40625 
z
M 31.78125 74.21875 
Q 44.046875 74.21875 50.515625 64.515625 
Q 56.984375 54.828125 56.984375 36.375 
Q 56.984375 17.96875 50.515625 8.265625 
Q 44.046875 -1.421875 31.78125 -1.421875 
Q 19.53125 -1.421875 13.0625 8.265625 
Q 6.59375 17.96875 6.59375 36.375 
Q 6.59375 54.828125 13.0625 64.515625 
Q 19.53125 74.21875 31.78125 74.21875 
z
" id="DejaVuSans-48"/>
       </defs>
       <use xlink:href="#DejaVuSans-48"/>
       <use x="63.623047" xlink:href="#DejaVuSans-46"/>
       <use x="95.410156" xlink:href="#DejaVuSans-48"/>
      </g>
     </g>
    </g>
    <g id="ytick_2">
     <g id="line2d_8">
      <path clip-path="url(#pddd2cd9579)" d="M 84.71 148.772699 
L 482.4 148.772699 
" style="fill:none;stroke:#999999;stroke-dasharray:1,1.65;stroke-dashoffset:0;"/>
     </g>
     <g id="line2d_9">
      <g>
       <use style="stroke:#000000;stroke-width:0.8;" x="84.71" xlink:href="#ma0170a03df" y="148.772699"/>
      </g>
     </g>
     <g id="text_7">
      <!-- 0.5 -->
      <g transform="translate(45.90375 156.371137)scale(0.2 -0.2)">
       <defs>
        <path d="M 10.796875 72.90625 
L 49.515625 72.90625 
L 49.515625 64.59375 
L 19.828125 64.59375 
L 19.828125 46.734375 
Q 21.96875 47.46875 24.109375 47.828125 
Q 26.265625 48.1875 28.421875 48.1875 
Q 40.625 48.1875 47.75 41.5 
Q 54.890625 34.8125 54.890625 23.390625 
Q 54.890625 11.625 47.5625 5.09375 
Q 40.234375 -1.421875 26.90625 -1.421875 
Q 22.3125 -1.421875 17.546875 -0.640625 
Q 12.796875 0.140625 7.71875 1.703125 
L 7.71875 11.625 
Q 12.109375 9.234375 16.796875 8.0625 
Q 21.484375 6.890625 26.703125 6.890625 
Q 35.15625 6.890625 40.078125 11.328125 
Q 45.015625 15.765625 45.015625 23.390625 
Q 45.015625 31 40.078125 35.4375 
Q 35.15625 39.890625 26.703125 39.890625 
Q 22.75 39.890625 18.8125 39.015625 
Q 14.890625 38.140625 10.796875 36.28125 
z
" id="DejaVuSans-53"/>
       </defs>
       <use xlink:href="#DejaVuSans-48"/>
       <use x="63.623047" xlink:href="#DejaVuSans-46"/>
       <use x="95.410156" xlink:href="#DejaVuSans-53"/>
      </g>
     </g>
    </g>
    <g id="ytick_3">
     <g id="line2d_10">
      <path clip-path="url(#pddd2cd9579)" d="M 84.71 94.562294 
L 482.4 94.562294 
" style="fill:none;stroke:#999999;stroke-dasharray:1,1.65;stroke-dashoffset:0;"/>
     </g>
     <g id="line2d_11">
      <g>
       <use style="stroke:#000000;stroke-width:0.8;" x="84.71" xlink:href="#ma0170a03df" y="94.562294"/>
      </g>
     </g>
     <g id="text_8">
      <!-- 1.0 -->
      <g transform="translate(45.90375 102.160731)scale(0.2 -0.2)">
       <defs>
        <path d="M 12.40625 8.296875 
L 28.515625 8.296875 
L 28.515625 63.921875 
L 10.984375 60.40625 
L 10.984375 69.390625 
L 28.421875 72.90625 
L 38.28125 72.90625 
L 38.28125 8.296875 
L 54.390625 8.296875 
L 54.390625 0 
L 12.40625 0 
z
" id="DejaVuSans-49"/>
       </defs>
       <use xlink:href="#DejaVuSans-49"/>
       <use x="63.623047" xlink:href="#DejaVuSans-46"/>
       <use x="95.410156" xlink:href="#DejaVuSans-48"/>
      </g>
     </g>
    </g>
    <g id="ytick_4">
     <g id="line2d_12">
      <path clip-path="url(#pddd2cd9579)" d="M 84.71 40.351888 
L 482.4 40.351888 
" style="fill:none;stroke:#999999;stroke-dasharray:1,1.65;stroke-dashoffset:0;"/>
     </g>
     <g id="line2d_13">
      <g>
       <use style="stroke:#000000;stroke-width:0.8;" x="84.71" xlink:href="#ma0170a03df" y="40.351888"/>
      </g>
     </g>
     <g id="text_9">
      <!-- 1.5 -->
      <g transform="translate(45.90375 47.950325)scale(0.2 -0.2)">
       <use xlink:href="#DejaVuSans-49"/>
       <use x="63.623047" xlink:href="#DejaVuSans-46"/>
       <use x="95.410156" xlink:href="#DejaVuSans-53"/>
      </g>
     </g>
    </g>
    <g id="text_10">
     <!-- Speedup -->
     <g transform="translate(37.744375 156.329052)rotate(-90)scale(0.2 -0.2)">
      <defs>
       <path d="M 53.515625 70.515625 
L 53.515625 60.890625 
Q 47.90625 63.578125 42.921875 64.890625 
Q 37.9375 66.21875 33.296875 66.21875 
Q 25.25 66.21875 20.875 63.09375 
Q 16.5 59.96875 16.5 54.203125 
Q 16.5 49.359375 19.40625 46.890625 
Q 22.3125 44.4375 30.421875 42.921875 
L 36.375 41.703125 
Q 47.40625 39.59375 52.65625 34.296875 
Q 57.90625 29 57.90625 20.125 
Q 57.90625 9.515625 50.796875 4.046875 
Q 43.703125 -1.421875 29.984375 -1.421875 
Q 24.8125 -1.421875 18.96875 -0.25 
Q 13.140625 0.921875 6.890625 3.21875 
L 6.890625 13.375 
Q 12.890625 10.015625 18.65625 8.296875 
Q 24.421875 6.59375 29.984375 6.59375 
Q 38.421875 6.59375 43.015625 9.90625 
Q 47.609375 13.234375 47.609375 19.390625 
Q 47.609375 24.75 44.3125 27.78125 
Q 41.015625 30.8125 33.5 32.328125 
L 27.484375 33.5 
Q 16.453125 35.6875 11.515625 40.375 
Q 6.59375 45.0625 6.59375 53.421875 
Q 6.59375 63.09375 13.40625 68.65625 
Q 20.21875 74.21875 32.171875 74.21875 
Q 37.3125 74.21875 42.625 73.28125 
Q 47.953125 72.359375 53.515625 70.515625 
z
" id="DejaVuSans-83"/>
      </defs>
      <use xlink:href="#DejaVuSans-83"/>
      <use x="63.476562" xlink:href="#DejaVuSans-112"/>
      <use x="126.953125" xlink:href="#DejaVuSans-101"/>
      <use x="188.476562" xlink:href="#DejaVuSans-101"/>
      <use x="250" xlink:href="#DejaVuSans-100"/>
      <use x="313.476562" xlink:href="#DejaVuSans-117"/>
      <use x="376.855469" xlink:href="#DejaVuSans-112"/>
     </g>
    </g>
   </g>
   <g id="patch_3">
    <path d="M 84.71 202.983105 
L 84.71 21.6 
" style="fill:none;stroke:#000000;stroke-linecap:square;stroke-linejoin:miter;stroke-width:0.8;"/>
   </g>
   <g id="patch_4">
    <path d="M 482.4 202.983105 
L 482.4 21.6 
" style="fill:none;stroke:#000000;stroke-linecap:square;stroke-linejoin:miter;stroke-width:0.8;"/>
   </g>
   <g id="patch_5">
    <path d="M 84.71 202.983105 
L 482.4 202.983105 
" style="fill:none;stroke:#000000;stroke-linecap:square;stroke-linejoin:miter;stroke-width:0.8;"/>
   </g>
   <g id="patch_6">
    <path d="M 84.71 21.6 
L 482.4 21.6 
" style="fill:none;stroke:#000000;stroke-linecap:square;stroke-linejoin:miter;stroke-width:0.8;"/>
   </g>
   <g id="patch_7">
    <path clip-path="url(#pddd2cd9579)" d="M 102.786818 202.983105 
L 114.198296 202.983105 
L 114.198296 94.562294 
L 102.786818 94.562294 
z
" style="fill:url(#hbfccd52901);stroke:#000000;stroke-linejoin:miter;"/>
   </g>
   <g id="patch_8">
    <path clip-path="url(#pddd2cd9579)" d="M 180.592348 202.983105 
L 192.003826 202.983105 
L 192.003826 94.562294 
L 180.592348 94.562294 
z
" style="fill:url(#hbfccd52901);stroke:#000000;stroke-linejoin:miter;"/>
   </g>
   <g id="patch_9">
    <path clip-path="url(#pddd2cd9579)" d="M 258.397879 202.983105 
L 269.809356 202.983105 
L 269.809356 94.562294 
L 258.397879 94.562294 
z
" style="fill:url(#hbfccd52901);stroke:#000000;stroke-linejoin:miter;"/>
   </g>
   <g id="patch_10">
    <path clip-path="url(#pddd2cd9579)" d="M 336.203409 202.983105 
L 347.614887 202.983105 
L 347.614887 94.562294 
L 336.203409 94.562294 
z
" style="fill:url(#hbfccd52901);stroke:#000000;stroke-linejoin:miter;"/>
   </g>
   <g id="patch_11">
    <path clip-path="url(#pddd2cd9579)" d="M 414.008939 202.983105 
L 425.420417 202.983105 
L 425.420417 94.562294 
L 414.008939 94.562294 
z
" style="fill:url(#hbfccd52901);stroke:#000000;stroke-linejoin:miter;"/>
   </g>
   <g id="patch_12">
    <path clip-path="url(#pddd2cd9579)" d="M 115.754407 202.983105 
L 127.165884 202.983105 
L 127.165884 94.994555 
L 115.754407 94.994555 
z
" style="fill:url(#h4ee467b997);stroke:#000000;stroke-linejoin:miter;"/>
   </g>
   <g id="patch_13">
    <path clip-path="url(#pddd2cd9579)" d="M 193.559937 202.983105 
L 204.971415 202.983105 
L 204.971415 91.929709 
L 193.559937 91.929709 
z
" style="fill:url(#h4ee467b997);stroke:#000000;stroke-linejoin:miter;"/>
   </g>
   <g id="patch_14">
    <path clip-path="url(#pddd2cd9579)" d="M 271.365467 202.983105 
L 282.776945 202.983105 
L 282.776945 79.633393 
L 271.365467 79.633393 
z
" style="fill:url(#h4ee467b997);stroke:#000000;stroke-linejoin:miter;"/>
   </g>
   <g id="patch_15">
    <path clip-path="url(#pddd2cd9579)" d="M 349.170997 202.983105 
L 360.582475 202.983105 
L 360.582475 95.030985 
L 349.170997 95.030985 
z
" style="fill:url(#h4ee467b997);stroke:#000000;stroke-linejoin:miter;"/>
   </g>
   <g id="patch_16">
    <path clip-path="url(#pddd2cd9579)" d="M 426.976527 202.983105 
L 438.388005 202.983105 
L 438.388005 89.893925 
L 426.976527 89.893925 
z
" style="fill:url(#h4ee467b997);stroke:#000000;stroke-linejoin:miter;"/>
   </g>
   <g id="patch_17">
    <path clip-path="url(#pddd2cd9579)" d="M 128.721995 202.983105 
L 140.133473 202.983105 
L 140.133473 91.712173 
L 128.721995 91.712173 
z
" style="fill:url(#h80424918c4);stroke:#000000;stroke-linejoin:miter;"/>
   </g>
   <g id="patch_18">
    <path clip-path="url(#pddd2cd9579)" d="M 206.527525 202.983105 
L 217.939003 202.983105 
L 217.939003 77.792144 
L 206.527525 77.792144 
z
" style="fill:url(#h80424918c4);stroke:#000000;stroke-linejoin:miter;"/>
   </g>
   <g id="patch_19">
    <path clip-path="url(#pddd2cd9579)" d="M 284.333055 202.983105 
L 295.744533 202.983105 
L 295.744533 37.96979 
L 284.333055 37.96979 
z
" style="fill:url(#h80424918c4);stroke:#000000;stroke-linejoin:miter;"/>
   </g>
   <g id="patch_20">
    <path clip-path="url(#pddd2cd9579)" d="M 362.138585 202.983105 
L 373.550063 202.983105 
L 373.550063 85.474394 
L 362.138585 85.474394 
z
" style="fill:url(#h80424918c4);stroke:#000000;stroke-linejoin:miter;"/>
   </g>
   <g id="patch_21">
    <path clip-path="url(#pddd2cd9579)" d="M 439.944116 202.983105 
L 451.355593 202.983105 
L 451.355593 69.266659 
L 439.944116 69.266659 
z
" style="fill:url(#h80424918c4);stroke:#000000;stroke-linejoin:miter;"/>
   </g>
   <g id="patch_22">
    <path clip-path="url(#pddd2cd9579)" d="M 141.689583 202.983105 
L 153.101061 202.983105 
L 153.101061 90.550487 
L 141.689583 90.550487 
z
" style="fill:url(#hd5bac40f38);stroke:#000000;stroke-linejoin:miter;"/>
   </g>
   <g id="patch_23">
    <path clip-path="url(#pddd2cd9579)" d="M 219.495113 202.983105 
L 230.906591 202.983105 
L 230.906591 79.703922 
L 219.495113 79.703922 
z
" style="fill:url(#hd5bac40f38);stroke:#000000;stroke-linejoin:miter;"/>
   </g>
   <g id="patch_24">
    <path clip-path="url(#pddd2cd9579)" d="M 297.300644 202.983105 
L 308.712121 202.983105 
L 308.712121 30.837263 
L 297.300644 30.837263 
z
" style="fill:url(#hd5bac40f38);stroke:#000000;stroke-linejoin:miter;"/>
   </g>
   <g id="patch_25">
    <path clip-path="url(#pddd2cd9579)" d="M 375.106174 202.983105 
L 386.517652 202.983105 
L 386.517652 84.893533 
L 375.106174 84.893533 
z
" style="fill:url(#hd5bac40f38);stroke:#000000;stroke-linejoin:miter;"/>
   </g>
   <g id="patch_26">
    <path clip-path="url(#pddd2cd9579)" d="M 452.911704 202.983105 
L 464.323182 202.983105 
L 464.323182 68.431578 
L 452.911704 68.431578 
z
" style="fill:url(#hd5bac40f38);stroke:#000000;stroke-linejoin:miter;"/>
   </g>
   <g id="LineCollection_1">
    <path clip-path="url(#pddd2cd9579)" d="M 108.492557 94.562294 
L 108.492557 94.562294 
" style="fill:none;stroke:#000000;stroke-width:2;"/>
    <path clip-path="url(#pddd2cd9579)" d="M 186.298087 94.562294 
L 186.298087 94.562294 
" style="fill:none;stroke:#000000;stroke-width:2;"/>
    <path clip-path="url(#pddd2cd9579)" d="M 264.103617 94.562294 
L 264.103617 94.562294 
" style="fill:none;stroke:#000000;stroke-width:2;"/>
    <path clip-path="url(#pddd2cd9579)" d="M 341.909148 94.562294 
L 341.909148 94.562294 
" style="fill:none;stroke:#000000;stroke-width:2;"/>
    <path clip-path="url(#pddd2cd9579)" d="M 419.714678 94.562294 
L 419.714678 94.562294 
" style="fill:none;stroke:#000000;stroke-width:2;"/>
   </g>
   <g id="LineCollection_2">
    <path clip-path="url(#pddd2cd9579)" d="M 121.460145 96.431594 
L 121.460145 93.557515 
" style="fill:none;stroke:#000000;stroke-width:2;"/>
    <path clip-path="url(#pddd2cd9579)" d="M 199.265676 97.33889 
L 199.265676 86.520527 
" style="fill:none;stroke:#000000;stroke-width:2;"/>
    <path clip-path="url(#pddd2cd9579)" d="M 277.071206 81.471909 
L 277.071206 77.794877 
" style="fill:none;stroke:#000000;stroke-width:2;"/>
    <path clip-path="url(#pddd2cd9579)" d="M 354.876736 96.063699 
L 354.876736 93.998272 
" style="fill:none;stroke:#000000;stroke-width:2;"/>
    <path clip-path="url(#pddd2cd9579)" d="M 432.682266 90.054553 
L 432.682266 89.733297 
" style="fill:none;stroke:#000000;stroke-width:2;"/>
   </g>
   <g id="LineCollection_3">
    <path clip-path="url(#pddd2cd9579)" d="M 134.427734 93.980697 
L 134.427734 89.44365 
" style="fill:none;stroke:#000000;stroke-width:2;"/>
    <path clip-path="url(#pddd2cd9579)" d="M 212.233264 84.020352 
L 212.233264 71.563936 
" style="fill:none;stroke:#000000;stroke-width:2;"/>
    <path clip-path="url(#pddd2cd9579)" d="M 290.038794 39.030631 
L 290.038794 36.90895 
" style="fill:none;stroke:#000000;stroke-width:2;"/>
    <path clip-path="url(#pddd2cd9579)" d="M 367.844324 86.267522 
L 367.844324 84.681266 
" style="fill:none;stroke:#000000;stroke-width:2;"/>
    <path clip-path="url(#pddd2cd9579)" d="M 445.649855 69.825317 
L 445.649855 68.708001 
" style="fill:none;stroke:#000000;stroke-width:2;"/>
   </g>
   <g id="LineCollection_4">
    <path clip-path="url(#pddd2cd9579)" d="M 147.395322 92.556197 
L 147.395322 88.544777 
" style="fill:none;stroke:#000000;stroke-width:2;"/>
    <path clip-path="url(#pddd2cd9579)" d="M 225.200852 85.460608 
L 225.200852 73.947237 
" style="fill:none;stroke:#000000;stroke-width:2;"/>
    <path clip-path="url(#pddd2cd9579)" d="M 303.006383 31.437234 
L 303.006383 30.237291 
" style="fill:none;stroke:#000000;stroke-width:2;"/>
    <path clip-path="url(#pddd2cd9579)" d="M 380.811913 85.807178 
L 380.811913 83.979887 
" style="fill:none;stroke:#000000;stroke-width:2;"/>
    <path clip-path="url(#pddd2cd9579)" d="M 458.617443 68.629361 
L 458.617443 68.233795 
" style="fill:none;stroke:#000000;stroke-width:2;"/>
   </g>
  </g>
 </g>
 <defs>
  <clipPath id="pddd2cd9579">
   <rect height="181.383105" width="397.69" x="84.71" y="21.6"/>
  </clipPath>
 </defs>
 <defs>
  <pattern height="72" id="hbfccd52901" patternUnits="userSpaceOnUse" width="72" x="0" y="0">
   <rect fill="#fea1b2" height="73" width="73" x="0" y="0"/>
   <path d="M -36 36 
L 36 108 
M -30 30 
L 42 102 
M -24 24 
L 48 96 
M -18 18 
L 54 90 
M -12 12 
L 60 84 
M -6 6 
L 66 78 
M 0 0 
L 72 72 
M 6 -6 
L 78 66 
M 12 -12 
L 84 60 
M 18 -18 
L 90 54 
M 24 -24 
L 96 48 
M 30 -30 
L 102 42 
M 36 -36 
L 108 36 
" style="fill:#000000;stroke:#000000;stroke-linecap:butt;stroke-linejoin:miter;stroke-width:1.0;"/>
  </pattern>
  <pattern height="72" id="h4ee467b997" patternUnits="userSpaceOnUse" width="72" x="0" y="0">
   <rect fill="#ffebb3" height="73" width="73" x="0" y="0"/>
   <path d="M -36 36 
L 36 -36 
M -30 42 
L 42 -30 
M -24 48 
L 48 -24 
M -18 54 
L 54 -18 
M -12 60 
L 60 -12 
M -6 66 
L 66 -6 
M 0 72 
L 72 0 
M 6 78 
L 78 6 
M 12 84 
L 84 12 
M 18 90 
L 90 18 
M 24 96 
L 96 24 
M 30 102 
L 102 30 
M 36 108 
L 108 36 
" style="fill:#000000;stroke:#000000;stroke-linecap:butt;stroke-linejoin:miter;stroke-width:1.0;"/>
  </pattern>
  <pattern height="72" id="h80424918c4" patternUnits="userSpaceOnUse" width="72" x="0" y="0">
   <rect fill="#aee0d4" height="73" width="73" x="0" y="0"/>
   <path d="M 0 70 
L -0.587785 71.190983 
L -1.902113 71.381966 
L -0.951057 72.309017 
L -1.175571 73.618034 
L -0 73 
L 1.175571 73.618034 
L 0.951057 72.309017 
L 1.902113 71.381966 
L 0.587785 71.190983 
L 0 70 
M 6 70 
L 5.412215 71.190983 
L 4.097887 71.381966 
L 5.048943 72.309017 
L 4.824429 73.618034 
L 6 73 
L 7.175571 73.618034 
L 6.951057 72.309017 
L 7.902113 71.381966 
L 6.587785 71.190983 
L 6 70 
M 12 70 
L 11.412215 71.190983 
L 10.097887 71.381966 
L 11.048943 72.309017 
L 10.824429 73.618034 
L 12 73 
L 13.175571 73.618034 
L 12.951057 72.309017 
L 13.902113 71.381966 
L 12.587785 71.190983 
L 12 70 
M 18 70 
L 17.412215 71.190983 
L 16.097887 71.381966 
L 17.048943 72.309017 
L 16.824429 73.618034 
L 18 73 
L 19.175571 73.618034 
L 18.951057 72.309017 
L 19.902113 71.381966 
L 18.587785 71.190983 
L 18 70 
M 24 70 
L 23.412215 71.190983 
L 22.097887 71.381966 
L 23.048943 72.309017 
L 22.824429 73.618034 
L 24 73 
L 25.175571 73.618034 
L 24.951057 72.309017 
L 25.902113 71.381966 
L 24.587785 71.190983 
L 24 70 
M 30 70 
L 29.412215 71.190983 
L 28.097887 71.381966 
L 29.048943 72.309017 
L 28.824429 73.618034 
L 30 73 
L 31.175571 73.618034 
L 30.951057 72.309017 
L 31.902113 71.381966 
L 30.587785 71.190983 
L 30 70 
M 36 70 
L 35.412215 71.190983 
L 34.097887 71.381966 
L 35.048943 72.309017 
L 34.824429 73.618034 
L 36 73 
L 37.175571 73.618034 
L 36.951057 72.309017 
L 37.902113 71.381966 
L 36.587785 71.190983 
L 36 70 
M 42 70 
L 41.412215 71.190983 
L 40.097887 71.381966 
L 41.048943 72.309017 
L 40.824429 73.618034 
L 42 73 
L 43.175571 73.618034 
L 42.951057 72.309017 
L 43.902113 71.381966 
L 42.587785 71.190983 
L 42 70 
M 48 70 
L 47.412215 71.190983 
L 46.097887 71.381966 
L 47.048943 72.309017 
L 46.824429 73.618034 
L 48 73 
L 49.175571 73.618034 
L 48.951057 72.309017 
L 49.902113 71.381966 
L 48.587785 71.190983 
L 48 70 
M 54 70 
L 53.412215 71.190983 
L 52.097887 71.381966 
L 53.048943 72.309017 
L 52.824429 73.618034 
L 54 73 
L 55.175571 73.618034 
L 54.951057 72.309017 
L 55.902113 71.381966 
L 54.587785 71.190983 
L 54 70 
M 60 70 
L 59.412215 71.190983 
L 58.097887 71.381966 
L 59.048943 72.309017 
L 58.824429 73.618034 
L 60 73 
L 61.175571 73.618034 
L 60.951057 72.309017 
L 61.902113 71.381966 
L 60.587785 71.190983 
L 60 70 
M 66 70 
L 65.412215 71.190983 
L 64.097887 71.381966 
L 65.048943 72.309017 
L 64.824429 73.618034 
L 66 73 
L 67.175571 73.618034 
L 66.951057 72.309017 
L 67.902113 71.381966 
L 66.587785 71.190983 
L 66 70 
M 72 70 
L 71.412215 71.190983 
L 70.097887 71.381966 
L 71.048943 72.309017 
L 70.824429 73.618034 
L 72 73 
L 73.175571 73.618034 
L 72.951057 72.309017 
L 73.902113 71.381966 
L 72.587785 71.190983 
L 72 70 
M 3 64 
L 2.412215 65.190983 
L 1.097887 65.381966 
L 2.048943 66.309017 
L 1.824429 67.618034 
L 3 67 
L 4.175571 67.618034 
L 3.951057 66.309017 
L 4.902113 65.381966 
L 3.587785 65.190983 
L 3 64 
M 9 64 
L 8.412215 65.190983 
L 7.097887 65.381966 
L 8.048943 66.309017 
L 7.824429 67.618034 
L 9 67 
L 10.175571 67.618034 
L 9.951057 66.309017 
L 10.902113 65.381966 
L 9.587785 65.190983 
L 9 64 
M 15 64 
L 14.412215 65.190983 
L 13.097887 65.381966 
L 14.048943 66.309017 
L 13.824429 67.618034 
L 15 67 
L 16.175571 67.618034 
L 15.951057 66.309017 
L 16.902113 65.381966 
L 15.587785 65.190983 
L 15 64 
M 21 64 
L 20.412215 65.190983 
L 19.097887 65.381966 
L 20.048943 66.309017 
L 19.824429 67.618034 
L 21 67 
L 22.175571 67.618034 
L 21.951057 66.309017 
L 22.902113 65.381966 
L 21.587785 65.190983 
L 21 64 
M 27 64 
L 26.412215 65.190983 
L 25.097887 65.381966 
L 26.048943 66.309017 
L 25.824429 67.618034 
L 27 67 
L 28.175571 67.618034 
L 27.951057 66.309017 
L 28.902113 65.381966 
L 27.587785 65.190983 
L 27 64 
M 33 64 
L 32.412215 65.190983 
L 31.097887 65.381966 
L 32.048943 66.309017 
L 31.824429 67.618034 
L 33 67 
L 34.175571 67.618034 
L 33.951057 66.309017 
L 34.902113 65.381966 
L 33.587785 65.190983 
L 33 64 
M 39 64 
L 38.412215 65.190983 
L 37.097887 65.381966 
L 38.048943 66.309017 
L 37.824429 67.618034 
L 39 67 
L 40.175571 67.618034 
L 39.951057 66.309017 
L 40.902113 65.381966 
L 39.587785 65.190983 
L 39 64 
M 45 64 
L 44.412215 65.190983 
L 43.097887 65.381966 
L 44.048943 66.309017 
L 43.824429 67.618034 
L 45 67 
L 46.175571 67.618034 
L 45.951057 66.309017 
L 46.902113 65.381966 
L 45.587785 65.190983 
L 45 64 
M 51 64 
L 50.412215 65.190983 
L 49.097887 65.381966 
L 50.048943 66.309017 
L 49.824429 67.618034 
L 51 67 
L 52.175571 67.618034 
L 51.951057 66.309017 
L 52.902113 65.381966 
L 51.587785 65.190983 
L 51 64 
M 57 64 
L 56.412215 65.190983 
L 55.097887 65.381966 
L 56.048943 66.309017 
L 55.824429 67.618034 
L 57 67 
L 58.175571 67.618034 
L 57.951057 66.309017 
L 58.902113 65.381966 
L 57.587785 65.190983 
L 57 64 
M 63 64 
L 62.412215 65.190983 
L 61.097887 65.381966 
L 62.048943 66.309017 
L 61.824429 67.618034 
L 63 67 
L 64.175571 67.618034 
L 63.951057 66.309017 
L 64.902113 65.381966 
L 63.587785 65.190983 
L 63 64 
M 69 64 
L 68.412215 65.190983 
L 67.097887 65.381966 
L 68.048943 66.309017 
L 67.824429 67.618034 
L 69 67 
L 70.175571 67.618034 
L 69.951057 66.309017 
L 70.902113 65.381966 
L 69.587785 65.190983 
L 69 64 
M 0 58 
L -0.587785 59.190983 
L -1.902113 59.381966 
L -0.951057 60.309017 
L -1.175571 61.618034 
L -0 61 
L 1.175571 61.618034 
L 0.951057 60.309017 
L 1.902113 59.381966 
L 0.587785 59.190983 
L 0 58 
M 6 58 
L 5.412215 59.190983 
L 4.097887 59.381966 
L 5.048943 60.309017 
L 4.824429 61.618034 
L 6 61 
L 7.175571 61.618034 
L 6.951057 60.309017 
L 7.902113 59.381966 
L 6.587785 59.190983 
L 6 58 
M 12 58 
L 11.412215 59.190983 
L 10.097887 59.381966 
L 11.048943 60.309017 
L 10.824429 61.618034 
L 12 61 
L 13.175571 61.618034 
L 12.951057 60.309017 
L 13.902113 59.381966 
L 12.587785 59.190983 
L 12 58 
M 18 58 
L 17.412215 59.190983 
L 16.097887 59.381966 
L 17.048943 60.309017 
L 16.824429 61.618034 
L 18 61 
L 19.175571 61.618034 
L 18.951057 60.309017 
L 19.902113 59.381966 
L 18.587785 59.190983 
L 18 58 
M 24 58 
L 23.412215 59.190983 
L 22.097887 59.381966 
L 23.048943 60.309017 
L 22.824429 61.618034 
L 24 61 
L 25.175571 61.618034 
L 24.951057 60.309017 
L 25.902113 59.381966 
L 24.587785 59.190983 
L 24 58 
M 30 58 
L 29.412215 59.190983 
L 28.097887 59.381966 
L 29.048943 60.309017 
L 28.824429 61.618034 
L 30 61 
L 31.175571 61.618034 
L 30.951057 60.309017 
L 31.902113 59.381966 
L 30.587785 59.190983 
L 30 58 
M 36 58 
L 35.412215 59.190983 
L 34.097887 59.381966 
L 35.048943 60.309017 
L 34.824429 61.618034 
L 36 61 
L 37.175571 61.618034 
L 36.951057 60.309017 
L 37.902113 59.381966 
L 36.587785 59.190983 
L 36 58 
M 42 58 
L 41.412215 59.190983 
L 40.097887 59.381966 
L 41.048943 60.309017 
L 40.824429 61.618034 
L 42 61 
L 43.175571 61.618034 
L 42.951057 60.309017 
L 43.902113 59.381966 
L 42.587785 59.190983 
L 42 58 
M 48 58 
L 47.412215 59.190983 
L 46.097887 59.381966 
L 47.048943 60.309017 
L 46.824429 61.618034 
L 48 61 
L 49.175571 61.618034 
L 48.951057 60.309017 
L 49.902113 59.381966 
L 48.587785 59.190983 
L 48 58 
M 54 58 
L 53.412215 59.190983 
L 52.097887 59.381966 
L 53.048943 60.309017 
L 52.824429 61.618034 
L 54 61 
L 55.175571 61.618034 
L 54.951057 60.309017 
L 55.902113 59.381966 
L 54.587785 59.190983 
L 54 58 
M 60 58 
L 59.412215 59.190983 
L 58.097887 59.381966 
L 59.048943 60.309017 
L 58.824429 61.618034 
L 60 61 
L 61.175571 61.618034 
L 60.951057 60.309017 
L 61.902113 59.381966 
L 60.587785 59.190983 
L 60 58 
M 66 58 
L 65.412215 59.190983 
L 64.097887 59.381966 
L 65.048943 60.309017 
L 64.824429 61.618034 
L 66 61 
L 67.175571 61.618034 
L 66.951057 60.309017 
L 67.902113 59.381966 
L 66.587785 59.190983 
L 66 58 
M 72 58 
L 71.412215 59.190983 
L 70.097887 59.381966 
L 71.048943 60.309017 
L 70.824429 61.618034 
L 72 61 
L 73.175571 61.618034 
L 72.951057 60.309017 
L 73.902113 59.381966 
L 72.587785 59.190983 
L 72 58 
M 3 52 
L 2.412215 53.190983 
L 1.097887 53.381966 
L 2.048943 54.309017 
L 1.824429 55.618034 
L 3 55 
L 4.175571 55.618034 
L 3.951057 54.309017 
L 4.902113 53.381966 
L 3.587785 53.190983 
L 3 52 
M 9 52 
L 8.412215 53.190983 
L 7.097887 53.381966 
L 8.048943 54.309017 
L 7.824429 55.618034 
L 9 55 
L 10.175571 55.618034 
L 9.951057 54.309017 
L 10.902113 53.381966 
L 9.587785 53.190983 
L 9 52 
M 15 52 
L 14.412215 53.190983 
L 13.097887 53.381966 
L 14.048943 54.309017 
L 13.824429 55.618034 
L 15 55 
L 16.175571 55.618034 
L 15.951057 54.309017 
L 16.902113 53.381966 
L 15.587785 53.190983 
L 15 52 
M 21 52 
L 20.412215 53.190983 
L 19.097887 53.381966 
L 20.048943 54.309017 
L 19.824429 55.618034 
L 21 55 
L 22.175571 55.618034 
L 21.951057 54.309017 
L 22.902113 53.381966 
L 21.587785 53.190983 
L 21 52 
M 27 52 
L 26.412215 53.190983 
L 25.097887 53.381966 
L 26.048943 54.309017 
L 25.824429 55.618034 
L 27 55 
L 28.175571 55.618034 
L 27.951057 54.309017 
L 28.902113 53.381966 
L 27.587785 53.190983 
L 27 52 
M 33 52 
L 32.412215 53.190983 
L 31.097887 53.381966 
L 32.048943 54.309017 
L 31.824429 55.618034 
L 33 55 
L 34.175571 55.618034 
L 33.951057 54.309017 
L 34.902113 53.381966 
L 33.587785 53.190983 
L 33 52 
M 39 52 
L 38.412215 53.190983 
L 37.097887 53.381966 
L 38.048943 54.309017 
L 37.824429 55.618034 
L 39 55 
L 40.175571 55.618034 
L 39.951057 54.309017 
L 40.902113 53.381966 
L 39.587785 53.190983 
L 39 52 
M 45 52 
L 44.412215 53.190983 
L 43.097887 53.381966 
L 44.048943 54.309017 
L 43.824429 55.618034 
L 45 55 
L 46.175571 55.618034 
L 45.951057 54.309017 
L 46.902113 53.381966 
L 45.587785 53.190983 
L 45 52 
M 51 52 
L 50.412215 53.190983 
L 49.097887 53.381966 
L 50.048943 54.309017 
L 49.824429 55.618034 
L 51 55 
L 52.175571 55.618034 
L 51.951057 54.309017 
L 52.902113 53.381966 
L 51.587785 53.190983 
L 51 52 
M 57 52 
L 56.412215 53.190983 
L 55.097887 53.381966 
L 56.048943 54.309017 
L 55.824429 55.618034 
L 57 55 
L 58.175571 55.618034 
L 57.951057 54.309017 
L 58.902113 53.381966 
L 57.587785 53.190983 
L 57 52 
M 63 52 
L 62.412215 53.190983 
L 61.097887 53.381966 
L 62.048943 54.309017 
L 61.824429 55.618034 
L 63 55 
L 64.175571 55.618034 
L 63.951057 54.309017 
L 64.902113 53.381966 
L 63.587785 53.190983 
L 63 52 
M 69 52 
L 68.412215 53.190983 
L 67.097887 53.381966 
L 68.048943 54.309017 
L 67.824429 55.618034 
L 69 55 
L 70.175571 55.618034 
L 69.951057 54.309017 
L 70.902113 53.381966 
L 69.587785 53.190983 
L 69 52 
M 0 46 
L -0.587785 47.190983 
L -1.902113 47.381966 
L -0.951057 48.309017 
L -1.175571 49.618034 
L -0 49 
L 1.175571 49.618034 
L 0.951057 48.309017 
L 1.902113 47.381966 
L 0.587785 47.190983 
L 0 46 
M 6 46 
L 5.412215 47.190983 
L 4.097887 47.381966 
L 5.048943 48.309017 
L 4.824429 49.618034 
L 6 49 
L 7.175571 49.618034 
L 6.951057 48.309017 
L 7.902113 47.381966 
L 6.587785 47.190983 
L 6 46 
M 12 46 
L 11.412215 47.190983 
L 10.097887 47.381966 
L 11.048943 48.309017 
L 10.824429 49.618034 
L 12 49 
L 13.175571 49.618034 
L 12.951057 48.309017 
L 13.902113 47.381966 
L 12.587785 47.190983 
L 12 46 
M 18 46 
L 17.412215 47.190983 
L 16.097887 47.381966 
L 17.048943 48.309017 
L 16.824429 49.618034 
L 18 49 
L 19.175571 49.618034 
L 18.951057 48.309017 
L 19.902113 47.381966 
L 18.587785 47.190983 
L 18 46 
M 24 46 
L 23.412215 47.190983 
L 22.097887 47.381966 
L 23.048943 48.309017 
L 22.824429 49.618034 
L 24 49 
L 25.175571 49.618034 
L 24.951057 48.309017 
L 25.902113 47.381966 
L 24.587785 47.190983 
L 24 46 
M 30 46 
L 29.412215 47.190983 
L 28.097887 47.381966 
L 29.048943 48.309017 
L 28.824429 49.618034 
L 30 49 
L 31.175571 49.618034 
L 30.951057 48.309017 
L 31.902113 47.381966 
L 30.587785 47.190983 
L 30 46 
M 36 46 
L 35.412215 47.190983 
L 34.097887 47.381966 
L 35.048943 48.309017 
L 34.824429 49.618034 
L 36 49 
L 37.175571 49.618034 
L 36.951057 48.309017 
L 37.902113 47.381966 
L 36.587785 47.190983 
L 36 46 
M 42 46 
L 41.412215 47.190983 
L 40.097887 47.381966 
L 41.048943 48.309017 
L 40.824429 49.618034 
L 42 49 
L 43.175571 49.618034 
L 42.951057 48.309017 
L 43.902113 47.381966 
L 42.587785 47.190983 
L 42 46 
M 48 46 
L 47.412215 47.190983 
L 46.097887 47.381966 
L 47.048943 48.309017 
L 46.824429 49.618034 
L 48 49 
L 49.175571 49.618034 
L 48.951057 48.309017 
L 49.902113 47.381966 
L 48.587785 47.190983 
L 48 46 
M 54 46 
L 53.412215 47.190983 
L 52.097887 47.381966 
L 53.048943 48.309017 
L 52.824429 49.618034 
L 54 49 
L 55.175571 49.618034 
L 54.951057 48.309017 
L 55.902113 47.381966 
L 54.587785 47.190983 
L 54 46 
M 60 46 
L 59.412215 47.190983 
L 58.097887 47.381966 
L 59.048943 48.309017 
L 58.824429 49.618034 
L 60 49 
L 61.175571 49.618034 
L 60.951057 48.309017 
L 61.902113 47.381966 
L 60.587785 47.190983 
L 60 46 
M 66 46 
L 65.412215 47.190983 
L 64.097887 47.381966 
L 65.048943 48.309017 
L 64.824429 49.618034 
L 66 49 
L 67.175571 49.618034 
L 66.951057 48.309017 
L 67.902113 47.381966 
L 66.587785 47.190983 
L 66 46 
M 72 46 
L 71.412215 47.190983 
L 70.097887 47.381966 
L 71.048943 48.309017 
L 70.824429 49.618034 
L 72 49 
L 73.175571 49.618034 
L 72.951057 48.309017 
L 73.902113 47.381966 
L 72.587785 47.190983 
L 72 46 
M 3 40 
L 2.412215 41.190983 
L 1.097887 41.381966 
L 2.048943 42.309017 
L 1.824429 43.618034 
L 3 43 
L 4.175571 43.618034 
L 3.951057 42.309017 
L 4.902113 41.381966 
L 3.587785 41.190983 
L 3 40 
M 9 40 
L 8.412215 41.190983 
L 7.097887 41.381966 
L 8.048943 42.309017 
L 7.824429 43.618034 
L 9 43 
L 10.175571 43.618034 
L 9.951057 42.309017 
L 10.902113 41.381966 
L 9.587785 41.190983 
L 9 40 
M 15 40 
L 14.412215 41.190983 
L 13.097887 41.381966 
L 14.048943 42.309017 
L 13.824429 43.618034 
L 15 43 
L 16.175571 43.618034 
L 15.951057 42.309017 
L 16.902113 41.381966 
L 15.587785 41.190983 
L 15 40 
M 21 40 
L 20.412215 41.190983 
L 19.097887 41.381966 
L 20.048943 42.309017 
L 19.824429 43.618034 
L 21 43 
L 22.175571 43.618034 
L 21.951057 42.309017 
L 22.902113 41.381966 
L 21.587785 41.190983 
L 21 40 
M 27 40 
L 26.412215 41.190983 
L 25.097887 41.381966 
L 26.048943 42.309017 
L 25.824429 43.618034 
L 27 43 
L 28.175571 43.618034 
L 27.951057 42.309017 
L 28.902113 41.381966 
L 27.587785 41.190983 
L 27 40 
M 33 40 
L 32.412215 41.190983 
L 31.097887 41.381966 
L 32.048943 42.309017 
L 31.824429 43.618034 
L 33 43 
L 34.175571 43.618034 
L 33.951057 42.309017 
L 34.902113 41.381966 
L 33.587785 41.190983 
L 33 40 
M 39 40 
L 38.412215 41.190983 
L 37.097887 41.381966 
L 38.048943 42.309017 
L 37.824429 43.618034 
L 39 43 
L 40.175571 43.618034 
L 39.951057 42.309017 
L 40.902113 41.381966 
L 39.587785 41.190983 
L 39 40 
M 45 40 
L 44.412215 41.190983 
L 43.097887 41.381966 
L 44.048943 42.309017 
L 43.824429 43.618034 
L 45 43 
L 46.175571 43.618034 
L 45.951057 42.309017 
L 46.902113 41.381966 
L 45.587785 41.190983 
L 45 40 
M 51 40 
L 50.412215 41.190983 
L 49.097887 41.381966 
L 50.048943 42.309017 
L 49.824429 43.618034 
L 51 43 
L 52.175571 43.618034 
L 51.951057 42.309017 
L 52.902113 41.381966 
L 51.587785 41.190983 
L 51 40 
M 57 40 
L 56.412215 41.190983 
L 55.097887 41.381966 
L 56.048943 42.309017 
L 55.824429 43.618034 
L 57 43 
L 58.175571 43.618034 
L 57.951057 42.309017 
L 58.902113 41.381966 
L 57.587785 41.190983 
L 57 40 
M 63 40 
L 62.412215 41.190983 
L 61.097887 41.381966 
L 62.048943 42.309017 
L 61.824429 43.618034 
L 63 43 
L 64.175571 43.618034 
L 63.951057 42.309017 
L 64.902113 41.381966 
L 63.587785 41.190983 
L 63 40 
M 69 40 
L 68.412215 41.190983 
L 67.097887 41.381966 
L 68.048943 42.309017 
L 67.824429 43.618034 
L 69 43 
L 70.175571 43.618034 
L 69.951057 42.309017 
L 70.902113 41.381966 
L 69.587785 41.190983 
L 69 40 
M 0 34 
L -0.587785 35.190983 
L -1.902113 35.381966 
L -0.951057 36.309017 
L -1.175571 37.618034 
L -0 37 
L 1.175571 37.618034 
L 0.951057 36.309017 
L 1.902113 35.381966 
L 0.587785 35.190983 
L 0 34 
M 6 34 
L 5.412215 35.190983 
L 4.097887 35.381966 
L 5.048943 36.309017 
L 4.824429 37.618034 
L 6 37 
L 7.175571 37.618034 
L 6.951057 36.309017 
L 7.902113 35.381966 
L 6.587785 35.190983 
L 6 34 
M 12 34 
L 11.412215 35.190983 
L 10.097887 35.381966 
L 11.048943 36.309017 
L 10.824429 37.618034 
L 12 37 
L 13.175571 37.618034 
L 12.951057 36.309017 
L 13.902113 35.381966 
L 12.587785 35.190983 
L 12 34 
M 18 34 
L 17.412215 35.190983 
L 16.097887 35.381966 
L 17.048943 36.309017 
L 16.824429 37.618034 
L 18 37 
L 19.175571 37.618034 
L 18.951057 36.309017 
L 19.902113 35.381966 
L 18.587785 35.190983 
L 18 34 
M 24 34 
L 23.412215 35.190983 
L 22.097887 35.381966 
L 23.048943 36.309017 
L 22.824429 37.618034 
L 24 37 
L 25.175571 37.618034 
L 24.951057 36.309017 
L 25.902113 35.381966 
L 24.587785 35.190983 
L 24 34 
M 30 34 
L 29.412215 35.190983 
L 28.097887 35.381966 
L 29.048943 36.309017 
L 28.824429 37.618034 
L 30 37 
L 31.175571 37.618034 
L 30.951057 36.309017 
L 31.902113 35.381966 
L 30.587785 35.190983 
L 30 34 
M 36 34 
L 35.412215 35.190983 
L 34.097887 35.381966 
L 35.048943 36.309017 
L 34.824429 37.618034 
L 36 37 
L 37.175571 37.618034 
L 36.951057 36.309017 
L 37.902113 35.381966 
L 36.587785 35.190983 
L 36 34 
M 42 34 
L 41.412215 35.190983 
L 40.097887 35.381966 
L 41.048943 36.309017 
L 40.824429 37.618034 
L 42 37 
L 43.175571 37.618034 
L 42.951057 36.309017 
L 43.902113 35.381966 
L 42.587785 35.190983 
L 42 34 
M 48 34 
L 47.412215 35.190983 
L 46.097887 35.381966 
L 47.048943 36.309017 
L 46.824429 37.618034 
L 48 37 
L 49.175571 37.618034 
L 48.951057 36.309017 
L 49.902113 35.381966 
L 48.587785 35.190983 
L 48 34 
M 54 34 
L 53.412215 35.190983 
L 52.097887 35.381966 
L 53.048943 36.309017 
L 52.824429 37.618034 
L 54 37 
L 55.175571 37.618034 
L 54.951057 36.309017 
L 55.902113 35.381966 
L 54.587785 35.190983 
L 54 34 
M 60 34 
L 59.412215 35.190983 
L 58.097887 35.381966 
L 59.048943 36.309017 
L 58.824429 37.618034 
L 60 37 
L 61.175571 37.618034 
L 60.951057 36.309017 
L 61.902113 35.381966 
L 60.587785 35.190983 
L 60 34 
M 66 34 
L 65.412215 35.190983 
L 64.097887 35.381966 
L 65.048943 36.309017 
L 64.824429 37.618034 
L 66 37 
L 67.175571 37.618034 
L 66.951057 36.309017 
L 67.902113 35.381966 
L 66.587785 35.190983 
L 66 34 
M 72 34 
L 71.412215 35.190983 
L 70.097887 35.381966 
L 71.048943 36.309017 
L 70.824429 37.618034 
L 72 37 
L 73.175571 37.618034 
L 72.951057 36.309017 
L 73.902113 35.381966 
L 72.587785 35.190983 
L 72 34 
M 3 28 
L 2.412215 29.190983 
L 1.097887 29.381966 
L 2.048943 30.309017 
L 1.824429 31.618034 
L 3 31 
L 4.175571 31.618034 
L 3.951057 30.309017 
L 4.902113 29.381966 
L 3.587785 29.190983 
L 3 28 
M 9 28 
L 8.412215 29.190983 
L 7.097887 29.381966 
L 8.048943 30.309017 
L 7.824429 31.618034 
L 9 31 
L 10.175571 31.618034 
L 9.951057 30.309017 
L 10.902113 29.381966 
L 9.587785 29.190983 
L 9 28 
M 15 28 
L 14.412215 29.190983 
L 13.097887 29.381966 
L 14.048943 30.309017 
L 13.824429 31.618034 
L 15 31 
L 16.175571 31.618034 
L 15.951057 30.309017 
L 16.902113 29.381966 
L 15.587785 29.190983 
L 15 28 
M 21 28 
L 20.412215 29.190983 
L 19.097887 29.381966 
L 20.048943 30.309017 
L 19.824429 31.618034 
L 21 31 
L 22.175571 31.618034 
L 21.951057 30.309017 
L 22.902113 29.381966 
L 21.587785 29.190983 
L 21 28 
M 27 28 
L 26.412215 29.190983 
L 25.097887 29.381966 
L 26.048943 30.309017 
L 25.824429 31.618034 
L 27 31 
L 28.175571 31.618034 
L 27.951057 30.309017 
L 28.902113 29.381966 
L 27.587785 29.190983 
L 27 28 
M 33 28 
L 32.412215 29.190983 
L 31.097887 29.381966 
L 32.048943 30.309017 
L 31.824429 31.618034 
L 33 31 
L 34.175571 31.618034 
L 33.951057 30.309017 
L 34.902113 29.381966 
L 33.587785 29.190983 
L 33 28 
M 39 28 
L 38.412215 29.190983 
L 37.097887 29.381966 
L 38.048943 30.309017 
L 37.824429 31.618034 
L 39 31 
L 40.175571 31.618034 
L 39.951057 30.309017 
L 40.902113 29.381966 
L 39.587785 29.190983 
L 39 28 
M 45 28 
L 44.412215 29.190983 
L 43.097887 29.381966 
L 44.048943 30.309017 
L 43.824429 31.618034 
L 45 31 
L 46.175571 31.618034 
L 45.951057 30.309017 
L 46.902113 29.381966 
L 45.587785 29.190983 
L 45 28 
M 51 28 
L 50.412215 29.190983 
L 49.097887 29.381966 
L 50.048943 30.309017 
L 49.824429 31.618034 
L 51 31 
L 52.175571 31.618034 
L 51.951057 30.309017 
L 52.902113 29.381966 
L 51.587785 29.190983 
L 51 28 
M 57 28 
L 56.412215 29.190983 
L 55.097887 29.381966 
L 56.048943 30.309017 
L 55.824429 31.618034 
L 57 31 
L 58.175571 31.618034 
L 57.951057 30.309017 
L 58.902113 29.381966 
L 57.587785 29.190983 
L 57 28 
M 63 28 
L 62.412215 29.190983 
L 61.097887 29.381966 
L 62.048943 30.309017 
L 61.824429 31.618034 
L 63 31 
L 64.175571 31.618034 
L 63.951057 30.309017 
L 64.902113 29.381966 
L 63.587785 29.190983 
L 63 28 
M 69 28 
L 68.412215 29.190983 
L 67.097887 29.381966 
L 68.048943 30.309017 
L 67.824429 31.618034 
L 69 31 
L 70.175571 31.618034 
L 69.951057 30.309017 
L 70.902113 29.381966 
L 69.587785 29.190983 
L 69 28 
M 0 22 
L -0.587785 23.190983 
L -1.902113 23.381966 
L -0.951057 24.309017 
L -1.175571 25.618034 
L -0 25 
L 1.175571 25.618034 
L 0.951057 24.309017 
L 1.902113 23.381966 
L 0.587785 23.190983 
L 0 22 
M 6 22 
L 5.412215 23.190983 
L 4.097887 23.381966 
L 5.048943 24.309017 
L 4.824429 25.618034 
L 6 25 
L 7.175571 25.618034 
L 6.951057 24.309017 
L 7.902113 23.381966 
L 6.587785 23.190983 
L 6 22 
M 12 22 
L 11.412215 23.190983 
L 10.097887 23.381966 
L 11.048943 24.309017 
L 10.824429 25.618034 
L 12 25 
L 13.175571 25.618034 
L 12.951057 24.309017 
L 13.902113 23.381966 
L 12.587785 23.190983 
L 12 22 
M 18 22 
L 17.412215 23.190983 
L 16.097887 23.381966 
L 17.048943 24.309017 
L 16.824429 25.618034 
L 18 25 
L 19.175571 25.618034 
L 18.951057 24.309017 
L 19.902113 23.381966 
L 18.587785 23.190983 
L 18 22 
M 24 22 
L 23.412215 23.190983 
L 22.097887 23.381966 
L 23.048943 24.309017 
L 22.824429 25.618034 
L 24 25 
L 25.175571 25.618034 
L 24.951057 24.309017 
L 25.902113 23.381966 
L 24.587785 23.190983 
L 24 22 
M 30 22 
L 29.412215 23.190983 
L 28.097887 23.381966 
L 29.048943 24.309017 
L 28.824429 25.618034 
L 30 25 
L 31.175571 25.618034 
L 30.951057 24.309017 
L 31.902113 23.381966 
L 30.587785 23.190983 
L 30 22 
M 36 22 
L 35.412215 23.190983 
L 34.097887 23.381966 
L 35.048943 24.309017 
L 34.824429 25.618034 
L 36 25 
L 37.175571 25.618034 
L 36.951057 24.309017 
L 37.902113 23.381966 
L 36.587785 23.190983 
L 36 22 
M 42 22 
L 41.412215 23.190983 
L 40.097887 23.381966 
L 41.048943 24.309017 
L 40.824429 25.618034 
L 42 25 
L 43.175571 25.618034 
L 42.951057 24.309017 
L 43.902113 23.381966 
L 42.587785 23.190983 
L 42 22 
M 48 22 
L 47.412215 23.190983 
L 46.097887 23.381966 
L 47.048943 24.309017 
L 46.824429 25.618034 
L 48 25 
L 49.175571 25.618034 
L 48.951057 24.309017 
L 49.902113 23.381966 
L 48.587785 23.190983 
L 48 22 
M 54 22 
L 53.412215 23.190983 
L 52.097887 23.381966 
L 53.048943 24.309017 
L 52.824429 25.618034 
L 54 25 
L 55.175571 25.618034 
L 54.951057 24.309017 
L 55.902113 23.381966 
L 54.587785 23.190983 
L 54 22 
M 60 22 
L 59.412215 23.190983 
L 58.097887 23.381966 
L 59.048943 24.309017 
L 58.824429 25.618034 
L 60 25 
L 61.175571 25.618034 
L 60.951057 24.309017 
L 61.902113 23.381966 
L 60.587785 23.190983 
L 60 22 
M 66 22 
L 65.412215 23.190983 
L 64.097887 23.381966 
L 65.048943 24.309017 
L 64.824429 25.618034 
L 66 25 
L 67.175571 25.618034 
L 66.951057 24.309017 
L 67.902113 23.381966 
L 66.587785 23.190983 
L 66 22 
M 72 22 
L 71.412215 23.190983 
L 70.097887 23.381966 
L 71.048943 24.309017 
L 70.824429 25.618034 
L 72 25 
L 73.175571 25.618034 
L 72.951057 24.309017 
L 73.902113 23.381966 
L 72.587785 23.190983 
L 72 22 
M 3 16 
L 2.412215 17.190983 
L 1.097887 17.381966 
L 2.048943 18.309017 
L 1.824429 19.618034 
L 3 19 
L 4.175571 19.618034 
L 3.951057 18.309017 
L 4.902113 17.381966 
L 3.587785 17.190983 
L 3 16 
M 9 16 
L 8.412215 17.190983 
L 7.097887 17.381966 
L 8.048943 18.309017 
L 7.824429 19.618034 
L 9 19 
L 10.175571 19.618034 
L 9.951057 18.309017 
L 10.902113 17.381966 
L 9.587785 17.190983 
L 9 16 
M 15 16 
L 14.412215 17.190983 
L 13.097887 17.381966 
L 14.048943 18.309017 
L 13.824429 19.618034 
L 15 19 
L 16.175571 19.618034 
L 15.951057 18.309017 
L 16.902113 17.381966 
L 15.587785 17.190983 
L 15 16 
M 21 16 
L 20.412215 17.190983 
L 19.097887 17.381966 
L 20.048943 18.309017 
L 19.824429 19.618034 
L 21 19 
L 22.175571 19.618034 
L 21.951057 18.309017 
L 22.902113 17.381966 
L 21.587785 17.190983 
L 21 16 
M 27 16 
L 26.412215 17.190983 
L 25.097887 17.381966 
L 26.048943 18.309017 
L 25.824429 19.618034 
L 27 19 
L 28.175571 19.618034 
L 27.951057 18.309017 
L 28.902113 17.381966 
L 27.587785 17.190983 
L 27 16 
M 33 16 
L 32.412215 17.190983 
L 31.097887 17.381966 
L 32.048943 18.309017 
L 31.824429 19.618034 
L 33 19 
L 34.175571 19.618034 
L 33.951057 18.309017 
L 34.902113 17.381966 
L 33.587785 17.190983 
L 33 16 
M 39 16 
L 38.412215 17.190983 
L 37.097887 17.381966 
L 38.048943 18.309017 
L 37.824429 19.618034 
L 39 19 
L 40.175571 19.618034 
L 39.951057 18.309017 
L 40.902113 17.381966 
L 39.587785 17.190983 
L 39 16 
M 45 16 
L 44.412215 17.190983 
L 43.097887 17.381966 
L 44.048943 18.309017 
L 43.824429 19.618034 
L 45 19 
L 46.175571 19.618034 
L 45.951057 18.309017 
L 46.902113 17.381966 
L 45.587785 17.190983 
L 45 16 
M 51 16 
L 50.412215 17.190983 
L 49.097887 17.381966 
L 50.048943 18.309017 
L 49.824429 19.618034 
L 51 19 
L 52.175571 19.618034 
L 51.951057 18.309017 
L 52.902113 17.381966 
L 51.587785 17.190983 
L 51 16 
M 57 16 
L 56.412215 17.190983 
L 55.097887 17.381966 
L 56.048943 18.309017 
L 55.824429 19.618034 
L 57 19 
L 58.175571 19.618034 
L 57.951057 18.309017 
L 58.902113 17.381966 
L 57.587785 17.190983 
L 57 16 
M 63 16 
L 62.412215 17.190983 
L 61.097887 17.381966 
L 62.048943 18.309017 
L 61.824429 19.618034 
L 63 19 
L 64.175571 19.618034 
L 63.951057 18.309017 
L 64.902113 17.381966 
L 63.587785 17.190983 
L 63 16 
M 69 16 
L 68.412215 17.190983 
L 67.097887 17.381966 
L 68.048943 18.309017 
L 67.824429 19.618034 
L 69 19 
L 70.175571 19.618034 
L 69.951057 18.309017 
L 70.902113 17.381966 
L 69.587785 17.190983 
L 69 16 
M 0 10 
L -0.587785 11.190983 
L -1.902113 11.381966 
L -0.951057 12.309017 
L -1.175571 13.618034 
L -0 13 
L 1.175571 13.618034 
L 0.951057 12.309017 
L 1.902113 11.381966 
L 0.587785 11.190983 
L 0 10 
M 6 10 
L 5.412215 11.190983 
L 4.097887 11.381966 
L 5.048943 12.309017 
L 4.824429 13.618034 
L 6 13 
L 7.175571 13.618034 
L 6.951057 12.309017 
L 7.902113 11.381966 
L 6.587785 11.190983 
L 6 10 
M 12 10 
L 11.412215 11.190983 
L 10.097887 11.381966 
L 11.048943 12.309017 
L 10.824429 13.618034 
L 12 13 
L 13.175571 13.618034 
L 12.951057 12.309017 
L 13.902113 11.381966 
L 12.587785 11.190983 
L 12 10 
M 18 10 
L 17.412215 11.190983 
L 16.097887 11.381966 
L 17.048943 12.309017 
L 16.824429 13.618034 
L 18 13 
L 19.175571 13.618034 
L 18.951057 12.309017 
L 19.902113 11.381966 
L 18.587785 11.190983 
L 18 10 
M 24 10 
L 23.412215 11.190983 
L 22.097887 11.381966 
L 23.048943 12.309017 
L 22.824429 13.618034 
L 24 13 
L 25.175571 13.618034 
L 24.951057 12.309017 
L 25.902113 11.381966 
L 24.587785 11.190983 
L 24 10 
M 30 10 
L 29.412215 11.190983 
L 28.097887 11.381966 
L 29.048943 12.309017 
L 28.824429 13.618034 
L 30 13 
L 31.175571 13.618034 
L 30.951057 12.309017 
L 31.902113 11.381966 
L 30.587785 11.190983 
L 30 10 
M 36 10 
L 35.412215 11.190983 
L 34.097887 11.381966 
L 35.048943 12.309017 
L 34.824429 13.618034 
L 36 13 
L 37.175571 13.618034 
L 36.951057 12.309017 
L 37.902113 11.381966 
L 36.587785 11.190983 
L 36 10 
M 42 10 
L 41.412215 11.190983 
L 40.097887 11.381966 
L 41.048943 12.309017 
L 40.824429 13.618034 
L 42 13 
L 43.175571 13.618034 
L 42.951057 12.309017 
L 43.902113 11.381966 
L 42.587785 11.190983 
L 42 10 
M 48 10 
L 47.412215 11.190983 
L 46.097887 11.381966 
L 47.048943 12.309017 
L 46.824429 13.618034 
L 48 13 
L 49.175571 13.618034 
L 48.951057 12.309017 
L 49.902113 11.381966 
L 48.587785 11.190983 
L 48 10 
M 54 10 
L 53.412215 11.190983 
L 52.097887 11.381966 
L 53.048943 12.309017 
L 52.824429 13.618034 
L 54 13 
L 55.175571 13.618034 
L 54.951057 12.309017 
L 55.902113 11.381966 
L 54.587785 11.190983 
L 54 10 
M 60 10 
L 59.412215 11.190983 
L 58.097887 11.381966 
L 59.048943 12.309017 
L 58.824429 13.618034 
L 60 13 
L 61.175571 13.618034 
L 60.951057 12.309017 
L 61.902113 11.381966 
L 60.587785 11.190983 
L 60 10 
M 66 10 
L 65.412215 11.190983 
L 64.097887 11.381966 
L 65.048943 12.309017 
L 64.824429 13.618034 
L 66 13 
L 67.175571 13.618034 
L 66.951057 12.309017 
L 67.902113 11.381966 
L 66.587785 11.190983 
L 66 10 
M 72 10 
L 71.412215 11.190983 
L 70.097887 11.381966 
L 71.048943 12.309017 
L 70.824429 13.618034 
L 72 13 
L 73.175571 13.618034 
L 72.951057 12.309017 
L 73.902113 11.381966 
L 72.587785 11.190983 
L 72 10 
M 3 4 
L 2.412215 5.190983 
L 1.097887 5.381966 
L 2.048943 6.309017 
L 1.824429 7.618034 
L 3 7 
L 4.175571 7.618034 
L 3.951057 6.309017 
L 4.902113 5.381966 
L 3.587785 5.190983 
L 3 4 
M 9 4 
L 8.412215 5.190983 
L 7.097887 5.381966 
L 8.048943 6.309017 
L 7.824429 7.618034 
L 9 7 
L 10.175571 7.618034 
L 9.951057 6.309017 
L 10.902113 5.381966 
L 9.587785 5.190983 
L 9 4 
M 15 4 
L 14.412215 5.190983 
L 13.097887 5.381966 
L 14.048943 6.309017 
L 13.824429 7.618034 
L 15 7 
L 16.175571 7.618034 
L 15.951057 6.309017 
L 16.902113 5.381966 
L 15.587785 5.190983 
L 15 4 
M 21 4 
L 20.412215 5.190983 
L 19.097887 5.381966 
L 20.048943 6.309017 
L 19.824429 7.618034 
L 21 7 
L 22.175571 7.618034 
L 21.951057 6.309017 
L 22.902113 5.381966 
L 21.587785 5.190983 
L 21 4 
M 27 4 
L 26.412215 5.190983 
L 25.097887 5.381966 
L 26.048943 6.309017 
L 25.824429 7.618034 
L 27 7 
L 28.175571 7.618034 
L 27.951057 6.309017 
L 28.902113 5.381966 
L 27.587785 5.190983 
L 27 4 
M 33 4 
L 32.412215 5.190983 
L 31.097887 5.381966 
L 32.048943 6.309017 
L 31.824429 7.618034 
L 33 7 
L 34.175571 7.618034 
L 33.951057 6.309017 
L 34.902113 5.381966 
L 33.587785 5.190983 
L 33 4 
M 39 4 
L 38.412215 5.190983 
L 37.097887 5.381966 
L 38.048943 6.309017 
L 37.824429 7.618034 
L 39 7 
L 40.175571 7.618034 
L 39.951057 6.309017 
L 40.902113 5.381966 
L 39.587785 5.190983 
L 39 4 
M 45 4 
L 44.412215 5.190983 
L 43.097887 5.381966 
L 44.048943 6.309017 
L 43.824429 7.618034 
L 45 7 
L 46.175571 7.618034 
L 45.951057 6.309017 
L 46.902113 5.381966 
L 45.587785 5.190983 
L 45 4 
M 51 4 
L 50.412215 5.190983 
L 49.097887 5.381966 
L 50.048943 6.309017 
L 49.824429 7.618034 
L 51 7 
L 52.175571 7.618034 
L 51.951057 6.309017 
L 52.902113 5.381966 
L 51.587785 5.190983 
L 51 4 
M 57 4 
L 56.412215 5.190983 
L 55.097887 5.381966 
L 56.048943 6.309017 
L 55.824429 7.618034 
L 57 7 
L 58.175571 7.618034 
L 57.951057 6.309017 
L 58.902113 5.381966 
L 57.587785 5.190983 
L 57 4 
M 63 4 
L 62.412215 5.190983 
L 61.097887 5.381966 
L 62.048943 6.309017 
L 61.824429 7.618034 
L 63 7 
L 64.175571 7.618034 
L 63.951057 6.309017 
L 64.902113 5.381966 
L 63.587785 5.190983 
L 63 4 
M 69 4 
L 68.412215 5.190983 
L 67.097887 5.381966 
L 68.048943 6.309017 
L 67.824429 7.618034 
L 69 7 
L 70.175571 7.618034 
L 69.951057 6.309017 
L 70.902113 5.381966 
L 69.587785 5.190983 
L 69 4 
M 0 -2 
L -0.587785 -0.809017 
L -1.902113 -0.618034 
L -0.951057 0.309017 
L -1.175571 1.618034 
L -0 1 
L 1.175571 1.618034 
L 0.951057 0.309017 
L 1.902113 -0.618034 
L 0.587785 -0.809017 
L 0 -2 
M 6 -2 
L 5.412215 -0.809017 
L 4.097887 -0.618034 
L 5.048943 0.309017 
L 4.824429 1.618034 
L 6 1 
L 7.175571 1.618034 
L 6.951057 0.309017 
L 7.902113 -0.618034 
L 6.587785 -0.809017 
L 6 -2 
M 12 -2 
L 11.412215 -0.809017 
L 10.097887 -0.618034 
L 11.048943 0.309017 
L 10.824429 1.618034 
L 12 1 
L 13.175571 1.618034 
L 12.951057 0.309017 
L 13.902113 -0.618034 
L 12.587785 -0.809017 
L 12 -2 
M 18 -2 
L 17.412215 -0.809017 
L 16.097887 -0.618034 
L 17.048943 0.309017 
L 16.824429 1.618034 
L 18 1 
L 19.175571 1.618034 
L 18.951057 0.309017 
L 19.902113 -0.618034 
L 18.587785 -0.809017 
L 18 -2 
M 24 -2 
L 23.412215 -0.809017 
L 22.097887 -0.618034 
L 23.048943 0.309017 
L 22.824429 1.618034 
L 24 1 
L 25.175571 1.618034 
L 24.951057 0.309017 
L 25.902113 -0.618034 
L 24.587785 -0.809017 
L 24 -2 
M 30 -2 
L 29.412215 -0.809017 
L 28.097887 -0.618034 
L 29.048943 0.309017 
L 28.824429 1.618034 
L 30 1 
L 31.175571 1.618034 
L 30.951057 0.309017 
L 31.902113 -0.618034 
L 30.587785 -0.809017 
L 30 -2 
M 36 -2 
L 35.412215 -0.809017 
L 34.097887 -0.618034 
L 35.048943 0.309017 
L 34.824429 1.618034 
L 36 1 
L 37.175571 1.618034 
L 36.951057 0.309017 
L 37.902113 -0.618034 
L 36.587785 -0.809017 
L 36 -2 
M 42 -2 
L 41.412215 -0.809017 
L 40.097887 -0.618034 
L 41.048943 0.309017 
L 40.824429 1.618034 
L 42 1 
L 43.175571 1.618034 
L 42.951057 0.309017 
L 43.902113 -0.618034 
L 42.587785 -0.809017 
L 42 -2 
M 48 -2 
L 47.412215 -0.809017 
L 46.097887 -0.618034 
L 47.048943 0.309017 
L 46.824429 1.618034 
L 48 1 
L 49.175571 1.618034 
L 48.951057 0.309017 
L 49.902113 -0.618034 
L 48.587785 -0.809017 
L 48 -2 
M 54 -2 
L 53.412215 -0.809017 
L 52.097887 -0.618034 
L 53.048943 0.309017 
L 52.824429 1.618034 
L 54 1 
L 55.175571 1.618034 
L 54.951057 0.309017 
L 55.902113 -0.618034 
L 54.587785 -0.809017 
L 54 -2 
M 60 -2 
L 59.412215 -0.809017 
L 58.097887 -0.618034 
L 59.048943 0.309017 
L 58.824429 1.618034 
L 60 1 
L 61.175571 1.618034 
L 60.951057 0.309017 
L 61.902113 -0.618034 
L 60.587785 -0.809017 
L 60 -2 
M 66 -2 
L 65.412215 -0.809017 
L 64.097887 -0.618034 
L 65.048943 0.309017 
L 64.824429 1.618034 
L 66 1 
L 67.175571 1.618034 
L 66.951057 0.309017 
L 67.902113 -0.618034 
L 66.587785 -0.809017 
L 66 -2 
M 72 -2 
L 71.412215 -0.809017 
L 70.097887 -0.618034 
L 71.048943 0.309017 
L 70.824429 1.618034 
L 72 1 
L 73.175571 1.618034 
L 72.951057 0.309017 
L 73.902113 -0.618034 
L 72.587785 -0.809017 
L 72 -2 
" style="fill:#000000;stroke:#000000;stroke-linecap:butt;stroke-linejoin:miter;stroke-width:1.0;"/>
  </pattern>
  <pattern height="72" id="hd5bac40f38" patternUnits="userSpaceOnUse" width="72" x="0" y="0">
   <rect fill="#bae1ff" height="73" width="73" x="0" y="0"/>
   <path style="fill:#000000;stroke:#000000;stroke-linecap:butt;stroke-linejoin:miter;stroke-width:1.0;"/>
  </pattern>
 </defs>
</svg>
